<?xml version="1.0" encoding="UTF-8" standalone="no"?>
<!-- Created with Inkscape (http://www.inkscape.org/) -->
<svg
   xmlns:svg="http://www.w3.org/2000/svg"
   xmlns="http://www.w3.org/2000/svg"
   version="1.0"
   width="720"
   height="720"
   viewBox="0 0 216.906 219.51"
   id="svg2"
   xml:space="preserve"><defs
   id="defs324" />
<g
   id="Guides">
</g>
<g
   id="Layer_1">
	<g
   transform="matrix(1.0120196,0,0,0.999992,-1.302239,1.7662767e-3)"
   id="g6">
		<path
   d="M 194.462,22.814 L 194.016,23.474 C 176.941,43.296 176.992,75.507 184.351,99.745 C 186.412,95.918 190.435,93.759 194.164,92.385 C 197.795,91.502 201.033,92.778 203.584,95.034 C 207.019,99.057 206.528,105.044 208.589,109.851 C 210.552,115.445 213.888,120.351 216.538,125.65 C 216.734,127.809 215.851,129.575 214.673,131.243 C 212.514,133.893 209.374,133.991 206.43,134.776 C 208.589,146.257 203.682,156.561 197.009,165.196 C 181.014,184.135 156.775,186.098 136.952,197.481 C 127.237,202.878 117.13,210.042 108.69,219.168 L 108.003,219.168 C 91.32,201.21 69.732,190.809 47.75,183.841 C 30.871,177.757 11.932,162.056 9.773,142.822 C 9.675,139.976 9.871,137.228 10.46,134.579 C 6.437,133.99 1.53,132.617 0.353,128.004 C 0.059,122.901 4.18,119.663 6.044,115.542 C 11.486,108.919 7.418,92.776 20.371,91.991 C 25.474,92.089 30.086,95.426 32.638,99.743 C 39.507,75.309 40.265,42.676 23.485,22.461 L 23.485,22.461 L 46.177,0.37 L 171.104,0.34 L 194.462,22.814 z "
   style="fill:#ffd520;stroke:#000000;stroke-width:0.67970002"
   id="path8" />
		<path
   d="M 167.708,4.354 C 174.086,10.045 182.39,17.218 187.885,23.4 C 171.693,44.302 171.791,75.311 178.66,100.432 C 184.155,114.955 180.034,132.52 168.553,143.511 C 156.483,154.109 140.323,154.789 127.043,162.646 C 120.713,166.391 114.482,170.398 108.496,175.108 C 103.099,172.066 98.094,167.945 92.697,165.001 C 81.019,157.641 69.475,155.681 56.029,149.428 C 42.781,141.186 34.898,126.142 35.977,110.539 C 41.374,88.95 46.87,61.67 38.529,39.885 C 36.37,33.997 33.081,28.13 29.646,22.831 L 30.286,22.025 C 36.861,16.138 43.307,9.155 49.175,4.409 L 167.708,4.354 z "
   style="fill:#ffffff;stroke:#000000;stroke-width:0.67970002;stroke-linecap:square;stroke-miterlimit:2"
   id="path10" />
		<path
   d="M 26.948,99.059 C 32.247,104.849 28.715,111.914 30.089,119.078 C 31.169,132.718 39.117,145.279 51.285,152.736 C 61.392,158.82 76.909,161.778 84.287,165.987 C 92.521,170.684 100.651,175.425 108.6,181.117 C 122.83,171.5 136.169,161.764 152.754,157.937 C 167.572,154.699 182.194,141.059 185.726,126.143 C 190.142,115.545 181.408,98.568 196.815,96.213 C 198.581,96.311 200.936,97.391 201.721,99.451 C 202.408,102.297 202.702,105.241 200.543,107.497 L 195.637,99.745 C 193.674,99.352 192.006,102.002 190.927,103.474 C 184.647,119.959 207.119,128.497 202.703,145.375 C 197.404,167.258 173.557,179.23 153.932,184.038 C 137.348,191.103 121.941,199.739 108.203,212.79 C 96.917,202.334 73.956,187.729 60.166,183.714 C 48.14,180.213 20.081,167.846 14.487,146.356 C 8.796,128.496 34.309,118.978 24.889,101.609 C 23.908,100.627 23.025,99.45 21.552,99.45 L 16.646,107.3 C 15.076,106.712 15.076,104.16 14.487,102.59 C 14.683,100.039 15.665,97.291 18.314,96.408 C 21.257,95.82 24.888,96.213 26.948,99.059 z "
   style="fill:#ffffff;stroke:#000000;stroke-width:0.67970002;stroke-linecap:square;stroke-miterlimit:2"
   id="path12" />
		<path
   d="M 22.238,109.362 L 20.178,109.166 L 22.238,104.946 C 22.63,106.222 23.71,108.381 22.238,109.362 z "
   style="fill:#ffffff;stroke:#000000;stroke-width:0.67970002;stroke-linecap:square;stroke-miterlimit:2"
   id="path14" />
		<path
   d="M 196.815,109.362 L 194.165,109.362 C 193.674,108.087 193.923,106.691 194.656,105.339 C 195.735,106.32 196.422,107.89 196.815,109.362 z "
   style="fill:#ffffff;stroke:#000000;stroke-width:0.67970002;stroke-linecap:square;stroke-miterlimit:2"
   id="path16" />
		<path
   d="M 21.846,113.582 C 20.178,119.273 15.86,123.885 12.818,128.89 C 11.051,129.871 8.5,130.657 6.538,129.675 C 0.748,126.339 7.4,122.303 8.599,119.273 C 9.957,115.838 12.131,112.698 12.622,108.871 C 14.584,112.012 18.509,113.189 21.846,113.582 z "
   style="fill:#ffffff;stroke:#000000;stroke-width:0.67970002;stroke-linecap:square;stroke-miterlimit:2"
   id="path18" />
		<path
   d="M 212.32,127.32 C 211.829,128.694 210.357,129.675 209.081,130.068 C 202.212,131.344 200.168,121.635 198.709,120.184 L 195.146,113.877 C 198.482,112.994 202.407,112.405 204.371,109.167 C 205.254,115.937 209.67,121.236 212.32,127.32 z "
   style="fill:#ffffff;stroke:#000000;stroke-width:0.67970002;stroke-linecap:square;stroke-miterlimit:2"
   id="path20" />
		<g
   id="g22">
			<g
   id="g24">
				<path
   d="M 355.96875,71.25 C 352.25565,71.310116 348.59847,71.811652 344.8125,72.375 C 340.3615,73.037567 337.17036,76.010811 333.5,78.625 C 329.5902,81.416308 326.76083,84.886836 324.8125,89 C 323.80553,91.128741 322.34626,93.027687 321.5,95.21875 C 319.55494,100.26016 317.51111,105.22988 317.9375,110.8125 C 318.37046,116.46728 323.82989,118.88391 328.15625,121.40625 C 327.46088,125.20453 326.74835,130.21399 330.75,132.5625 C 330.06119,135.23245 328.81352,137.67935 328.59375,140.5625 C 328.53471,141.31691 327.4728,141.90195 326.59375,142.125 C 322.18211,143.25661 317.81915,143.30984 313.84375,145.8125 C 310.01595,148.22004 307.44417,151.66838 305.1875,155.3125 C 300.62825,162.67945 296.52312,169.89104 293.125,177.75 C 290.12377,184.69383 288.42155,191.98126 286.3125,199.1875 C 282.82911,200.04687 281.40635,202.86721 280.875,205.875 C 280.29115,209.21735 279.88887,212.08567 279,215.5625 C 278.70808,216.71051 278.68756,217.88634 279.28125,218.96875 C 280.42926,221.05485 283.35383,221.36297 284,223.46875 C 284.55761,225.28261 283.64909,227.52816 284.59375,229.3125 C 292.47895,244.22681 305.25355,253.26313 319.0625,262.96875 C 319.85955,263.52964 320.70818,264.53751 320.46875,265 C 317.19528,271.30094 310.36487,277.02736 310.84375,284.25 C 310.89951,285.09297 311.07152,285.95814 311.34375,286.84375 C 312.20312,289.65474 315.81027,290.58848 319.03125,289.90625 C 319.24117,289.86361 319.62882,290.33653 319.8125,290.6875 C 320.01258,291.06798 319.68003,291.30319 319.375,291.5 C 318.70259,290.42415 317.993,291.34411 317.28125,291.46875 C 316.93685,291.53107 316.64367,291.87279 316.84375,292.25 C 317.03071,292.60424 317.40679,292.80528 317.59375,293.15625 C 317.79383,293.53673 317.4499,293.85531 317.1875,293.875 C 316.05261,293.96684 315.12439,294.30959 314.34375,294.4375 C 312.41509,294.75566 310.22446,292.78293 308.78125,293.9375 C 306.47211,295.78088 304.48752,297.59466 302.4375,299.625 C 301.9947,300.06452 303.3408,301.55429 301.75,302.125 C 300.86767,302.44316 301.37661,303.47067 301.9375,303.5625 C 303.10847,303.75602 304.80708,301.94012 305.78125,302.28125 C 306.27325,302.45509 307.49368,303.71125 306.4375,304.53125 C 305.66669,305.12822 303.13909,304.62388 304.03125,305.375 C 305.54991,306.65749 306.56758,306.246 307.1875,306 C 307.76151,305.77368 308.57146,304.3583 309.96875,304.84375 C 310.30003,304.95527 310.56197,305.2692 310.375,305.65625 C 310.03388,306.36146 309.32145,307.11196 309,307.71875 C 308.45551,308.7454 308.15773,309.25423 307.53125,310.15625 C 304.8777,313.97749 304.2491,318.10606 302.21875,321.8125 C 291.87353,340.68909 278.54345,356.81144 268.5,375.875 C 268.05064,376.72125 268.05636,377.979 268.78125,378.6875 C 272.36633,382.21354 276.62848,384.10624 280.125,387.875 C 280.80397,388.60973 283.05391,387.98692 283.5,386.875 C 290.15847,370.30755 296.67879,354.17851 303.9375,337.90625 C 305.77432,333.79309 306.66272,328.23108 310.625,325.65625 C 311.65493,324.98384 312.92755,327.68521 315.1875,325.75 C 316.24367,324.84799 316.91562,324.24148 317.3125,323.5625 C 318.36867,328.29887 315.6061,333.61168 314.75,338.125 C 314.29736,340.50302 311.49623,342.61457 311.90625,345.28125 C 313.02802,352.56948 309.59334,359.13024 308.875,366.09375 C 308.76348,367.16632 307.63513,368.4276 307.15625,369.5625 C 305.9492,372.40957 305.98575,375.72234 305.03125,378.6875 C 304.11612,381.52145 302.99317,384.60086 300.625,386.5 C 299.47043,387.42169 297.45591,387.49654 297,389.15625 C 294.7007,397.55969 294.55282,405.61488 292.90625,414.09375 C 292.79145,414.68088 291.54556,414.62388 291.375,415.375 C 290.33523,419.98673 289.33493,425.23166 289.125,429.71875 C 289.03316,431.67037 279.14951,432.0975 279.09375,433.40625 C 278.95927,436.45996 278.68751,439.1875 278.6875,439.1875 C 271.0975,441.81809 261.75321,444.58054 253.15625,446.84375 C 256.10828,453.97126 258.68024,459.58716 261.875,465.875 C 266.19808,467.19357 270.7347,468.09578 274.5625,469.375 C 275.61867,469.72596 272.20463,472.26577 272.4375,474.3125 C 272.4703,474.58146 272.36869,475.46273 273.03125,475.65625 C 270.53843,480.68454 268.52352,486.53475 272.125,491.75 C 274.08974,494.59707 276.65986,496.60528 279.625,497.75 C 284.98785,499.81642 291.31576,499.21115 295.875,496 C 300.72289,492.58549 300.36292,485.29617 301.875,479.625 C 314.51625,477.3913 327.48786,475.14408 339.84375,474.34375 C 341.08032,474.26175 339.47687,478.33904 341.15625,479.5625 C 343.6622,481.3862 346.70751,480.40964 349.65625,479.875 C 350.53202,479.71428 350.22114,481.94616 351.625,482.09375 C 356.63361,482.62512 365.24278,483.04477 365.59375,482.03125 C 366.24648,480.14851 369.58328,477.5993 371.65625,479.53125 C 372.04001,479.88877 372.03441,480.85256 372.5625,481.0625 C 383.39973,485.35278 395.05006,482.52771 406.15625,481.875 C 407.1173,484.26614 409.57607,485.57711 412,484.9375 C 414.83395,484.18637 419.90411,484.78212 419.15625,481.65625 C 413.48835,457.96785 407.44491,435.33225 402.59375,411.90625 C 406.22147,409.80047 411.26685,410.68741 413.6875,406.65625 C 414.06142,406.03632 414.65763,405.20901 414.5625,404.6875 C 412.81424,395.22461 408.764,387.21326 407.34375,377.875 C 406.24166,370.60645 412.35997,364.64967 418.5625,361.21875 C 425.41121,357.42703 433.03297,356.40422 441.0625,356.84375 C 441.32818,356.86015 441.52605,353.58346 441.4375,351.15625 L 437.53125,349.40625 C 424.4636,348.7896 409.83917,352.67584 402.53125,364.625 C 401.39964,362.44378 400.1842,360.3565 398.46875,358.5 C 396.38265,356.24662 393.1662,356.9639 390.90625,355.28125 C 391.34577,354.87125 391.93649,354.51169 392.15625,354 C 393.87827,350.00492 392.05102,344.49557 396.0625,341.8125 C 396.63323,334.10114 398.14242,325.71171 399.625,318.125 C 405.02393,315.96674 411.28411,313.67985 416.84375,311.59375 L 416.75,311.4375 L 414.15625,301.46875 L 407.40625,299.75 C 406.64528,299.8812 403.52693,302.20343 402.03125,302.59375 C 401.74589,302.66919 401.98204,299.05881 402.03125,298.34375 C 402.14605,296.66765 406.08533,297.30062 406.59375,296.03125 C 407.71552,293.24322 408.4156,290.42443 408.8125,287.59375 L 408.78125,287.59375 C 410.19166,277.47485 407.63311,267.09124 405.875,256.5 C 402.96233,238.95838 401.68057,222.61228 399.84375,205.625 C 419.12378,182.17277 437.22392,158.34476 456.15625,134.125 C 457.67163,132.1865 464.65352,122.87267 464.84375,122.0625 C 465.23735,120.39296 464.79447,119.34189 464.25,118.125 C 463.23647,115.86178 460.07854,113.99639 458.21875,117.3125 C 457.46434,116.70897 456.66013,116.23115 455.71875,115.96875 C 455.68595,117.143 456.92348,118.36468 456.625,118.78125 C 437.52865,145.64472 417.42645,167.94002 398.15625,192.8125 C 397.22472,184.98962 397.60811,177.16443 394.59375,169.71875 C 392.54045,164.64454 388.67989,160.65319 383.75,157.875 C 379.40724,155.42482 377.59109,150.31039 373.8125,146.71875 C 371.36232,144.39321 367.31237,144.27765 366.125,141.3125 C 365.72484,140.31537 366.1962,138.50798 366.9375,137.28125 C 368.66608,134.42434 372.0129,133.72227 374.78125,132.65625 C 376.82471,131.86576 378.67008,130.76203 378.90625,128.65625 C 379.13913,126.58655 378.84185,124.64914 378.75,122.75 C 378.6352,120.3687 377.98576,117.99617 378.75,116.09375 C 379.91441,113.19092 384.40727,112.66543 387.625,111.28125 C 392.75169,109.07707 394.24606,102.67798 394.59375,97.65625 C 395.21368,88.711601 386.67065,83.535618 380.8125,77.625 C 375.53821,72.301507 367.15287,71.917753 359.6875,71.34375 C 358.43207,71.246989 357.20645,71.229961 355.96875,71.25 z "
   transform="matrix(0.304875,0,0,0.304875,-1.302,0)"
   style="fill:#0060a9"
   id="path26" />
				
			</g>
			<path
   d="M 108.756,24.97 C 110.245,25.268 111.941,26.121 113.259,27.082 C 113.293,27.107 113.058,26.545 112.997,26.463 C 112.564,25.889 111.988,25.498 111.242,24.84 C 112.367,25.068 113.313,25.423 114.63,26.355 C 114.541,26.289 114.472,26.016 114.329,25.724 C 115.729,26.507 116.687,27.718 117.9,28.786 C 117.969,28.847 118.029,28.573 117.982,28.456 C 117.224,26.637 115.758,25.441 114.212,24.215 C 113.012,23.264 111.571,22.805 110.143,22.712 C 107.739,22.553 105.19,22.295 102.879,23.309 C 102.209,23.603 101.389,24.162 99.648,25.953 C 98.88,26.744 98.23,27.673 98.07,28.718 C 98.051,28.843 97.908,29.563 97.926,29.537 C 98.867,28.184 100.289,26.736 101.74,26.122 C 102.387,25.849 103.255,25.584 104.365,25.643 C 103.987,25.225 103.148,25.195 102.403,25.057 C 104.424,24.026 106.629,24.543 108.756,24.97 z "
   style="fill:#ffffff"
   id="path30" />
			<path
   d="M 111.024,27.791 C 110.098,27.352 108.818,27.152 108.344,28.15 C 108.19,28.475 108.035,28.881 107.719,29.136 C 107.935,29.397 108.236,29.234 108.493,29.292 C 108.287,30.172 106.926,30.079 106.741,30.816 C 106.697,30.991 107.423,30.659 107.436,30.825 C 107.479,31.408 107.008,32.061 106.509,32.386 C 106.234,32.565 105.679,32.418 105.566,32.841 C 105.506,33.063 105.671,33.338 105.619,33.611 C 104.988,33.207 104.449,32.785 104.182,32.028 C 104.155,31.953 103.677,31.959 103.668,31.999 C 103.355,33.404 104.745,35.088 106.241,34.411 C 106.83,35.81 107.564,37.231 108.891,38.057 C 110.002,38.749 113.453,38.822 113.619,38.004 C 113.801,37.106 112.42,37.499 111.798,37.377 C 111.799,37.126 112.143,37.074 112.533,36.798 C 112.856,36.569 113.262,36.686 113.396,36.689 C 113.594,36.694 113.721,36.209 113.445,36.118 C 113.171,36.028 112.844,36.012 112.556,36.083 C 112.364,36.131 112.154,36.262 111.937,36.372 C 111.624,36.529 111.294,36.642 110.979,36.392 C 111.388,36.131 111.597,35.892 111.721,35.82 C 112.309,35.482 112.541,35.591 113.343,35.646 C 113.412,35.651 113.695,35.516 113.592,35.324 C 113.278,34.735 112.443,34.96 112.135,34.449 C 111.95,34.141 112.194,33.234 112.766,33.404 C 112.809,33.417 112.698,33.819 112.885,33.834 C 113.576,33.89 115.067,34.015 114.819,33.43 C 114.529,32.746 113.863,31.798 113.402,31.339 C 112.877,30.816 112.564,32.776 111.261,32.222 C 110.865,32.054 110.558,31.645 110.208,31.513 C 109.788,31.355 109.34,31.309 109.109,30.862 C 109.056,30.759 109.056,30.573 109.124,30.504 C 110.069,29.55 111.596,28.939 112.911,29.804 C 112.949,29.829 113.088,29.697 113.018,29.586 C 112.501,28.778 111.875,28.195 111.024,27.791 z "
   style="fill:#ffffff"
   id="path32" />
			<g
   id="g34">
				<path
   d="M 111.529,30.335 C 111.798,30.375 111.863,30.039 111.837,30.016 C 111.464,29.68 110.195,30.373 109.937,30.664 C 110.555,31.259 110.497,30.182 111.529,30.335 z "
   style="fill:#ffffff"
   id="path36" />
			</g>
			<path
   d="M 104.6,37.502 C 103.634,38.183 104.456,39.559 104.341,40.579 C 105.652,41.519 106.99,42.527 108.466,43.013 C 108.728,43.1 109.138,41.992 108.97,41.746 C 107.875,40.14 107.009,38.555 105.671,37.207 C 105.529,37.065 104.935,37.266 104.6,37.502 z "
   style="fill:#ffffff"
   id="path38" />
			<path
   d="M 104.679,41.777 C 103.797,41.197 102.828,40.715 101.898,41.107 C 100.982,41.492 100.226,42.197 99.583,43.014 C 100.432,43.742 101.571,43.704 102.517,44.181 C 103.194,44.523 103.803,45.194 104.45,45.255 C 105.296,45.336 106.076,44.061 106.899,44.322 C 107.257,44.436 106.956,45.482 107.247,45.77 C 107.767,46.284 108.95,45.688 109.761,45.439 C 108.163,44.083 106.483,42.964 104.679,41.777 z "
   style="fill:#ffffff"
   id="path40" />
			<path
   d="M 97.928,70.581 C 97.337,69.477 97.077,68.303 96.742,67.095 C 96.521,66.3 95.785,65.796 95.163,65.229 C 95.014,65.093 94.897,65.345 94.81,65.463 C 94.38,66.046 94.876,66.662 94.7,67.256 C 94.521,67.858 94.466,67.505 94.101,67.985 C 94.011,68.103 94.016,68.362 94.1,68.475 C 95.49,70.359 96.318,72.432 97.905,74.082 C 99.155,73.247 98.644,71.918 97.928,70.581 z "
   style="fill:#ffffff"
   id="path42" />
			<path
   d="M 108.075,52.915 C 110.102,55.01 111.475,57.457 113.033,59.837 C 113.427,57.909 112.72,55.932 112.714,53.982 C 113.608,55.263 113.712,56.88 114.518,58.199 C 114.892,56.66 114.638,54.968 114.159,53.511 C 113.801,53.7 114.087,54.286 113.609,54.401 C 113.586,52.985 114.186,51.108 112.91,50.185 C 111.231,48.97 109.654,47.953 108.137,46.581 C 107.858,46.329 107.413,46.461 107.094,46.548 C 106.662,46.664 106.928,45.649 106.512,45.671 C 105.835,45.705 105.24,46.548 104.559,46.337 C 103.136,45.894 101.772,45.399 100.423,44.751 C 100.309,44.696 100.035,44.749 100.087,44.805 C 101.045,45.872 101.494,47.137 101.49,48.407 C 101.48,51.719 100.594,54.895 99.946,58.238 C 99.518,60.448 99.696,62.643 100.006,64.847 C 101.312,65.805 103.119,65.571 104.359,66.684 C 102.844,66.81 101.327,66.744 99.81,66.788 C 100.486,68.063 101.039,69.618 102.419,70.254 C 101.804,70.585 100.754,70.314 100.603,70.877 C 100.311,71.964 100.377,73.221 100.851,74.356 C 102.586,72.511 104.018,70.417 105.725,68.548 C 104.713,65.28 103.037,62.326 102.599,58.822 C 102.417,57.369 102.213,55.976 102.307,54.534 C 102.858,56.326 103.247,58.159 103.997,59.891 C 104.963,62.122 105.992,64.268 107.361,66.265 C 108.608,65.161 109.663,63.882 110.733,62.614 C 107.244,60.344 104.283,56.744 103.675,52.503 C 103.872,52.838 103.972,53.211 104.191,53.537 C 105.28,55.165 106.376,56.558 107.718,57.89 C 108.659,58.824 109.009,60.205 110.276,60.781 C 110.121,58.865 108.436,57.656 108.154,55.765 C 108.152,55.753 108.305,55.817 108.365,55.91 C 108.458,55.85 108.559,55.774 108.491,55.662 C 106.81,52.9 104.746,50.788 102.909,48.321 C 104.839,49.619 106.434,51.218 108.075,52.915 z "
   style="fill:#ffffff"
   id="path44" />
			<path
   d="M 99.417,48.962 C 99.8,47.43 98.907,45.624 97.311,45.117 C 97.288,45.109 97.284,44.928 97.323,44.907 C 97.89,44.61 98.669,44.716 98.99,44.144 C 99.009,44.111 98.844,43.916 98.782,43.93 C 97.581,44.193 96.457,44.228 95.258,44.466 C 93.722,44.769 93.318,46.318 92.35,47.362 C 91.832,47.92 91.894,48.828 91.473,49.425 C 89.549,52.153 89.335,55.013 88.351,57.972 C 88.316,58.076 88.554,58.285 88.804,58.23 C 88.385,59.103 87.824,59.899 87.418,60.78 C 88.519,61.078 89.687,60.917 90.777,61.284 C 89.074,62.084 87.157,61.534 85.423,62.14 C 85.599,62.319 85.863,62.404 86.055,62.374 C 86.506,62.304 86.945,62.174 87.356,62.264 C 88.899,62.599 90.28,61.849 91.781,62.133 C 92.434,62.257 93.129,62.923 93.85,62.557 C 93.317,61.874 92.53,61.455 91.684,61.314 C 91.818,60.895 92.327,60.78 92.451,60.418 C 92.501,60.273 92.223,60.252 92.126,60.316 C 91.516,60.717 90.883,60.942 90.284,60.487 C 90.49,60.259 90.689,59.98 90.966,59.897 C 91.932,59.605 93.402,60.029 93.83,59.121 C 94.942,56.764 94.635,54.016 94.917,51.428 C 94.979,50.866 95.021,50.293 95.196,49.747 C 95.278,50.393 94.946,51.581 95.354,51.507 C 97,51.209 96.051,48.776 96.448,47.322 C 96.722,47.471 96.467,47.978 96.656,47.905 C 97.193,47.696 96.996,46.755 97.646,46.454 C 96.648,49.917 96.712,53.555 95.855,57.042 C 95.868,55.912 96.039,54.776 95.711,53.661 C 94.896,56.668 94.733,59.757 94.518,62.842 C 94.512,62.925 94.662,63.084 94.734,63.074 C 95.001,63.038 95.248,62.849 95.39,62.602 C 96.065,61.423 96.504,60.188 96.745,58.878 C 97.119,56.848 97.582,54.869 97.51,52.807 C 97.468,51.602 97.605,50.356 98.072,49.196 C 98.248,50.101 97.906,51.06 98.368,51.933 C 98.665,51.14 98.617,50.309 98.743,49.482 C 98.793,49.153 98.952,49.607 99.106,49.498 C 99.302,49.358 99.388,49.077 99.417,48.962 z "
   style="fill:#ffffff"
   id="path46" />
			<path
   d="M 100.928,48.777 C 100.803,47.878 100.795,46.97 100.119,46.279 C 100.043,47.451 100.251,48.583 100.684,49.661 C 100.715,49.739 100.879,49.651 100.901,49.55 C 100.957,49.292 100.965,49.038 100.928,48.777 z "
   style="fill:#ffffff"
   id="path48" />
			<path
   d="M 113.677,49.458 C 113.83,49.911 113.721,50.814 114.23,50.694 C 114.959,50.523 114.97,49.462 115.611,49.015 C 114.714,48.133 114.084,47.062 113.087,46.23 C 112.9,46.074 112.617,46.311 112.64,46.434 C 112.838,47.511 113.332,48.437 113.677,49.458 z "
   style="fill:#ffffff"
   id="path50" />
			<path
   d="M 115.89,52.015 C 116.303,53.795 116.015,55.444 115.585,57.168 C 115.18,58.798 114.324,60.219 113.182,61.485 C 110.198,64.794 107.54,67.868 104.636,71.275 C 103.182,72.98 101.82,74.531 100.668,76.439 C 100.555,76.626 100.825,76.685 100.895,76.826 C 105.77,71.767 110.099,66.633 114.651,60.906 C 115.906,59.328 116.623,57.61 117.009,55.677 C 117.394,53.747 116.682,51.906 116.225,50.076 C 115.145,50.254 115.74,51.371 115.89,52.015 z "
   style="fill:#ffffff"
   id="path52" />
			<path
   d="M 114.785,53.166 C 115.089,53.685 115.016,54.312 115.282,54.849 C 115.484,54.118 115.42,53.765 115.425,53.298 C 115.431,52.681 115.359,52.141 115.117,51.512 C 114.896,50.943 114.364,52.447 114.785,53.166 z "
   style="fill:#ffffff"
   id="path54" />
			<path
   d="M 118.488,52.231 C 118.193,51.4 117.947,50.443 117.132,49.985 C 117.019,49.921 116.875,50.015 116.898,50.095 C 117.431,52.019 117.815,53.475 117.621,55.466 C 117.545,56.241 117.401,57.057 117.076,57.821 C 116.93,58.166 116.904,58.501 117.03,58.773 C 117.4,59.568 117.193,60.917 117.941,60.981 C 118.422,61.023 119.06,60.072 119.185,59.383 C 119.415,58.106 119.188,56.821 119.042,55.494 C 118.917,54.371 118.866,53.296 118.488,52.231 z "
   style="fill:#ffffff"
   id="path56" />
			<path
   d="M 135.941,40.812 C 136.35,40.362 136.709,40.245 137.214,40.505 C 137.264,40.53 137.403,40.356 137.321,40.305 C 136.93,40.064 136.636,39.316 136.42,39.562 C 131.185,45.522 126.709,51.504 121.505,57.759 C 120.651,58.785 119.838,59.652 119.024,60.726 C 117.86,62.264 116.837,63.605 115.63,65.059 C 111.689,69.804 108.161,73.931 104.408,78.951 C 104.245,79.169 104.762,79.411 104.951,79.693 C 111.304,71.736 117.187,63.939 123.873,55.735 C 124.786,54.615 125.54,53.537 126.458,52.419 C 129.752,48.41 132.482,44.627 135.941,40.812 z "
   style="fill:#ffffff"
   id="path58" />
			<path
   d="M 92.321,73.402 C 93.152,74.176 93.915,74.941 94.869,75.52 C 96.056,76.24 97.106,77.025 98.295,77.723 C 98.745,77.987 99.191,78.26 99.63,78.535 C 100.234,78.912 100.985,79.662 100.511,80.45 C 101.599,81.169 102.486,82.113 103.41,83.017 C 103.485,82.746 104.116,83.015 103.879,82.691 C 103.103,81.624 102.309,80.695 101.46,79.69 C 101.382,79.599 101.489,79.469 101.584,79.467 C 102.723,79.448 103.05,81.085 104.127,81.434 C 104.377,81.516 104.812,81.299 104.827,81.113 C 104.905,80.108 103.649,79.315 102.758,78.74 C 102.447,78.539 102.056,78.943 101.758,78.766 C 100.561,78.055 99.63,77.109 98.437,76.363 C 97.104,75.53 96.316,74.406 95.478,73.107 C 94.553,71.673 93.687,70.454 92.896,68.994 C 92.768,68.758 92.971,68.283 92.83,68.184 C 91.142,67.003 88.883,66.743 87.072,67.691 C 87.016,67.72 86.975,67.98 87.172,68.034 C 88.086,68.282 89.012,68.161 89.879,68.529 C 89.484,68.942 88.481,68.757 88.59,69.074 C 89.206,70.866 90.873,72.052 92.321,73.402 z "
   style="fill:#ffffff"
   id="path60" />
			<path
   d="M 91.322,64.292 C 91.984,64.461 92.593,64.654 93.264,64.486 C 91.897,63.747 90.36,63.715 88.858,63.294 C 87.738,62.981 86.576,62.895 85.398,62.811 C 85.31,62.805 85.197,62.946 85.277,63.028 C 85.633,63.394 86.159,63.052 86.535,63.253 C 86.586,63.28 86.586,63.533 86.52,63.576 C 85.762,64.074 84.988,64.447 84.558,65.239 C 84.499,65.348 84.523,65.629 84.625,65.571 C 85.643,64.999 86.405,63.976 87.55,64.134 C 87.804,64.17 88.14,64.478 88.458,64.7 C 88.565,64.775 88.673,64.689 88.701,64.587 C 88.771,64.332 88.343,64.034 88.48,64.03 C 89.407,64 90.354,64.044 91.322,64.292 z "
   style="fill:#ffffff"
   id="path62" />
			<path
   d="M 92.264,63.632 C 92.631,63.736 93.029,63.812 93.417,63.702 C 93.52,63.673 93.614,63.577 93.547,63.465 C 93.451,63.304 93.32,63.114 93.177,63.094 C 91.913,62.919 90.752,62.388 89.436,62.554 C 89.334,62.567 89.231,62.718 89.311,62.765 C 90.223,63.301 91.248,63.344 92.264,63.632 z "
   style="fill:#ffffff"
   id="path64" />
			<path
   d="M 88.972,72.01 C 89.236,72.334 89.546,72.605 89.884,72.767 C 90.007,72.826 90.044,72.521 89.979,72.453 C 89.097,71.519 88.571,70.429 87.495,69.627 C 87.39,69.549 87.249,69.663 87.269,69.728 C 87.554,70.683 88.354,71.252 88.972,72.01 z "
   style="fill:#ffffff"
   id="path66" />
			<path
   d="M 98.317,80.111 C 98.588,80.348 99.005,80.571 99.348,80.279 C 98.67,79.837 98.181,79.225 97.563,78.685 C 97.483,78.615 97.186,78.638 97.239,78.755 C 97.476,79.272 97.861,79.712 98.317,80.111 z "
   style="fill:#ffffff"
   id="path68" />
			<path
   d="M 99.136,83.382 C 99.2,83.65 99.386,83.983 99.612,83.997 C 99.845,84.011 100.008,83.622 100.098,83.401 C 100.216,83.111 99.676,82.488 100.054,82.495 C 101.088,82.512 101.715,83.707 102.619,84.231 C 102.893,84.39 103.096,83.895 102.97,83.666 C 102.339,82.53 100.973,82.196 100.239,81.32 C 99.965,80.992 99.096,81.734 98.515,81.186 C 98.495,81.167 98.365,81.288 98.404,81.414 C 98.505,81.738 98.968,81.855 98.96,82.083 C 98.941,82.551 99.021,82.908 99.136,83.382 z "
   style="fill:#ffffff"
   id="path70" />
			<path
   d="M 101.738,85.177 C 102.546,84.937 101.203,84.302 100.771,83.977 C 100.667,83.899 100.539,83.996 100.538,84.086 C 100.529,84.786 101.329,85.298 101.738,85.177 z "
   style="fill:#ffffff"
   id="path72" />
			<path
   d="M 99.768,87.048 C 99.996,86.688 100.429,86.431 100.479,86.072 C 100.479,86.072 99.931,85.572 99.569,85.221 C 98.854,86.113 98.149,87.051 97.413,88.058 C 97.263,88.263 98.075,89.418 98.075,89.418 C 98.917,88.473 99.225,87.906 99.768,87.048 z "
   style="fill:#ffffff"
   id="path74" />
			<path
   d="M 105.374,82.309 C 105.572,82.621 105.947,82.637 105.987,82.32 C 106.029,81.988 105.843,81.643 105.535,81.412 C 105.431,81.334 105.313,81.424 105.297,81.523 C 105.252,81.784 105.203,82.039 105.374,82.309 z "
   style="fill:#ffffff"
   id="path76" />
			<path
   d="M 107.658,84.549 C 108.488,84.878 109.395,84.946 110.215,85.325 C 112.171,82.296 113.132,78.887 114.267,75.449 C 114.6,74.442 114.739,73.413 114.898,72.363 C 115.001,71.68 115.388,71 115.014,70.294 C 112.217,73.9 109.008,77.137 106.774,81.209 C 106.432,81.832 107.216,82.446 107.017,83.131 C 106.908,83.504 106.371,83.706 106.35,83.902 C 106.285,84.506 107.175,84.359 107.658,84.549 z "
   style="fill:#ffffff"
   id="path78" />
			<path
   d="M 117.105,73.735 C 117.551,73.797 118.117,74.111 118.313,73.949 C 118.818,73.533 118.243,72.416 117.779,71.851 C 117.716,71.775 117.413,71.706 117.306,71.935 C 117.272,72.008 117.29,72.103 117.287,72.189 C 116.436,72.003 115.713,72.361 115.076,72.917 C 115.008,72.977 115.001,73.194 115.064,73.259 C 115.623,73.825 116.399,73.637 117.105,73.735 z "
   style="fill:#ffffff"
   id="path80" />
			<path
   d="M 117.602,70.895 C 117.32,70.444 116.854,70.416 116.733,70.884 C 116.638,71.256 117.041,71.711 117.421,71.513 C 117.613,71.414 117.798,71.209 117.602,70.895 z "
   style="fill:#ffffff"
   id="path82" />
			<path
   d="M 115.34,75.469 C 115.661,75.308 115.892,75 116.161,74.749 C 115.869,74.48 115.286,74.228 115.05,74.611 C 114.8,75.015 114.481,75.608 114.66,75.938 C 114.854,76.295 115.045,75.617 115.34,75.469 z "
   style="fill:#ffffff"
   id="path84" />
			<path
   d="M 117.565,75.447 C 117.692,75.416 117.76,75.492 117.82,75.586 C 118.067,75.418 118.004,75.12 117.93,74.961 C 117.801,74.68 117.46,74.713 117.194,74.915 C 117.34,75.077 117.518,75.216 117.565,75.447 z "
   style="fill:#ffffff"
   id="path86" />
			<path
   d="M 119.844,77.471 C 120.416,81.284 120.291,85.132 122.186,88.462 C 122.499,86.498 122.446,84.508 122.166,82.504 C 122.129,82.238 121.347,82.215 121.348,82.068 C 121.364,80.925 122.054,79.871 121.797,78.567 C 121.569,77.411 121.408,76.338 121.262,75.176 C 121.074,73.679 121.247,72.235 120.909,70.773 C 120.85,70.516 120.823,70.189 120.609,69.967 C 120.18,71.437 121.027,72.953 120.508,74.352 C 120.329,74.834 120.748,75.464 120.15,75.795 C 120.004,72.059 120.069,68.315 119.493,64.604 C 119.343,64.84 119.021,65.077 119.034,65.228 C 119.378,69.364 119.214,73.276 119.844,77.471 z "
   style="fill:#ffffff"
   id="path88" />
			<path
   d="M 118.46,81.495 C 118.398,81.87 118.097,82.117 117.998,82.51 C 117.898,82.905 117.456,83.085 117.263,83.422 C 116.888,84.071 116.548,84.702 116.074,85.27 C 115.081,86.458 113.999,87.336 113.053,88.604 C 113.029,88.637 113.039,88.266 113.067,88.306 C 113.278,88.613 112.485,89.04 112.807,89.031 C 114.399,88.985 115.595,87.478 117.172,86.992 C 115.517,88.582 113.087,89.493 112.077,91.55 C 111.939,91.831 111.718,92.228 111.844,92.633 C 111.969,93.035 112.549,92.989 112.947,92.821 C 112.502,93.384 111.615,93.516 111.407,94.214 C 110.952,95.747 110.486,97.237 110.534,98.842 C 111.973,97.527 113.67,96.561 115.198,95.364 C 114.384,97.088 112.519,97.723 111.367,99.178 C 110.892,99.778 110.248,100.643 110.575,101.44 C 112.874,99.948 115.632,98.299 118.438,99.371 C 119.555,96.955 119.724,94.216 119.195,91.642 C 119.126,91.303 118.128,92.112 118.081,91.796 C 117.94,90.84 119.618,91.236 119.423,90.081 C 119.405,89.977 119.294,89.88 119.193,89.954 C 117.319,91.326 116.219,93.151 113.967,93.374 C 115.635,91.56 117.887,90.482 119.459,88.53 C 119.786,88.124 119.747,87.491 119.267,86.912 C 117.661,88.575 116.237,90.668 113.783,91.16 C 116.506,88.992 118.893,86.03 119.187,84.586 C 119.415,83.458 119.431,82.492 118.46,81.495 z "
   style="fill:#ffffff"
   id="path90" />
			<path
   d="M 117.191,82.046 C 117.621,81.377 118.101,80.74 118.235,80.003 C 118.333,79.466 118.216,78.827 117.857,78.314 C 116.831,79.581 116.286,81.115 115.505,82.519 C 115.751,80.589 117.036,79.111 117.599,77.257 C 117.653,77.077 117.297,77.199 117.252,76.994 C 115.84,78.416 115.54,80.457 114.481,82.094 C 114.899,80.22 115.573,78.471 116.33,76.693 C 116.584,76.095 115.808,76.034 115.496,76.211 C 114.975,76.507 114.672,77.088 114.544,77.688 C 113.893,80.73 113.234,83.571 112.93,86.588 C 112.922,86.669 113.098,86.834 113.133,86.817 C 115.115,85.89 116.038,83.84 117.191,82.046 z "
   style="fill:#ffffff"
   id="path92" />
			<path
   d="M 103.057,93.026 C 102.363,92.635 101.669,91.878 100.934,92.239 C 99.451,92.969 98.311,94.281 97.646,95.728 C 96.893,97.365 96.74,99.253 96.688,101.097 C 97.589,101.325 99.01,101.388 99.072,102.236 C 99.111,102.758 98.041,102.071 97.547,102.555 C 98.502,103.236 99.662,104.205 99.506,105.477 C 99.494,105.574 99.329,105.668 99.29,105.586 C 98.806,104.566 97.898,104.052 96.967,103.63 C 96.659,103.491 96.151,103.393 95.941,103.928 C 97.366,104.365 98.699,105.157 98.962,106.759 C 98.02,105.913 96.928,104.785 95.516,105.372 C 95.142,105.527 95.606,105.679 95.637,105.689 C 97.267,106.263 99.292,107.156 99.665,108.99 C 99.321,108.893 99.352,108.42 99.032,108.346 C 98.582,108.241 98.169,108.381 97.723,108.499 C 96.778,108.748 95.84,108.186 94.878,108.437 C 95.794,109.201 96.953,109.616 97.795,110.485 C 96.803,110.511 95.765,110.139 94.803,110.643 C 95.694,111.121 96.72,111.16 97.655,111.586 C 98.179,111.825 99.076,112.189 99.3,111.767 C 99.605,111.19 99.3,110.242 98.758,109.59 C 98.695,109.513 98.744,109.349 98.748,109.219 C 99.269,109.275 99.622,109.637 100.023,109.912 C 101.077,107.574 100.679,104.934 101.572,102.562 C 101.862,103.545 101.785,104.593 102.119,105.567 C 103.056,102.74 103.645,99.921 104.292,96.928 C 104.488,96.02 104.951,95.055 104.598,94.281 C 104.359,93.754 103.659,93.365 103.057,93.026 z "
   style="fill:#ffffff"
   id="path94" />
			<path
   d="M 94.668,96.189 C 94.524,96.096 94.117,95.932 94.037,96.022 C 93.641,96.469 93.889,96.983 94.299,97.354 C 94.633,97.655 95.364,98.14 95.51,97.274 C 95.626,96.584 95.47,96.712 94.668,96.189 z "
   style="fill:#ffffff"
   id="path96" />
			<path
   d="M 94.307,98.748 C 94.981,98.8 95.217,98.255 95.298,97.885 C 94.313,98.682 93.689,97.183 93.354,97.643 C 93.016,98.106 93.928,98.719 94.307,98.748 z "
   style="fill:#ffffff"
   id="path98" />
			<path
   d="M 87.313,109.611 C 88.792,106.008 90.758,102.035 92.466,98.534 C 92.495,98.474 92.267,98.291 92.142,98.157 C 88.628,102.852 86.004,108.263 82.505,113.336 C 82.167,113.826 81.67,114.509 82.088,114.9 C 82.977,115.731 83.146,115.805 84.001,116.657 C 85.099,114.216 86.307,112.063 87.313,109.611 z "
   style="fill:#ffffff"
   id="path100" />
			<path
   d="M 96.057,111.75 C 95.544,111.56 95.042,111.229 94.541,111.462 C 94.092,111.67 94.043,112.197 94.084,112.696 C 93.816,112.646 93.534,112.676 93.456,112.942 C 93.377,113.207 93.783,113.44 93.633,113.706 C 93.19,114.495 92.733,115.358 92.925,116.127 C 93.125,116.926 94.269,116.92 95.001,117.474 C 95.334,117.726 95.09,117.082 95.365,117.026 C 94.968,116.59 94.935,116.023 94.899,115.452 C 95.226,115.709 95.826,116.127 96.028,115.608 C 96.039,115.581 95.906,115.398 95.938,115.4 C 96.51,115.435 96.966,116.258 97.613,115.804 C 96.999,115.254 96.234,114.93 95.582,114.436 C 96.435,114.11 97.301,114.804 98.166,114.765 C 98.262,114.761 98.364,114.646 98.293,114.537 C 97.862,113.881 96.923,114.372 96.516,113.688 C 96.641,113.728 96.767,113.648 96.752,113.572 C 96.595,112.76 95.686,113.102 95.12,112.731 C 95.725,112.656 96.673,113.087 96.85,112.505 C 96.945,112.198 96.436,111.89 96.057,111.75 z "
   style="fill:#ffffff"
   id="path102" />
			<path
   d="M 112.984,104.482 C 112.134,104.847 111.072,105.131 110.604,106.016 C 110.257,106.671 109.945,107.545 110.107,108.132 C 110.239,108.612 111.238,107.937 111.746,107.646 C 113.248,106.785 114.444,105.641 115.664,104.473 C 114.971,103.813 113.733,104.162 112.984,104.482 z "
   style="fill:#ffffff"
   id="path104" />
			<path
   d="M 115.369,106.051 C 114.492,106.534 113.497,106.701 112.834,107.493 C 113.109,107.666 113.401,107.786 113.733,107.784 C 112.561,108.657 110.828,108.305 109.908,109.317 C 109.48,109.788 109.014,110.918 109.661,111.435 C 110.175,111.846 111.036,111.775 111.779,111.743 C 110.965,112.612 109.608,112.62 108.859,113.592 C 110.309,114.536 111.744,112.696 113.203,112.375 C 113.657,112.276 114.176,112.35 114.602,112.184 C 114.821,112.099 115.017,111.831 115.207,111.648 C 115.442,111.422 115.844,111.849 116.187,111.743 C 116.454,111.661 116.55,111.381 116.454,111.134 C 116.392,110.973 116.242,110.788 116.093,110.759 C 114.121,110.382 112.203,110.925 110.258,110.653 C 111.648,109.605 113.579,109.676 114.823,108.419 C 114.91,108.331 114.998,107.969 115.084,107.883 C 115.957,107.011 116.978,106.209 117.427,105.041 C 117.447,104.991 117.254,104.809 117.234,104.822 C 116.574,105.238 116.052,105.676 115.369,106.051 z "
   style="fill:#ffffff"
   id="path106" />
			<path
   d="M 107.913,110.701 C 108.034,109.188 107.679,107.711 108.153,106.151 C 108.318,105.609 108.171,105.052 108.076,104.46 C 107.974,103.829 108.002,103.189 108.123,102.517 C 108.396,100.992 107.889,99.498 107.834,97.973 C 106.041,101.279 105.453,105.006 103.667,108.391 C 103.178,109.318 103.061,110.422 102.664,111.42 C 102.311,112.306 101.996,113.162 101.256,113.916 C 100.893,114.286 100.973,115.004 100.696,115.498 C 99.735,117.213 98.872,118.966 98.807,120.912 C 98.806,120.964 98.784,121.249 98.986,121.308 C 97.807,124.958 95.958,128.292 95.162,132.118 C 95.129,132.275 96.035,131.95 96.457,131.831 C 99.63,130.94 102.578,130.197 105.729,129.201 C 106.029,125.967 104.674,122.365 106.697,119.273 C 107.597,117.898 106.767,116.048 107.415,114.459 C 107.546,114.138 107.821,113.922 108.077,113.697 C 107.104,112.929 107.833,111.687 107.913,110.701 z "
   style="fill:#ffffff"
   id="path108" />
			<path
   d="M 116.261,110.136 C 117.039,110.278 117.07,108.898 116.833,108.28 C 115.753,109.199 114.171,109.081 113.162,110.128 C 113.025,110.27 113.328,110.456 113.371,110.448 C 114.339,110.267 115.239,109.949 116.261,110.136 z "
   style="fill:#ffffff"
   id="path110" />
			<path
   d="M 117.497,111.809 C 117.596,111.185 117.796,110.582 117.424,109.988 C 117.061,111.359 116.628,112.691 116.532,114.11 C 116.493,114.673 115.411,114.002 115.219,114.726 C 115.202,114.79 115.42,114.924 115.4,114.971 C 115.156,115.552 114.392,115.199 113.986,115.585 C 115.009,116.135 116.009,115.826 116.68,114.987 C 117.183,114.358 116.903,113.597 117.009,112.839 C 117.036,112.648 117.337,112.434 117.462,112.19 C 117.516,112.083 117.477,111.939 117.497,111.809 z "
   style="fill:#ffffff"
   id="path112" />
			<path
   d="M 113.124,113.952 C 113.486,113.893 114.092,114.025 114.096,113.643 C 114.101,113.148 113.389,113.505 112.989,113.286 C 112.859,113.215 112.528,113.408 112.243,113.462 C 112.042,113.5 112.06,113.721 112.123,113.815 C 112.366,114.172 112.792,114.005 113.124,113.952 z "
   style="fill:#ffffff"
   id="path114" />
			<path
   d="M 113.226,115.047 C 113.7,115.047 114.231,115.128 114.502,114.674 C 114.52,114.644 114.358,114.448 114.293,114.461 C 112.572,114.81 111,114.061 109.352,114.387 C 110.597,114.893 111.884,115.044 113.226,115.047 z "
   style="fill:#ffffff"
   id="path116" />
			<path
   d="M 119.818,113.939 C 120.194,114.918 120.454,115.937 120.955,116.861 C 121.311,115.527 120.614,114.382 120.379,113.088 C 120.291,112.6 119.873,112.267 119.427,112.013 C 119.314,111.948 119.195,112.034 119.188,112.127 C 119.141,112.795 119.59,113.344 119.818,113.939 z "
   style="fill:#ffffff"
   id="path118" />
			<path
   d="M 123.09,111.607 C 123.166,111.686 123.243,111.814 123.32,111.732 C 123.882,111.139 124.338,110.525 124.972,110.006 C 127.126,108.242 131.569,108.113 132.094,108.057 C 132.143,108.052 132.331,106.991 132.074,106.977 C 128.75,106.8 124.362,107.742 122.412,110.856 C 122.211,111.179 122.738,111.241 123.09,111.607 z "
   style="fill:#ffffff"
   id="path120" />
			<path
   d="M 113.582,116.04 C 111.87,115.955 110.306,114.943 108.555,115.067 C 108.536,115.068 108.497,115.454 108.555,115.478 C 110.394,116.254 112.349,116.308 114.332,116.679 C 114.352,116.683 114.345,116.978 114.32,116.981 C 112.178,117.314 110.329,115.905 108.257,116.343 C 108.214,116.352 108.29,116.606 108.104,116.683 C 108.82,117.257 109.745,117.247 110.556,117.323 C 112.051,117.463 113.865,118.229 114.958,117.049 C 115.553,116.407 114.345,116.078 113.582,116.04 z "
   style="fill:#ffffff"
   id="path122" />
			<path
   d="M 116.115,116.672 C 116.096,116.417 116.131,116.106 115.925,115.882 C 115.431,116.397 115.944,117.177 115.455,117.666 C 114.999,118.122 114.361,117.298 114.077,117.914 C 114.006,118.067 114.317,118.018 114.447,118.139 C 114.652,118.33 115.032,117.814 115.169,118.206 C 115.334,118.68 114.605,118.628 114.616,118.817 C 114.659,119.606 114.131,120.811 115.103,120.795 C 115.422,120.79 115.167,120.144 115.176,119.753 C 115.197,118.648 116.197,117.8 116.115,116.672 z "
   style="fill:#ffffff"
   id="path124" />
			<path
   d="M 111.893,119.911 C 112.229,119.975 112.599,120.037 112.807,119.701 C 111.525,119.07 110.203,118.273 108.834,118.276 C 108.309,118.277 107.826,119.377 108.119,120.06 C 108.664,119.605 109.265,120.443 109.81,119.988 C 109.629,119.899 109.698,119.736 109.694,119.594 C 110.413,119.788 111.146,119.77 111.893,119.911 z "
   style="fill:#ffffff"
   id="path126" />
			<path
   d="M 112.838,118.429 C 113.131,118.571 113.362,118.63 113.629,118.429 C 113.337,118.161 112.771,117.907 112.513,118.291 C 112.461,118.368 112.721,118.373 112.838,118.429 z "
   style="fill:#ffffff"
   id="path128" />
			<path
   d="M 113.324,119.868 C 113.444,119.848 113.555,119.82 113.566,119.724 C 113.633,119.127 112.787,118.529 112.547,119.084 C 112.46,119.286 112.733,119.964 113.324,119.868 z "
   style="fill:#ffffff"
   id="path130" />
			<path
   d="M 110.8,121.008 C 109.649,120.762 108.415,120.219 107.354,120.876 C 107.317,120.899 107.096,121.211 107.197,121.283 C 107.885,121.779 107.741,122.556 107.553,123.136 C 107.508,123.274 107.579,122.832 107.378,122.904 C 107.141,122.988 107.226,123.23 107.243,123.404 C 107.253,123.504 107.354,123.575 107.481,123.544 C 107.546,123.887 107.107,123.999 107.136,124.168 C 107.252,124.848 106.996,125.597 107.546,126.118 C 107.62,126.188 107.853,126.222 107.901,126.023 C 108.002,125.61 107.991,125.184 108.115,124.833 C 108.312,124.277 108.407,123.562 108.24,122.934 C 108.169,122.668 108.079,122.371 108.102,122.141 C 108.118,121.987 108.209,121.61 108.443,121.675 C 110.386,122.209 112.256,122.476 114.103,123.166 C 114.137,123.179 114.173,123.455 113.974,123.494 C 112.326,123.82 110.824,123.235 109.181,123.521 C 109.161,123.524 109.099,123.816 109.292,123.847 C 110.31,124.01 111.278,124.224 112.255,124.488 C 110.969,124.892 109.584,124.861 108.328,125.393 C 109.307,126.372 110.817,125.985 112.068,126.17 C 111.558,126.689 110.825,126.486 110.207,126.683 C 109.527,126.901 108.541,126.525 108.131,127.033 C 107.766,127.486 107.851,128.714 108.26,128.831 C 109.947,129.316 111.826,128.952 113.555,128.298 C 113.331,127.9 112.847,127.979 112.534,127.744 C 113.165,127.223 113.4,126.364 113.369,125.566 C 113.365,125.47 113.253,125.375 113.138,125.437 C 112.961,125.534 112.803,125.681 112.608,125.649 C 112.415,125.617 112.446,125.355 112.512,125.309 C 112.829,125.089 113.161,124.952 113.406,124.647 C 113.486,124.548 113.387,124.459 113.298,124.393 C 113.596,124.25 113.911,124.151 114.219,124.035 C 114.227,125.395 113.752,126.701 113.728,128.046 C 113.722,128.332 113.569,128.699 113.503,129.072 C 113.485,129.171 113.31,129.23 113.28,129.333 C 113.209,129.582 113.241,129.846 113.233,130.105 C 113.108,130.065 112.993,130.136 112.99,130.227 C 112.987,130.318 113.097,130.395 113.224,130.365 C 113.223,131.083 113.293,132.004 112.608,132.373 C 112.498,132.432 112.846,132.102 112.521,132.018 C 111.587,131.777 110.44,132.094 109.816,131.288 C 110.774,130.857 111.855,130.983 112.826,130.612 C 112.766,130.519 112.698,130.442 112.571,130.473 C 112.574,130.387 112.55,130.262 112.593,130.235 C 112.689,130.175 112.843,130.246 112.966,130.215 C 113.07,130.189 113.152,130.095 113.102,129.974 C 113.06,129.872 112.972,129.776 112.86,129.845 C 112.768,129.902 112.704,130.018 112.596,129.943 C 112.442,129.836 112.344,129.603 112.21,129.593 C 110.904,129.499 109.477,129.367 108.394,130.076 C 108.225,130.186 108.411,131.001 108.804,131.347 C 109.117,131.622 109.72,131.383 109.923,131.941 C 109.365,132.12 108.997,132.553 108.59,132.934 C 109.392,133.402 110.703,132.497 111.689,132.951 C 111.704,132.957 111.737,133.149 111.829,133.155 C 112.141,133.176 112.513,132.818 112.692,132.999 C 112.935,133.244 113.079,133.877 112.675,134.041 C 112.528,134.101 112.22,133.885 111.938,133.815 C 111.605,133.732 112.025,133.052 111.593,133.228 C 111.368,133.319 111,133.111 110.943,133.41 C 110.907,133.593 111.433,133.649 111.253,133.722 C 110.518,134.021 109.408,133.63 108.805,134.241 C 109.645,134.419 109.034,135.595 108.9,136.328 C 108.869,136.498 109.124,136.491 109.24,136.443 C 110.486,135.929 111.592,135.177 112.817,134.638 C 112.892,135.172 112.771,135.907 112.546,136.053 C 111.359,136.819 109.714,136.785 108.764,137.942 C 108.343,138.454 108.764,139.349 109.296,139.442 C 110.012,139.566 110.712,138.682 111.63,138.899 C 111.732,138.923 111.818,139.033 111.743,139.14 C 111.636,139.294 111.503,139.453 111.344,139.495 C 110.359,139.754 109.186,140.157 108.828,141.042 C 108.499,141.856 108.889,143.232 109.923,143.25 C 110.221,143.255 110.797,142.847 110.904,142.473 C 111.084,141.848 111.215,141.185 111.722,140.728 C 112.391,140.124 113.412,140.259 114.075,139.616 C 113.445,139.062 112.376,139.366 111.905,138.503 C 112.706,138.411 113.208,139.208 113.958,139.203 C 114.051,139.203 114.163,139.062 114.08,138.986 C 113.687,138.627 113.575,138.128 113.229,137.769 C 112.959,138.41 112.212,138.087 111.659,138.083 C 111.57,138.083 111.471,137.951 111.551,137.851 C 111.891,137.428 112.612,137.52 113.099,137.765 C 113.194,136.513 113.253,135.253 113.285,134.006 C 113.292,133.739 113.175,133.371 113.186,133.093 C 113.21,132.514 113.79,132.019 113.784,131.427 C 113.782,131.132 113.4,130.846 113.511,130.517 C 113.574,130.332 113.767,130.147 113.835,129.98 C 114.399,128.587 114.36,127.108 114.75,125.6 C 115.016,124.571 114.655,123.487 115.215,122.534 C 115.367,122.275 115.367,121.954 115.594,121.748 C 115.401,121.567 115.42,121.267 115.227,121.086 C 114.907,121.664 114.955,122.419 114.37,122.853 C 114.286,122.916 114.127,122.866 113.997,122.862 C 114.037,122.737 113.965,122.664 113.876,122.598 C 114.235,122.377 114.635,122.274 114.811,121.851 C 114.095,121.589 113.288,121.873 112.64,121.58 C 112.04,121.304 111.419,121.14 110.8,121.008 z "
   style="fill:#ffffff"
   id="path132" />
			<path
   d="M 123.198,119.666 C 122.872,118.87 122.71,118.025 122.24,117.296 C 122.088,118.718 122.081,120.15 122.019,121.574 C 122.007,121.853 122.288,122.346 122.157,122.393 C 121.208,122.742 121.304,121.328 121.149,120.619 C 120.944,119.684 121.586,118.702 121.054,117.774 C 120.313,119.499 119.645,121.574 120.371,123.263 C 120.887,124.464 123.045,124.194 123.732,123.115 C 124.386,122.089 123.659,120.792 123.198,119.666 z "
   style="fill:#ffffff"
   id="path134" />
			<path
   d="M 118.65,122.757 C 118.661,121.805 118.937,120.849 118.644,119.899 C 118.174,121.668 117.194,123.429 117.42,125.312 C 119.025,125.515 118.639,123.785 118.65,122.757 z "
   style="fill:#ffffff"
   id="path136" />
			<path
   d="M 119.65,128.349 C 119.438,128.375 119.317,128.535 119.297,128.63 C 118.916,130.529 118.712,132.27 118.253,134.192 C 117.972,135.373 118.588,136.475 118.73,137.689 C 118.748,137.84 119.023,138 119.182,137.936 C 120.446,137.427 121.72,136.978 122.89,136.279 C 122.214,133.61 121.685,130.978 120.979,128.271 C 120.859,127.815 120.027,128.302 119.65,128.349 z "
   style="fill:#ffffff"
   id="path138" />
			<path
   d="M 116.89,129.592 C 116.628,129.689 116.303,129.843 116.27,130.083 C 116.128,131.123 116.406,132.153 116.469,133.205 C 116.524,134.115 116.193,135.12 116.533,135.871 C 117.235,137.418 117.222,138.981 117.362,140.626 C 117.385,140.894 118.109,141.054 118.118,140.662 C 118.15,139.327 118.228,137.904 117.729,136.658 C 117.438,135.93 117.074,135.312 117.008,134.516 C 116.861,132.748 117.855,131.05 117.458,129.363 C 117.423,129.212 117.109,129.511 116.89,129.592 z "
   style="fill:#ffffff"
   id="path140" />
			<path
   d="M 82.561,138.143 C 83.634,137.247 85.499,137.551 85.87,136.339 C 86.203,135.253 86.41,133.246 86.504,131.962 C 86.516,131.79 85.07,132.292 84.578,132.341 C 84.408,132.358 84.65,134.161 84.314,134.292 C 81.854,135.251 79.394,136.06 76.902,136.656 C 77.752,138.406 78.448,139.89 79.357,141.653 C 79.45,141.833 79.754,141.604 79.803,141.53 C 80.639,140.271 81.397,139.114 82.561,138.143 z "
   style="fill:#ffffff"
   id="path142" />
			<path
   d="M 97.328,143.189 C 99.052,142.964 100.724,142.841 102.414,142.592 C 102.854,141.114 103.169,139.501 103.579,137.948 C 103.63,137.753 103.834,137.335 103.601,137.37 C 100.76,137.796 97.591,138.369 94.783,138.825 C 94.179,140.363 93.616,141.767 92.867,143.409 C 92.768,143.626 92.679,143.799 92.659,143.947 C 93.997,143.766 95.698,143.401 97.328,143.189 z "
   style="fill:#ffffff"
   id="path144" />
			<path
   d="M 103.916,135.363 C 104.377,133.601 104.71,132.199 105.102,130.501 L 103.965,130.875 C 103.311,132.493 102.735,134.162 102.097,135.681 L 103.916,135.363 z "
   style="fill:#ffffff"
   id="path146" />
			<path
   d="M 105.046,135.025 C 105.126,134.47 105.196,133.84 105.261,133.108 C 105.268,133.025 105.119,132.657 105.099,132.748 C 104.913,133.571 104.72,134.473 104.563,135.234 C 104.563,135.233 105.012,135.267 105.046,135.025 z "
   style="fill:#ffffff"
   id="path148" />
			<path
   d="M 107.51,129.638 C 107.656,129.383 107.897,129.108 107.88,128.89 C 107.833,128.279 108.041,127.2 107.502,127.233 C 106.715,127.281 107.291,128.758 107.191,129.642 C 107.167,129.853 107.438,129.763 107.51,129.638 z "
   style="fill:#ffffff"
   id="path150" />
			<path
   d="M 107.357,130.807 C 107.117,130.981 106.897,131.393 107.222,131.554 C 107.506,131.695 107.966,131.646 108.072,131.341 C 108.172,131.055 108.219,130.527 107.76,130.483 C 107.638,130.471 107.511,130.695 107.357,130.807 z "
   style="fill:#ffffff"
   id="path152" />
			<path
   d="M 107.582,131.998 C 107.453,132.004 107.374,131.877 107.333,131.886 C 107.005,131.951 106.957,132.347 107.077,132.603 C 107.274,133.022 107.822,133.181 108.153,132.98 C 108.551,132.739 108.083,131.972 107.582,131.998 z "
   style="fill:#ffffff"
   id="path154" />
			<path
   d="M 107.783,133.685 C 107.744,133.81 107.809,133.894 107.908,133.943 C 108.025,134.001 108.141,133.921 108.15,133.826 C 108.17,133.613 108.326,133.285 108.051,133.215 C 107.687,133.123 107.079,132.993 107.081,133.528 C 107.081,133.804 107.53,133.606 107.783,133.685 z "
   style="fill:#ffffff"
   id="path156" />
			<path
   d="M 107.623,134.588 C 107.913,134.233 107.398,134.266 107.38,134.061 C 106.917,134.454 106.587,135.151 106.896,135.528 C 107.127,135.81 107.149,136.555 107.669,136.355 C 107.955,136.245 108.203,135.616 107.828,135.428 C 107.661,135.345 107.455,135.148 107.211,135.223 C 107.147,134.881 107.456,134.792 107.623,134.588 z "
   style="fill:#ffffff"
   id="path158" />
			<path
   d="M 108.256,134.869 C 108.241,135.247 108.216,135.617 108.486,135.916 C 108.897,135.477 108.437,134.877 108.864,134.323 C 108.928,134.24 108.577,134.207 108.421,134.251 C 108.063,134.354 108.268,134.552 108.256,134.869 z "
   style="fill:#ffffff"
   id="path160" />
			<path
   d="M 107.79,137.322 C 108.076,136.98 108.504,136.8 108.694,136.426 C 108.713,136.389 108.561,136.264 108.478,136.176 C 107.986,137.055 106.54,136.872 106.36,138.054 C 106.348,138.137 106.471,138.243 106.585,138.178 C 107.027,137.924 107.451,137.728 107.79,137.322 z "
   style="fill:#ffffff"
   id="path162" />
			<path
   d="M 107.276,140.188 C 108.078,140.018 107.731,138.667 107.315,138.13 C 107.14,137.905 106.804,138.278 106.769,138.463 C 106.656,139.066 106.339,140.388 107.276,140.188 z "
   style="fill:#ffffff"
   id="path164" />
			<path
   d="M 107.7,141.087 C 107.619,141.909 107.143,142.731 107.494,143.522 C 107.525,143.592 107.822,143.501 107.946,143.588 C 108.431,143.926 109.046,144.489 109.634,144.138 C 109.168,143.554 108.266,143.244 108.131,142.623 C 107.982,141.939 108.006,141.006 108.676,140.42 C 108.898,140.225 108.44,140.033 108.385,139.8 C 108.194,138.978 108.793,138.181 108.431,137.345 C 108.388,137.243 108.258,137.139 108.209,137.22 C 107.47,138.432 107.828,139.786 107.7,141.087 z "
   style="fill:#ffffff"
   id="path166" />
			<path
   d="M 106.619,143.401 C 107.058,143.216 107.676,142.159 107.317,141.781 C 107.118,141.571 106.546,141.63 106.376,141.969 C 106.161,142.399 105.906,143.703 106.619,143.401 z "
   style="fill:#ffffff"
   id="path168" />
			<path
   d="M 104.915,144.119 C 104.374,141.852 104.995,139.676 104.667,137.474 C 104.21,138.034 104.181,138.744 104.024,139.414 C 103.591,141.263 103.266,142.984 103.01,144.822 C 102.82,146.19 104.422,146.003 105.125,145.601 C 105.768,145.233 105.045,144.666 104.915,144.119 z "
   style="fill:#ffffff"
   id="path170" />
			<path
   d="M 115.165,142.549 C 116.291,141.999 117.459,141.984 118.674,141.849 C 117.503,141.374 116.203,141.465 115.086,140.675 C 114.902,140.545 114.913,140.196 114.706,140.194 C 113.535,140.181 112.481,140.775 111.704,141.641 C 111.471,141.9 111.651,142.313 111.572,142.632 C 111.458,143.098 110.843,143.375 110.771,143.799 C 110.733,144.021 111.213,143.956 111.451,143.903 C 111.639,143.861 111.835,143.681 112.009,143.617 C 113.067,143.229 114.12,143.06 115.165,142.549 z "
   style="fill:#ffffff"
   id="path172" />
			<path
   d="M 116.515,144.355 C 117.987,144.898 119.534,144.923 121.024,144.787 C 121.891,144.707 123.027,145.423 123.574,144.445 C 123.686,144.245 123.249,143.93 123.008,143.88 C 121.265,143.517 119.934,142.276 118.141,142.542 C 117.108,142.695 115.619,142.685 115.372,143.713 C 115.291,144.055 116.059,144.187 116.515,144.355 z "
   style="fill:#ffffff"
   id="path174" />
			<path
   d="M 121.617,142.52 C 122.786,143.029 124.079,143.434 124.484,144.882 C 124.52,145.014 124.91,144.783 124.882,144.674 C 124.445,142.921 123.93,141.251 123.427,139.543 C 122.153,139.982 120.759,140.653 119.672,141.103 C 120.186,141.645 120.959,142.233 121.617,142.52 z "
   style="fill:#ffffff"
   id="path176" />
			<path
   d="M 123.962,146.704 C 123.872,146.791 123.783,146.871 123.694,146.955 C 124.285,147.279 125.203,147.232 125.451,146.724 C 125.585,146.449 125.338,145.916 125.03,145.91 C 124.625,145.902 124.301,146.378 123.962,146.704 z "
   style="fill:#ffffff"
   id="path178" />
			<path
   d="M 89.389,139.517 C 90.003,139.303 90.489,138.857 90.982,138.419 C 91.068,138.342 90.924,138.182 90.898,138.201 C 90.041,138.84 88.998,139.043 88.011,138.791 C 87.698,138.711 87.153,138.565 87.244,138.047 C 87.951,138.366 88.852,138.827 89.55,138.228 C 89.619,138.168 89.651,137.919 89.454,137.88 C 88.563,137.701 87.623,137.141 86.943,137.411 C 86.218,137.699 86.904,138.992 87.605,139.455 C 88.162,139.827 88.809,139.72 89.389,139.517 z "
   style="fill:#ffffff"
   id="path180" />
			<path
   d="M 90.137,137.261 C 90.238,137.228 90.386,137.175 90.363,137.132 C 90.083,136.611 89.47,136.614 88.982,136.594 C 88.909,136.591 88.617,136.736 88.737,136.91 C 89.032,137.336 89.652,137.421 90.137,137.261 z "
   style="fill:#ffffff"
   id="path182" />
			<path
   d="M 88.434,136.621 C 88.574,136.529 88.85,136.615 88.832,136.416 C 88.824,136.319 88.678,136.167 88.615,136.181 C 88.036,136.308 87.307,136.142 87.029,136.741 C 87.515,136.87 88.018,136.894 88.434,136.621 z "
   style="fill:#ffffff"
   id="path184" />
			<path
   d="M 90.434,135.65 C 91.138,135.517 91.582,134.933 92.168,134.579 C 91.519,134.315 91.141,134.916 90.59,135.031 C 89.986,135.157 89.432,134.943 88.938,134.685 C 88.584,134.5 88.206,134.349 87.887,134.058 C 87.797,133.975 87.666,134.071 87.654,134.167 C 87.534,135.075 88.457,135.268 88.952,135.679 C 89.279,135.951 89.915,135.749 90.434,135.65 z "
   style="fill:#ffffff"
   id="path186" />
			<path
   d="M 90.637,133.743 C 91.291,133.614 91.981,133.725 92.476,133.161 C 91.486,132.936 90.587,133.063 89.613,132.602 C 89.534,132.565 89.26,132.822 89.386,133.041 C 89.648,133.497 90.078,133.854 90.637,133.743 z "
   style="fill:#ffffff"
   id="path188" />
			<path
   d="M 90.947,132.333 C 91.518,132.127 92.245,132.4 92.655,131.739 C 91.567,131.368 90.238,131.898 89.361,131.043 C 89.224,130.91 89.896,131.003 89.823,130.606 C 89.786,130.405 89.566,130.423 89.47,130.486 C 89.077,130.745 88.676,130.635 88.277,130.604 C 88.045,130.586 87.911,130.941 88.027,131.175 C 88.187,131.497 88.516,131.483 88.777,131.216 C 88.959,132.095 90.158,132.616 90.947,132.333 z "
   style="fill:#ffffff"
   id="path190" />
			<path
   d="M 90.508,130.202 C 90.57,130.22 90.743,130.029 90.731,130.009 C 90.235,129.232 89.375,129.005 88.709,128.398 C 88.447,128.16 88.245,128.628 88.362,128.852 C 88.805,129.692 89.654,129.95 90.508,130.202 z "
   style="fill:#ffffff"
   id="path192" />
			<path
   d="M 91.776,127.023 C 90.731,127.086 89.974,126.433 89.356,125.652 C 89.025,126.161 88.895,126.818 89.013,127.299 C 89.083,127.584 89.647,127.773 90.065,127.85 C 90.138,127.864 90.237,127.716 90.327,127.633 C 90.238,127.567 90.172,127.409 90.203,127.411 C 91.094,127.47 91.848,128.686 92.769,128.365 C 92.559,128.094 92.291,127.886 92.013,127.69 C 92.788,127.42 93.764,127.646 94.375,126.991 C 93.548,126.662 92.631,126.972 91.776,127.023 z "
   style="fill:#ffffff"
   id="path194" />
			<path
   d="M 93.067,119.551 C 93.765,119.994 94.436,120.282 95.253,120.112 C 95.465,120.068 95.452,119.887 95.272,119.75 C 95.805,119.676 96.28,120.004 96.822,119.918 C 96.926,119.901 97.029,119.771 96.946,119.697 C 95.649,118.545 94.006,118.322 92.605,117.227 C 92.501,117.145 92.126,117.121 92.17,117.288 C 92.4,118.147 93.674,118.254 93.862,119.183 C 93.164,118.847 92.557,118.348 91.811,118.109 C 91.753,118.09 91.575,118.278 91.589,118.305 C 91.914,118.896 92.498,119.189 93.067,119.551 z "
   style="fill:#ffffff"
   id="path196" />
			<path
   d="M 92.635,120.486 C 91.961,120.263 90.995,118.548 90.597,119.72 C 92.282,121.468 95.151,122.86 97.553,121.386 C 96.657,120.975 95.743,121.552 94.833,121.279 C 94.069,121.05 93.383,120.734 92.635,120.486 z "
   style="fill:#ffffff"
   id="path198" />
			<path
   d="M 92.576,122.569 C 91.385,122.477 91.006,121.574 90.119,120.944 C 89.789,120.709 89.693,121.412 89.716,121.472 C 90.169,122.667 91.35,123.656 92.668,123.794 C 92.754,123.803 92.837,123.691 92.803,123.562 C 92.749,123.359 92.451,123.389 92.428,123.16 C 93.58,123.499 94.794,123.378 95.935,123.15 C 94.859,122.711 93.703,122.656 92.576,122.569 z "
   style="fill:#ffffff"
   id="path200" />
			<path
   d="M 90.747,123.594 C 90.435,123.33 90.056,122.91 89.856,122.933 C 89.175,123.01 89.753,123.983 89.395,124.485 C 89.822,124.774 90.369,125.435 90.934,125.057 C 90.648,124.872 90.672,124.572 90.701,124.269 C 91.178,124.558 91.699,124.701 92.245,124.815 C 92.325,124.832 92.444,124.679 92.361,124.605 C 91.876,124.166 91.245,124.016 90.747,123.594 z "
   style="fill:#ffffff"
   id="path202" />
			<path
   d="M 88.049,141.186 C 88.165,141.246 88.3,141.123 88.279,141.092 C 87.992,140.679 87.522,140.499 87.031,140.534 C 86.935,140.541 86.78,140.699 86.796,140.747 C 86.989,141.323 87.636,140.971 88.049,141.186 z "
   style="fill:#ffffff"
   id="path204" />
			<path
   d="M 86.419,139.584 C 86.495,139.504 86.595,139.446 86.545,139.325 C 86.503,139.224 86.411,139.125 86.305,139.197 C 86.138,139.311 86.024,139.496 86.037,139.693 C 86.043,139.79 86.158,139.892 86.265,139.82 C 86.34,139.77 86.353,139.652 86.419,139.584 z "
   style="fill:#ffffff"
   id="path206" />
			<path
   d="M 86.875,141.879 C 85.727,141.363 85.346,142.516 84.701,143.123 C 84.482,143.33 84.061,143.081 83.861,143.191 C 83.46,143.412 82.737,143.751 82.974,144.212 C 83.436,145.114 84.61,145.209 85.582,145.425 C 87.09,145.761 89.064,146.38 90.191,145.112 C 90.252,145.044 89.907,144.829 89.735,144.801 C 88.965,144.676 88.126,144.484 87.601,143.87 C 87.495,143.745 87.515,143.368 87.617,143.308 C 88.279,142.926 88.782,143.945 89.518,143.709 C 88.795,142.88 87.873,142.328 86.875,141.879 z "
   style="fill:#ffffff"
   id="path208" />
			<path
   d="M 87.808,133.408 C 87.723,133.485 87.821,133.627 87.915,133.637 C 88.259,133.669 88.593,134.047 88.951,133.691 C 88.627,133.468 88.143,133.104 87.808,133.408 z "
   style="fill:#ffffff"
   id="path210" />
			<path
   d="M 86.856,149.636 C 88.38,149.405 89.917,148.227 89.42,146.563 C 88.227,146.957 86.928,146.575 85.814,146.945 C 84.983,147.221 85.651,149.315 84.43,148.906 C 83.58,148.62 82.642,147.621 83.043,146.789 C 83.143,146.581 83.776,146.97 84.212,147.012 C 84.299,147.02 84.414,146.858 84.332,146.806 C 83.765,146.445 83.096,145.885 82.609,146.07 C 81.88,146.348 82.161,147.447 82.461,148.091 C 83.177,149.628 85.122,149.899 86.856,149.636 z "
   style="fill:#ffffff"
   id="path212" />
			<path
   d="M 86.585,150.27 C 85.81,150.622 83.967,149.866 84.379,150.72 C 84.917,151.834 86.679,151.183 87.832,150.884 C 88.313,150.759 88.653,150.363 88.908,149.918 C 88.973,149.805 88.857,149.666 88.809,149.689 C 88.075,150.029 87.284,149.954 86.585,150.27 z "
   style="fill:#ffffff"
   id="path214" />
			<path
   d="M 86.295,146.223 C 86.21,146.153 85.922,146.162 85.967,146.3 C 86.103,146.715 86.731,146.833 86.885,146.451 C 86.957,146.273 86.511,146.4 86.295,146.223 z "
   style="fill:#ffffff"
   id="path216" />
			<path
   d="M 113.345,65.44 C 113.499,65.801 113.46,66.503 113.803,66.374 C 115.389,65.773 114.671,63.742 114.377,62.35 C 113.858,62.938 113.212,63.558 113.124,64.266 C 113.086,64.569 113.179,65.05 113.345,65.44 z "
   style="fill:#ffffff"
   id="path218" />
			<path
   d="M 112.674,66.062 C 112.625,65.688 112.83,65.149 112.328,65.059 C 112.217,65.039 111.971,65.27 111.985,65.378 C 112.157,66.629 111.482,67.697 111.739,68.871 C 111.822,69.249 112.013,68.79 112.036,68.746 C 112.348,68.126 112.224,67.378 112.409,66.701 C 112.643,66.862 112.647,67.091 112.671,67.356 C 112.68,67.454 112.813,67.537 112.897,67.627 C 113.268,67.138 112.742,66.588 112.674,66.062 z "
   style="fill:#ffffff"
   id="path220" />
			<path
   d="M 110.836,68.483 C 111.242,67.595 111.694,66.768 111.662,65.765 C 108.225,69.545 104.696,73.047 101.767,77.446 C 101.651,77.62 102.412,77.77 102.629,77.597 C 104.928,75.757 106.761,73.724 108.703,71.478 C 109.524,70.528 110.306,69.643 110.836,68.483 z "
   style="fill:#ffffff"
   id="path222" />
			<path
   d="M 92.323,54.591 C 91.91,55.679 91.517,56.744 90.971,57.758 C 90.683,58.294 89.922,58.273 89.437,58.642 C 91.524,54.643 93.644,50.667 95.691,46.648 C 95.697,47.021 95.477,47.333 95.353,47.661 C 95.095,48.345 94.585,48.922 94.354,49.608 C 93.77,51.351 92.967,52.891 92.323,54.591 z "
   style="fill:#0060a9"
   id="path224" />
			<path
   d="M 91.225,52.214 C 90.841,52.82 90.718,53.54 90.116,53.989 C 90.77,52.049 91.711,50.238 92.621,48.409 C 93.043,47.56 93.724,46.293 94.797,46.227 C 93.437,48.123 92.507,50.193 91.225,52.214 z "
   style="fill:#0060a9"
   id="path226" />
			<path
   d="M 112.289,77.742 C 111.948,77.606 111.533,77.91 111.522,78.182 C 111.509,78.512 112.128,78.896 112.525,78.521 C 112.564,78.917 112.312,79.063 111.999,79.153 C 111.618,79.263 111.136,78.915 111.066,78.598 C 110.936,78.015 111.226,77.309 111.802,77.246 C 112.079,77.216 112.875,77.26 112.635,77.859 C 112.606,77.932 112.418,77.793 112.289,77.742 z "
   style="fill:#0060a9"
   id="path228" />
			<path
   d="M 110.284,83.088 C 109.597,83.129 109.405,81.903 109.954,81.567 C 110.368,81.314 110.656,81.369 111.097,81.695 C 111.182,81.758 111.037,81.999 110.949,81.961 C 110.491,81.761 109.995,81.784 110.166,82.36 C 110.254,82.655 110.491,82.787 111.013,82.478 C 110.963,82.987 110.703,83.063 110.284,83.088 z "
   style="fill:#0060a9"
   id="path230" />
			<path
   d="M 107.421,27.74 C 107.494,27.593 108.007,27.371 107.594,27.241 C 105.795,26.676 103.63,27.138 102.305,28.525 C 102.708,28.725 103.015,28.325 103.361,28.359 C 104.511,28.472 105.564,29.297 106.717,28.75 C 107.088,28.574 107.244,28.1 107.421,27.74 z "
   style="fill:#ffffff"
   id="path232" />
			<path
   d="M 105.191,29.566 C 103.883,29.362 102.399,28.888 101.337,29.907 C 101.261,29.981 101.367,30.123 101.424,30.105 C 102.737,29.7 103.971,30.293 105.282,30.1 C 105.574,30.057 106.078,29.989 106.041,29.718 C 106,29.414 105.506,29.615 105.191,29.566 z "
   style="fill:#ffffff"
   id="path234" />
			<path
   d="M 101.533,31.333 C 101.897,31.059 102.277,30.831 102.545,30.487 C 102.603,30.413 102.347,30.36 102.255,30.414 C 101.664,30.763 101.089,31.065 100.706,31.641 C 100.684,31.676 100.802,31.798 100.903,31.739 C 101.125,31.61 101.327,31.489 101.533,31.333 z "
   style="fill:#ffffff"
   id="path236" />
			<path
   d="M 101.711,32.513 C 102.018,32.437 102.822,31.476 102.936,31.3 C 102.959,31.264 102.829,31.136 102.743,31.205 C 102.424,31.46 101.258,32.311 100.923,32.513 C 100.186,32.957 99.347,33.885 99.751,34.867 C 100.298,33.97 100.557,32.801 101.711,32.513 z "
   style="fill:#ffffff"
   id="path238" />
			<path
   d="M 102.198,34.944 C 102.627,34.612 103.257,34.433 103.253,33.818 C 103.253,33.746 103.115,33.486 102.971,33.598 C 102.37,34.066 101.71,34.418 101.303,35.058 C 101.022,35.499 100.74,36.147 100.976,36.661 C 101.371,36.081 101.595,35.409 102.198,34.944 z "
   style="fill:#ffffff"
   id="path240" />
			<path
   d="M 103.115,35.471 C 103.504,35.301 103.836,35.029 104.051,34.679 C 104.067,34.653 103.931,34.536 103.856,34.456 C 103.565,34.839 102.831,34.752 102.801,35.355 C 102.794,35.5 102.989,35.526 103.115,35.471 z "
   style="fill:#ffffff"
   id="path242" />
			<path
   d="M 101.629,33.162 C 101.588,33.277 101.556,33.167 101.499,33.333 C 101.442,33.499 101.311,33.699 101.258,33.756 C 101.205,33.813 101.001,34.017 100.982,34.141 C 100.963,34.265 100.67,34.503 100.659,34.613 C 100.648,34.722 100.547,34.894 100.811,34.655 C 101.067,34.423 101.132,34.44 101.39,34.178 C 101.675,33.888 101.648,33.895 101.678,33.669 C 101.708,33.443 101.726,33.327 101.878,33.179 C 102.029,33.031 102.055,32.901 102.066,32.813 C 102.075,32.725 101.629,33.162 101.629,33.162 z "
   style="fill:#ffffff"
   id="path244" />
			<polygon
   points="124.618,92.307 125.218,94.75 123.046,94.157 121.416,94.832 121.447,94.411 123.013,93.717 122.931,91.832 124.618,92.307 "
   style="fill:#ffffff"
   id="polygon246" />
			<path
   d="M 105.12,28.025 C 104.646,28.308 104.314,28.173 103.843,27.993 C 104.396,27.413 105.202,27.784 105.876,27.403 C 106.085,27.284 106.407,27.33 106.661,27.412 C 106.682,27.419 106.674,27.592 106.656,27.596 C 106.106,27.706 105.617,27.728 105.12,28.025 z "
   style="fill:#0060a9"
   id="path248" />
			<path
   d="M 105.828,28.206 C 106.069,28.168 106.278,27.998 106.528,28.084 C 106.345,28.466 105.994,28.673 105.576,28.62 C 105.49,28.609 105.41,28.45 105.475,28.43 C 105.638,28.378 105.708,28.225 105.828,28.206 z "
   style="fill:#0060a9"
   id="path250" />
		</g>
		<path
   d="M 144.486,153.303 C 118.787,140.885 105.656,138.684 72.598,153.377 C 71.929,153.674 86.499,159.547 90.142,161.257 C 95.176,163.62 107.835,172.185 108.579,172.928 C 108.316,172.665 117.128,166.684 125.38,161.926 C 132.696,157.708 144.486,153.303 144.486,153.303 z "
   style="fill:#0060a9"
   id="path252" />
		<g
   id="g254">
			<g
   id="g256">
				<rect
   width="19.913"
   height="3.3659999"
   x="99.185997"
   y="145.98599"
   style="fill:#ffffff"
   id="rect258" />
				<path
   d=""
   style="fill:#ffffff"
   id="path260" />
			</g>
		</g>
		<path
   d="M 98.022,146.167 C 95.494,146.167 76.963,153.373 81.667,151.965 C 90.365,149.363 97.585,147.057 97.874,146.985 C 98.171,146.91 98.022,146.167 98.022,146.167 z "
   style="fill:#ffffff"
   id="path262" />
		<path
   d="M 120.038,146.095 C 122.565,146.095 141.096,153.301 136.393,151.893 C 127.695,149.291 120.475,146.984 120.186,146.913 C 119.889,146.838 120.038,146.095 120.038,146.095 z "
   style="fill:#ffffff"
   id="path264" />
		<g
   id="g266">
			<path
   d="M 58.975,60.666 L 61.658,68.559 L 65.545,62.558 L 64.784,57.534 L 69.447,49.567 L 72.324,58.689 L 75.341,54.025 C 75.341,54.025 74.785,39.607 75.62,38.204 C 76.455,36.801 85.756,15.179 85.756,15.179 L 85.756,15.03 C 85.756,15.03 71.408,33.689 70.59,35.102 C 69.773,36.515 56.911,43.057 56.911,43.057 L 54.309,47.963 L 63.676,46.03 L 58.992,53.984 L 54.235,55.768 L 50.889,62.087 L 59.067,60.712 L 58.975,60.666 z "
   style="fill:#0060a9"
   id="path268" />
		</g>
		<g
   id="g270">
			<path
   d="M 141.16,95.381 L 143.843,103.273 L 147.73,97.272 L 146.969,92.248 L 151.632,84.281 L 154.509,93.403 L 157.525,88.739 C 157.525,88.739 156.969,74.321 157.804,72.918 C 158.639,71.515 167.94,49.893 167.94,49.893 L 167.94,49.744 C 167.94,49.744 153.592,68.403 152.774,69.816 C 151.956,71.229 139.095,77.771 139.095,77.771 L 136.493,82.678 L 145.86,80.745 L 141.176,88.7 L 136.418,90.484 L 133.073,96.803 L 141.251,95.428 L 141.16,95.381 z "
   style="fill:#0060a9"
   id="path272" />
		</g>
		<g
   id="g274">
			<polygon
   points="45.834,153.749 48.659,155.236 44.764,169.734 44.607,171.182 41.04,169.397 42.266,168.542 45.872,156.945 37.322,165.532 37.359,167.13 34.051,165.42 35.873,164.751 45.834,155.087 45.834,153.749 "
   style="fill:#0060a9"
   id="polygon276" />
			<polygon
   points="38.66,163.711 43.27,166.238 43.084,167.353 37.694,164.417 38.66,163.711 "
   style="fill:#0060a9"
   id="polygon278" />
		</g>
		<polygon
   points="52.265,157.354 55.833,158.99 54.792,159.473 48.734,172.037 48.994,173.449 45.017,171.479 46.652,170.922 52.674,158.396 52.265,157.354 "
   style="fill:#0060a9"
   id="polygon280" />
		<path
   d="M 177.575,158.15 C 179.121,160.172 179.538,163.324 178.527,165.762 C 177.099,168.2 174.602,168.796 172.52,170.104 L 172.52,168.498 L 166.335,158.031 C 165.978,157.734 165.502,157.555 165.086,157.317 C 167.167,155.295 170.141,153.986 173.293,154.76 C 174.958,155.295 176.624,156.544 177.575,158.15 z "
   style="fill:#0060a9"
   id="path282" />
		<path
   d="M 174.542,158.388 C 176.207,160.766 177.873,164.216 175.969,167.011 L 175.077,167.784 C 172.877,163.978 170.319,160.29 168.475,156.366 C 170.736,155.236 172.937,156.723 174.542,158.388 z "
   style="fill:#ffffff"
   id="path284" />
		<path
   d="M 166.216,160.291 C 166.87,161.718 166.989,163.622 166.157,164.989 C 165.681,165.524 165.324,166.119 164.73,166.595 C 167.287,166.595 168.952,170.579 171.569,168.498 C 171.866,169.45 171.628,170.401 170.915,171.055 C 170.261,171.591 169.428,171.948 168.596,171.591 C 166.336,170.996 165.087,167.428 162.589,167.963 C 163.718,169.807 163.718,172.483 166.038,173.316 C 164.819,173.858 164.001,174.268 162.589,174.744 C 161.34,170.283 159.437,166.12 157.474,162.016 L 156.225,160.946 C 158.901,159.458 163.718,156.366 166.216,160.291 z "
   style="fill:#0060a9"
   id="path286" />
		<path
   d="M 63.803,164.751 C 64.16,165.94 63.803,167.07 63.327,168.081 C 62.078,169.866 60.234,170.758 58.093,170.519 C 58.747,172.244 57.855,174.92 59.996,176.05 L 60.947,176.288 C 60.59,177.121 59.579,177.24 58.806,177.477 C 57.795,177.298 56.784,176.942 56.249,175.99 C 55.119,174.027 56.844,171.292 55.178,169.567 C 54.406,171.292 52.621,173.195 53.453,175.336 C 52.145,174.92 50.836,174.384 49.647,173.731 C 50.242,173.493 51.313,172.779 51.55,171.887 L 56.368,161.42 L 56.546,159.636 C 59.342,160.529 62.613,161.778 63.803,164.751 z "
   style="fill:#0060a9"
   id="path288" />
		<path
   d="M 163.243,160.38 C 164.194,161.153 164.432,162.224 164.611,163.354 C 164.611,164.603 163.897,165.733 162.567,166.588 L 162.21,166.707 L 159.355,160.522 C 160.187,159.57 162.291,159.667 163.243,160.38 z "
   style="fill:#ffffff"
   id="path290" />
		<path
   d="M 61.186,163.384 C 61.662,164.395 61.602,165.644 61.186,166.655 C 60.591,168.082 59.104,168.796 57.617,168.796 C 56.963,168.558 55.595,168.677 55.833,167.725 L 58.807,161.54 C 59.758,161.837 60.71,162.432 61.186,163.384 z "
   style="fill:#ffffff"
   id="path292" />
		<path
   d="M 162.172,174.921 C 161.161,175.456 160.098,175.865 158.923,176.296 C 159.34,175.523 158.961,174.802 158.544,174.207 L 158.247,173.85 C 156.753,174.489 155.155,175.047 153.727,175.753 C 153.853,176.719 154.322,177.418 154.916,177.894 L 152.478,178.905 L 152.656,176.407 L 151.943,164.208 C 151.646,163.673 151.073,163.517 150.479,163.397 C 151.289,163.04 152.003,162.49 152.895,162.43 L 162.172,174.921 z "
   style="fill:#0060a9"
   id="path294" />
		<path
   d="M 147.898,165.644 L 151.169,178.55 C 150.991,180.155 149.444,180.988 148.077,181.345 C 146.828,181.464 145.698,180.869 145.103,179.858 L 141.594,168.32 L 140.701,167.249 C 141.809,166.796 142.813,166.424 143.794,165.941 C 144.091,170.58 146.114,174.743 147.244,179.085 C 147.66,179.798 148.433,179.918 149.028,179.858 C 150.753,178.966 149.444,177.003 149.385,175.695 L 146.59,166.179 L 145.757,165.227 C 146.567,164.9 147.311,164.714 148.195,164.335 L 147.898,165.644 z "
   style="fill:#0060a9"
   id="path296" />
		<path
   d="M 73.824,167.042 C 74.24,170.61 74.597,174.238 75.192,177.747 L 77.987,169.004 C 77.808,168.648 77.808,168.291 77.749,167.934 L 80.009,168.767 L 78.82,170.254 L 74.776,182.446 L 74.776,183.516 L 73.349,182.862 L 71.684,169.718 L 71.267,170.194 L 67.699,179.115 C 67.58,179.888 68.056,180.364 68.234,180.959 L 65.022,179.77 C 65.795,179.473 66.985,178.402 67.401,177.332 L 71.267,167.578 C 71.445,166.924 71.327,166.091 71.148,165.496 C 72.099,165.852 73.527,165.911 73.824,167.042 z "
   style="fill:#0060a9"
   id="path298" />
		<path
   d="M 157.652,172.75 C 156.522,173.285 155.273,173.821 154.024,174.118 L 153.489,166.981 C 155.035,168.885 156.403,170.788 157.652,172.75 z "
   style="fill:#ffffff"
   id="path300" />
		<path
   d="M 138.717,176.795 C 139.988,176.349 141.594,175.813 143.081,175.219 C 142.85,176.312 144.151,179.805 144.754,181.917 C 144.04,183.701 142.739,181.181 141.653,183.367 C 140.761,183.962 140.136,184.638 138.204,184.289 C 134.457,182.089 133.446,177.896 133.684,173.673 C 134.16,171.532 134.576,169.153 136.777,168.082 C 137.788,167.726 138.68,168.32 139.453,168.975 C 139.869,168.618 139.921,167.837 140.099,167.362 C 140.694,168.99 141.14,171.183 141.69,172.819 C 140.619,171.451 139.036,168.559 136.776,169.154 C 135.11,172.96 136.716,177.242 138.025,180.692 C 138.442,181.464 139.036,182.297 139.869,182.714 C 140.583,182.892 141.297,182.535 141.475,181.881 L 140.174,177.614 L 138.717,176.795 z "
   style="fill:#0060a9"
   id="path302" />
		<path
   d="M 95.056,176.914 C 94.996,178.579 94.759,180.423 94.402,182.147 C 93.926,180.244 94.343,177.746 92.618,176.676 L 90.358,189.7 L 90.894,192.02 L 87.147,189.879 C 87.385,189.522 88.099,188.986 88.336,188.451 L 90.477,175.486 C 90.18,175.069 89.763,175.069 89.288,175.069 L 87.385,177.983 C 87.385,176.378 87.801,174.593 88.218,172.928 L 95.056,176.914 z "
   style="fill:#0060a9"
   id="path304" />
		<path
   d="M 117.894,196.301 L 114.385,198.859 C 112.482,196.421 110.995,193.625 109.152,191.068 C 108.914,194.518 108.795,198.146 108.854,201.535 L 109.687,202.427 L 107.129,204.568 L 107.575,202.851 L 108.2,189.7 C 108.2,189.046 107.843,188.451 107.248,188.095 L 108.884,186.831 C 110.661,189.024 112.184,191.998 113.85,194.28 C 113.783,191.366 113.739,187.76 113.62,184.549 C 113.442,184.192 112.839,183.932 112.542,183.634 L 114.92,181.909 C 114.935,184.229 115.009,192.22 115.158,197.372 L 115.486,198.056 L 115.873,196.837 L 117.716,182.444 C 117.776,181.671 117.299,180.958 116.645,180.719 L 118.43,179.351 L 119.084,180.064 L 123.783,191.602 C 124.021,191.9 124.319,192.078 124.616,192.137 C 125.329,191.007 124.734,189.58 124.734,188.331 L 123.485,177.745 L 122.474,176.794 C 123.544,176.021 124.733,175.188 125.923,174.653 L 125.626,176.913 C 126.339,181.195 126.28,185.774 127.291,189.937 C 129.849,189.164 130.324,186.428 130.622,184.168 L 130.622,188.985 C 127.648,190.829 124.616,192.553 121.523,194.159 L 121.664,193.111 L 121.181,191.698 L 117.799,193.259 L 117.613,195.713 L 117.894,196.301 z "
   style="fill:#0060a9"
   id="path306" />
		<path
   d="M 99.517,179.887 C 99.457,180.482 98.387,180.363 98.446,181.136 L 96.959,194.101 L 97.495,195.707 C 96.365,195.29 94.997,194.279 93.748,193.447 L 94.759,192.258 L 96.424,179.472 L 96.008,177.747 L 99.517,179.887 z "
   style="fill:#0060a9"
   id="path308" />
		<path
   d="M 105.405,183.515 C 106.713,187.857 107.367,194.339 104.037,197.908 C 103.323,198.621 102.371,198.919 101.479,198.801 C 98.208,197.254 98.446,193.21 98.387,189.999 C 98.804,186.498 99.472,182.669 102.728,181.673 C 104.037,181.612 104.936,182.296 105.405,183.515 z "
   style="fill:#0060a9"
   id="path310" />
		<path
   d="M 103.799,184.348 C 104.215,187.797 103.918,191.723 103.68,195.231 C 103.323,196.064 103.383,197.015 102.55,197.61 C 101.777,197.967 101.361,197.075 101.123,196.659 C 100.409,192.436 100.699,187.24 101.896,184.051 C 102.334,183.039 103.598,183.002 103.799,184.348 z "
   style="fill:#ffffff"
   id="path312" />
		<path
   d="M 120.57,190.533 L 117.775,191.841 C 117.835,189.7 118.131,187.202 118.429,184.883 C 119.262,186.726 119.976,188.629 120.57,190.533 z "
   style="fill:#ffffff"
   id="path314" />
		<g
   id="g316">
			<polygon
   points="83.452,170.327 86.296,171.818 85.804,187.997 85.964,189.376 82.39,187.597 83.314,186.814 84.147,173.847 78.252,183.754 78.617,185.513 75.292,183.801 76.789,182.969 83.729,171.802 83.452,170.327 "
   style="fill:#0060a9"
   id="polygon318" />
			<polygon
   points="78.948,181.65 83.737,184.222 83.802,185.46 78.354,182.505 78.948,181.65 "
   style="fill:#0060a9"
   id="polygon320" />
		</g>
	</g>
</g>
<g
   id="Eagle">
</g>
</svg>