<?xml version="1.0" encoding="UTF-8" standalone="no"?>
<svg
   xmlns:dc="http://purl.org/dc/elements/1.1/"
   xmlns:cc="http://creativecommons.org/ns#"
   xmlns:rdf="http://www.w3.org/1999/02/22-rdf-syntax-ns#"
   xmlns:svg="http://www.w3.org/2000/svg"
   xmlns="http://www.w3.org/2000/svg"
   viewBox="0 0 802.16022 802.16034"
   height="802.16034"
   width="802.16022"
   xml:space="preserve"
   id="svg2"
   version="1.1"><metadata
     id="metadata8"><rdf:RDF><cc:Work
         rdf:about=""><dc:format>image/svg+xml</dc:format><dc:type
           rdf:resource="http://purl.org/dc/dcmitype/StillImage" /></cc:Work></rdf:RDF></metadata><defs
     id="defs6"><clipPath
       id="clipPath20"
       clipPathUnits="userSpaceOnUse"><path
         id="path18"
         d="M 0,0 H 6016.21 V 6016.21 H 0 Z" /></clipPath></defs><g
     transform="matrix(1.3333333,0,0,-1.3333333,0,802.16131)"
     id="g10"><g
       transform="scale(0.1)"
       id="g12"><g
         id="g14"><g
           clip-path="url(#clipPath20)"
           id="g16"><path
             id="path22"
             style="fill:#d41042;fill-opacity:1;fill-rule:nonzero;stroke:none"
             d="M 8.10156,3008.1 C 8.10156,4664.97 1351.23,6008.11 3008.11,6008.11 4664.99,6008.11 6008.1,4664.97 6008.1,3008.1 6008.1,1351.22 4664.99,8.10938 3008.11,8.10938 1351.23,8.10938 8.10156,1351.22 8.10156,3008.1" /><path
             id="path24"
             style="fill:none;stroke:#231f20;stroke-width:16.20400047;stroke-linecap:butt;stroke-linejoin:miter;stroke-miterlimit:4;stroke-dasharray:none;stroke-opacity:1"
             d="M 8.10156,3008.1 C 8.10156,4664.97 1351.23,6008.11 3008.11,6008.11 4664.99,6008.11 6008.1,4664.97 6008.1,3008.1 6008.1,1351.22 4664.99,8.10938 3008.11,8.10938 1351.23,8.10938 8.10156,1351.22 8.10156,3008.1 Z" /><path
             id="path26"
             style="fill:#173a79;fill-opacity:1;fill-rule:nonzero;stroke:none"
             d="m 165.094,3006.65 c 0,1570.52 1273.126,2843.64 2843.646,2843.64 1570.52,0 2843.64,-1273.12 2843.64,-2843.64 0,-1570.51 -1273.12,-2843.638 -2843.64,-2843.638 -1570.52,0 -2843.646,1273.128 -2843.646,2843.638" /><path
             id="path28"
             style="fill:#d41042;fill-opacity:1;fill-rule:nonzero;stroke:none"
             d="m 990.961,3008.24 c 0,1114.02 903.069,2017.1 2017.089,2017.1 1114.03,0 2017.09,-903.08 2017.09,-2017.1 0,-1114.03 -903.06,-2017.099 -2017.09,-2017.099 -1114.02,0 -2017.089,903.069 -2017.089,2017.099" /><path
             id="path30"
             style="fill:#ffffff;fill-opacity:1;fill-rule:nonzero;stroke:none"
             d="m 914.797,2138.13 -68.102,186.55 92.387,70.44 -41.894,114.77 -440.485,-362.64 44.445,-121.79 571.312,4.26 -40.62,111.24 z m -321.18,-11.91 -0.512,1.41 177.098,135.65 47.008,-128.85 -223.594,-8.21" /><path
             id="path32"
             style="fill:#ffffff;fill-opacity:1;fill-rule:nonzero;stroke:none"
             d="m 892.504,2551.93 -12.359,109.45 -209.266,-23.62 -13.031,115.44 c -9.328,82.65 18.461,90.32 91.433,98.57 55.121,6.21 82.16,13.81 106.649,24.1 l -13.965,123.65 -14.149,-1.62 c -6.253,-24.84 -25.609,-27.02 -103.808,-35.86 -99.785,-11.26 -113.485,-36.94 -127.887,-83.06 -23.848,50.84 -77.859,74.93 -136.691,68.29 -46.172,-5.23 -148.242,-43.15 -132.172,-185.38 l 30.523,-270.34 z m -311.75,75.66 -142.984,-16.14 -15.723,139.27 c -7.395,65.53 32.875,82.91 61.18,86.1 52.863,5.96 76.164,-20.06 82.73,-78.15 l 14.797,-131.08" /><path
             id="path34"
             style="fill:#ffffff;fill-opacity:1;fill-rule:nonzero;stroke:none"
             d="m 912.172,3569.24 -14.59,-103.9 -445.297,62.56 -0.23,-1.48 431.336,-162.02 -15.309,-109.1 -458.984,-34.67 -0.207,-1.49 445.32,-62.54 -14.598,-103.92 -532.894,74.87 22.828,162.54 433.633,37.46 0.218,1.5 -406.734,154.01 22.629,161.06 532.879,-74.88" /><path
             id="path36"
             style="fill:#ffffff;fill-opacity:1;fill-rule:nonzero;stroke:none"
             d="m 1034.38,3872.49 -42.275,-104.15 -188.21,76.36 -380.321,-46.26 49.899,122.92 258.652,15.55 -176.66,186.55 47.914,118.05 244.176,-293.21 186.825,-75.81" /><path
             id="path38"
             style="fill:#ffffff;fill-opacity:1;fill-rule:nonzero;stroke:none"
             d="m 1029.78,4836.67 67.9,79.99 410.26,-348.22 -72.75,-85.7 -434.65,80.89 -0.989,-1.14 292.559,-248.33 -67.89,-79.99 -410.279,348.23 76.629,90.28 423.93,-79.64 0.98,1.13 -285.7,242.5" /><path
             id="path40"
             style="fill:#ffffff;fill-opacity:1;fill-rule:nonzero;stroke:none"
             d="m 1590.35,4776.59 160.18,117.43 93.38,-69.07 98.52,72.23 -471.09,321.87 -104.58,-76.66 163.45,-547.43 95.5,70 z m -101.03,305.1 1.23,0.91 179.63,-132.25 -110.61,-81.09 -70.25,212.43" /><path
             id="path42"
             style="fill:#ffffff;fill-opacity:1;fill-rule:nonzero;stroke:none"
             d="m 2192.35,5002.5 -102.88,-45.34 -178.59,405.34 -148.83,-65.57 -38.37,87.1 400.53,176.49 38.39,-87.11 -148.84,-65.59 178.59,-405.32" /><path
             id="path44"
             style="fill:#ffffff;fill-opacity:1;fill-rule:nonzero;stroke:none"
             d="m 2488.6,5099.2 -108.38,-29.86 -142.98,518.79 108.39,29.86 142.97,-518.79" /><path
             id="path46"
             style="fill:#ffffff;fill-opacity:1;fill-rule:nonzero;stroke:none"
             d="m 2517.89,5394.93 c 24.02,-251.44 213.47,-264.21 284.35,-257.42 70.88,6.76 254.46,55.17 230.45,306.61 -24.02,251.41 -213.47,264.18 -284.34,257.41 -70.88,-6.76 -254.47,-55.17 -230.46,-306.6 z m 111.92,10.69 c -14.34,149.95 67.17,195.39 127.6,201.17 60.43,5.76 149.04,-23.41 163.37,-173.36 14.32,-149.98 -67.17,-195.41 -127.6,-201.18 -60.43,-5.77 -149.05,23.4 -163.37,173.37" /><path
             id="path48"
             style="fill:#ffffff;fill-opacity:1;fill-rule:nonzero;stroke:none"
             d="m 3519.64,5653.54 103.78,-15.43 -79.06,-532.29 -111.2,16.54 -160.83,411.83 -1.49,0.23 -56.39,-379.58 -103.78,15.42 79.07,532.29 117.14,-17.41 156.22,-402.05 1.48,-0.23 55.06,370.68" /><path
             id="path50"
             style="fill:#ffffff;fill-opacity:1;fill-rule:nonzero;stroke:none"
             d="m 3764.88,5145.21 184.08,-74.54 -9.67,-115.77 113.24,-45.84 26.22,569.95 -120.16,48.67 -379.84,-426.78 109.77,-44.44 z m 206.47,246.3 1.37,-0.56 -18.05,-222.33 -127.11,51.48 143.79,171.41" /><path
             id="path52"
             style="fill:#ffffff;fill-opacity:1;fill-rule:nonzero;stroke:none"
             d="m 4233.2,4897.55 220.44,-151.65 -55.23,-80.28 -313.06,215.37 304.99,443.36 92.62,-63.71 -249.76,-363.09" /><path
             id="path54"
             style="fill:#ffffff;fill-opacity:1;fill-rule:nonzero;stroke:none"
             d="m 4963.37,4473.76 136.29,-178.81 -230.68,-175.82 -45.44,59.6 46.84,49.83 c -43.49,2.67 -107.23,5.91 -166.74,84.01 -78.58,103.13 -76.02,253.04 74.21,367.52 116.85,89.05 276.65,108.12 385.98,-36.58 99.93,-131.15 54.23,-247.97 -1.14,-297.72 l -68.15,89.42 c 16.69,12.71 47.15,84.01 -0.99,147.21 -48.61,63.77 -137.69,89.17 -247.37,5.56 -116.85,-89.03 -98.64,-175.99 -52.3,-236.78 15,-19.67 72.73,-79.35 173.24,-31.95 l -75.87,99.56 72.12,54.95" /><path
             id="path56"
             style="fill:#ffffff;fill-opacity:1;fill-rule:nonzero;stroke:none"
             d="m 5246.2,3731.59 c -130.16,-55.89 -219.66,-1.32 -273.18,123.33 -19.5,45.46 -37.45,117.69 -7.48,182.75 18.78,39.87 54.29,67.34 103.27,90 l 327.84,140.74 45.22,-105.37 -320.93,-137.77 c -68.86,-29.56 -82.02,-82.52 -61.34,-130.73 30.45,-70.94 77.31,-85.09 137.23,-59.36 l 325.75,139.84 45.25,-105.39 -321.63,-138.04" /><path
             id="path58"
             style="fill:#ffffff;fill-opacity:1;fill-rule:nonzero;stroke:none"
             d="m 5223.81,3486.78 33.13,-195.83 -103.63,-52.49 20.37,-120.46 498.96,276.69 -21.62,127.85 -562.57,99.46 19.75,-116.77 z m 317.99,-46.55 0.28,-1.48 -198.77,-101.26 -22.87,135.24 221.36,-32.5" /><path
             id="path60"
             style="fill:#ffffff;fill-opacity:1;fill-rule:nonzero;stroke:none"
             d="m 5170.73,3076.07 -7.33,-109.93 210.16,-13.98 -7.73,-115.91 c -5.51,-83.02 -34.24,-85.61 -107.52,-80.73 -55.36,3.67 -83.31,1.06 -109.24,-4.75 l -8.24,-124.14 14.19,-0.95 c 10.57,23.34 30,22.05 108.53,16.82 100.2,-6.68 118.26,16.17 140.63,58.98 14.43,-54.28 63.28,-87.58 122.37,-91.51 46.37,-3.08 153.55,16.06 163.03,158.9 l 18.09,271.46 z m 293.31,-129.94 143.58,-9.54 -9.31,-139.86 c -4.38,-65.8 -47.09,-75.73 -75.52,-73.84 -53.09,3.53 -71.4,33.3 -67.51,91.62 l 8.76,131.62" /><path
             id="path62"
             style="fill:#ffffff;fill-opacity:1;fill-rule:nonzero;stroke:none"
             d="m 5127.38,2568.87 -69.58,-222.45 c -53.03,-169.54 92.13,-262.84 202.28,-297.29 97.29,-30.42 255.84,-40.75 309.96,132.37 l 70.91,226.75 z m 392.01,-238.04 -32.23,-103 c -14.32,-45.79 -49.07,-114.23 -200.71,-66.8 -84.4,26.39 -163.22,83.26 -135.94,170.52 l 32.69,104.44 336.19,-105.16" /><path
             id="path64"
             style="fill:#ffffff;fill-opacity:1;fill-rule:nonzero;stroke:none"
             d="m 1021.43,1121.34 70.59,217.26 -184.801,134.28 h 228.441 l 70.59,217.23 70.59,-217.26 h 228.42 l -184.8,-134.25 70.57,-217.26 -184.8,134.26 -184.8,-134.26" /><path
             id="path66"
             style="fill:#ffffff;fill-opacity:1;fill-rule:nonzero;stroke:none"
             d="m 1804.46,535.289 70.58,217.262 -184.79,134.258 h 228.43 l 70.59,217.241 70.59,-217.249 h 228.42 l -184.79,-134.27 70.56,-217.242 -184.79,134.262 -184.8,-134.262" /><path
             id="path68"
             style="fill:#ffffff;fill-opacity:1;fill-rule:nonzero;stroke:none"
             d="m 2818.39,307.691 70.59,217.27 -184.8,134.258 h 228.45 l 70.58,217.25 70.59,-217.27 h 228.43 L 3117.41,524.93 3187.99,307.691 3003.2,441.961 2818.39,307.691" /><path
             id="path70"
             style="fill:#ffffff;fill-opacity:1;fill-rule:nonzero;stroke:none"
             d="m 3825.03,535.289 70.57,217.262 -184.77,134.258 h 228.42 l 70.6,217.241 70.57,-217.249 h 228.44 l -184.82,-134.27 70.58,-217.242 -184.79,134.262 -184.8,-134.262" /><path
             id="path72"
             style="fill:#ffffff;fill-opacity:1;fill-rule:nonzero;stroke:none"
             d="m 4626.62,1121.34 70.59,217.26 -184.8,134.28 h 228.44 l 70.6,217.23 70.57,-217.26 h 228.43 l -184.79,-134.25 70.58,-217.26 -184.82,134.26 -184.8,-134.26" /><path
             id="path74"
             style="fill:#a5c8db;fill-opacity:1;fill-rule:nonzero;stroke:none"
             d="m 1092.5,3006.65 c 0,1058.31 857.92,1916.23 1916.25,1916.23 1058.33,0 1916.25,-857.92 1916.25,-1916.23 0,-1058.33 -857.92,-1916.24 -1916.25,-1916.24 -1058.33,0 -1916.25,857.91 -1916.25,1916.24" /><path
             id="path76"
             style="fill:none;stroke:#231f20;stroke-width:16.04400063;stroke-linecap:butt;stroke-linejoin:miter;stroke-miterlimit:4;stroke-dasharray:none;stroke-opacity:1"
             d="m 1092.5,3006.65 c 0,1058.31 857.92,1916.23 1916.25,1916.23 1058.33,0 1916.25,-857.92 1916.25,-1916.23 0,-1058.33 -857.92,-1916.24 -1916.25,-1916.24 -1058.33,0 -1916.25,857.91 -1916.25,1916.24 z" /><path
             id="path78"
             style="fill:#231f20;fill-opacity:1;fill-rule:nonzero;stroke:none"
             d="m 3702.47,2521.73 c 0.72,-19.53 -1.02,-45.7 -3.17,-45.58 -64.57,3.54 -125.8,-4.73 -180.93,-35.25 -49.89,-27.61 -99.05,-75.52 -90.14,-133.97 11.42,-75.12 43.85,-139.63 57.92,-215.76 0.76,-4.18 -3.96,-10.87 -6.95,-15.86 -19.47,-32.43 -60.16,-25.22 -89.33,-42.18 39.02,-188.45 87.81,-370.54 133.4,-561.11 5.98,-25.14 -35.01,-20.44 -57.83,-26.47 -19.49,-5.17 -39.12,5.36 -46.83,24.59 -89.36,-5.23 -183.02,-27.85 -270.2,6.65 -4.26,1.68 -4.4,9.36 -7.5,12.23 -16.67,15.55 -43.53,-4.88 -48.79,-20.04 -2.79,-8.14 -71.86,-4.64 -112.17,-0.35 -11.28,1.18 -8.94,19.08 -15.98,17.79 -23.73,-4.32 -48.28,-12.21 -68.44,2.47 -13.53,9.82 -0.56,42.5 -10.51,41.87 -99.39,-6.44 -203.68,-24.29 -305.4,-42.25 -12.15,-45.62 -9.35,-104.3 -48.36,-131.78 -36.67,-25.85 -87.55,-30.87 -130.67,-14.26 -23.85,9.22 -44.6,25.38 -60.4,48.26 -28.93,41.97 -12.53,89.27 7.52,129.7 -5.33,1.55 -4.53,8.53 -4.77,10.7 -1.9,16.47 25.55,36.77 17.07,39.63 -30.81,10.27 -67.39,17.53 -102.15,28.13 -25.7,50.58 -46.42,95.83 -70.16,153.19 69.16,18.21 144.46,40.47 205.48,61.64 0,0 2.13,22.07 3.22,46.61 0.48,10.54 79.9,13.82 80.65,29.49 1.71,36.1 9.68,78.42 18.08,115.52 1.38,6.06 11.37,5.42 12.27,10.16 13.25,68.21 14.41,133.03 32.93,200.66 3.65,13.34 19.88,14.02 29.17,21.47 19.06,15.25 28.14,40.06 35.49,62.89 7.69,23.83 7.3,50.53 17,73.43 3.87,9.12 13.14,19.14 14.04,27.78 5.77,56.02 33.28,108.8 24.26,167.43 -3.3,21.43 19.32,38.43 22.95,57.57 6.89,36.31 29.15,79.15 20.66,117.25 -3.18,-5.43 -8.63,-10.43 -17.13,-17.69 -18.21,-15.57 -28.56,6.13 -36.88,0.73 -31.86,-20.73 -39.04,-65.4 -53.79,-98.5 -58.4,-130.9 -110.72,-260.73 -164.3,-394.01 -3.59,-8.96 -21.68,-14.02 -27.17,-8.12 -28.14,30.32 -62.41,45.52 -91.28,73.89 -5.81,5.71 -5.96,16.03 -2.36,22.85 80.76,153.36 188.07,282.91 271.3,434.79 16.33,29.8 21.31,63.02 42.67,93.78 5.03,7.27 7.52,11.32 11.88,19.57 2.58,4.91 8.26,10.89 11.03,16.6 1.49,3.1 -0.48,5.68 -3.14,6.61 -11.27,3.9 -17.79,-7.38 -22.38,-9.19 -5.01,-1.98 -13.34,-5.43 -25.57,4.87 -7.17,6.05 13.39,2.08 19.59,6.91 8.49,6.6 -1.33,16.68 -5.29,18.04 -7.82,2.74 -21.47,-11.79 -30.9,-10.25 -4.52,0.77 -8.65,8.99 -1.54,11.55 12.8,4.61 1.98,16.43 5.57,19.98 16.46,16.32 32.43,30.9 51,45.72 11.61,9.28 29.04,-6.57 44.56,-4.06 6.27,1.03 13.9,3.82 23.03,4.54 2.08,0.17 4.82,2.85 3.24,5.89 -1.51,2.82 -4.62,4.52 -6.13,7.33 -1.6,3.07 0.73,5.74 3.48,6.22 5.74,1.03 11.64,8.47 17.06,-0.19 2.45,1.58 5,3.55 3.39,6.59 -1.49,2.83 -4.47,6.64 -6.16,6.3 -25.92,-5.52 -55.06,1.85 -61.98,24.45 -2.18,7.13 -3.42,14.07 -3.88,20.84 l 787.96,-26.92 c -3.17,-22.76 -8.84,-45.35 -17.86,-67.77 -4.09,-10.21 -35.71,-5.07 -36.63,-18.57 -0.39,-5.75 -2.25,-34.82 0.06,-34.21 12.04,3.11 37.14,21.88 43.27,22.93 l 54.1,-13.97 20.86,-80.09 0.85,-1.25 c -44.74,-16.79 -95.05,-35.36 -138.48,-52.73 -11.92,-61.01 -24.22,-128.45 -28.79,-190.49 -32.28,-21.58 -17.54,-65.91 -31.37,-98.07 -1.76,-4.11 -6.47,-6.87 -10.02,-10.17 18.19,-13.53 44.06,-7.91 60.82,-26.04 13.81,-14.94 23.46,-31.58 32.57,-49.12 58.76,96.09 176.63,127.34 281.75,122.37 l 31.56,-14.19" /><path
             id="path80"
             style="fill:#231f20;fill-opacity:1;fill-rule:nonzero;stroke:none"
             d="m 3820.9,4267.77 c -152.29,-194.87 -298.07,-386.59 -453.16,-575.26 14.76,-136.67 25.24,-268.14 48.67,-409.26 14.13,-85.2 34.74,-168.72 23.37,-250.15 l -787.96,26.92 c -3.85,58.12 51.12,104.18 77.46,154.87 1.93,3.72 -5.03,11.94 -11.4,16.43 -111.11,78.08 -213.86,150.81 -277.28,270.8 -7.59,14.36 -0.29,32.25 -4.77,46.88 -5.2,16.93 -28.64,19.54 -37.86,36.31 -4.79,8.71 -4.59,17.99 -2.22,27.19 7.17,27.98 10.41,51.18 15.12,78.05 4.26,24.22 15.64,46.82 43.65,53.72 16.96,57.99 30.81,116.65 54.93,172.48 27.36,63.25 60.31,121.29 96.99,180.56 18.16,29.33 38.66,57.08 69.45,76.45 31.99,20.14 67.08,20.43 102.57,29.53 7.07,1.81 15.78,6.57 16.26,12.62 1.77,23.21 11.84,42.99 17.37,64.46 -32.17,18.88 -26.51,59.25 -20.91,89.81 -34.82,20.29 -78.79,39.61 -82.24,85.12 -3.44,44.93 13.02,84.87 28.67,125.44 6.79,17.63 18.48,32.91 26.57,50.03 15.65,33.08 38.52,61.13 69.99,83.56 29.53,21.03 55.02,44.74 90.82,50.08 40.59,6.06 79.42,11.4 119.83,8.31 60.05,-4.62 127.38,-7.52 169.81,-50.34 47.14,-47.53 115.91,-89.36 110.93,-161.29 -2.8,-40.39 -14.82,-91.87 -56.08,-109.6 -25.88,-11.12 -62.06,-15.16 -71.47,-38.56 -6.14,-15.29 -0.93,-34.41 -0.04,-53.55 0.74,-15.28 3.34,-30.96 1.47,-47.62 -1.91,-16.93 -16.92,-25.87 -33.38,-32.2 -22.25,-8.58 -49.2,-14.08 -63.09,-37.03 -5.95,-9.88 -9.57,-24.46 -6.35,-32.47 9.56,-23.85 42.16,-24.76 61.87,-43.5 30.42,-28.86 45,-70.07 79.94,-89.78 39.65,-22.34 70.65,-54.4 87.2,-95.23 24.25,-59.89 21.04,-122.83 28.52,-185.77 155.01,200.11 316.76,379.31 470.41,595.43 2.39,3.37 -7.5,13.29 -7.22,22.73 7.55,-2.11 14.09,-6.12 20.16,-10.96 14.99,26.68 40.17,11.71 48.33,-6.49 4.37,-9.78 8,-18.15 4.83,-31.59 -1.56,-6.53 -57.56,-81.54 -69.76,-97.13" /><path
             id="path82"
             style="fill:#b49154;fill-opacity:1;fill-rule:nonzero;stroke:none"
             d="m 3026.27,3115.8 c 21.92,-8.67 45.83,-10.49 67.48,-20.48 51.59,79.91 76.98,169.86 106.93,260.61 8.75,26.58 12.44,53.71 16.61,81.43 2.73,18 12.96,35.96 3.09,54.58 -73.82,-95.14 -158.47,-180.56 -217.44,-288.01 -9.02,-16.43 11.68,-32.64 6.4,-50.71 -2.89,-9.85 -17.06,-15.16 -17.6,-20.36 -1.68,-15.91 21.8,-12.02 34.53,-17.06" /><path
             id="path84"
             style="fill:#b49154;fill-opacity:1;fill-rule:nonzero;stroke:none"
             d="m 3275.55,3401.16 c 11.78,-1.65 26.73,-9.92 31.89,-5.67 13.32,10.96 -1.87,40.46 -14.11,55.35 -1.63,2.02 -9.63,3.82 -12.46,-2.21 -0.9,-1.93 -0.44,-4.44 -0.51,-6.71 -22.44,4.9 -41.54,-4.56 -58.32,-19.21 -1.83,-1.56 -2.01,-7.33 -0.32,-9.03 14.72,-14.88 35.22,-9.94 53.83,-12.52" /><path
             id="path86"
             style="fill:#b49154;fill-opacity:1;fill-rule:nonzero;stroke:none"
             d="m 3288.67,3476.08 c -7.44,11.93 -19.75,12.66 -22.91,0.3 -2.51,-9.8 8.12,-21.82 18.15,-16.59 5.05,2.62 9.91,8.03 4.76,16.29" /><path
             id="path88"
             style="fill:#b49154;fill-opacity:1;fill-rule:nonzero;stroke:none"
             d="m 3228.99,3355.39 c 8.47,4.24 14.57,12.39 21.64,19 -7.7,7.08 -23.07,13.75 -29.3,3.62 -6.61,-10.65 -15.03,-26.31 -10.27,-34.99 5.12,-9.43 10.16,8.48 17.93,12.37" /><path
             id="path90"
             style="fill:#b49154;fill-opacity:1;fill-rule:nonzero;stroke:none"
             d="m 3287.7,3355.98 c 3.35,0.83 5.16,-1.19 6.73,-3.64 6.52,4.45 4.83,12.28 2.91,16.47 -3.44,7.4 -12.39,6.53 -19.43,1.21 3.87,-4.26 8.54,-7.95 9.79,-14.04" /><path
             id="path92"
             style="fill:#b49154;fill-opacity:1;fill-rule:nonzero;stroke:none"
             d="m 3347.83,3302.57 c 15.09,-100.6 11.79,-202.16 61.79,-290.02 8.25,51.84 6.84,104.34 -0.51,157.23 -0.99,7.01 -21.63,7.61 -21.59,11.52 0.42,30.15 18.62,57.97 11.85,92.39 -5.99,30.49 -10.25,58.8 -14.09,89.47 -4.98,39.47 -0.41,77.59 -9.33,116.16 -1.57,6.79 -2.28,15.43 -7.91,21.29 -11.33,-38.81 11.04,-78.8 -2.67,-115.72 -4.71,-12.72 6.34,-29.34 -9.44,-38.08 -3.88,98.58 -2.12,197.38 -17.32,295.3 -3.98,-6.25 -12.47,-12.48 -12.14,-16.47 9.08,-109.16 4.74,-212.37 21.36,-323.07" /><path
             id="path94"
             style="fill:#b49154;fill-opacity:1;fill-rule:nonzero;stroke:none"
             d="m 3311.33,3196.41 c -1.66,-9.88 -9.6,-16.43 -12.22,-26.78 -2.63,-10.42 -14.29,-15.18 -19.42,-24.05 -9.86,-17.13 -18.86,-33.81 -31.37,-48.78 -26.2,-31.34 -54.74,-54.54 -79.7,-87.98 -0.66,-0.86 -0.36,8.91 0.35,7.86 5.59,-8.1 -15.33,-19.37 -6.87,-19.11 42.03,1.21 73.6,40.95 115.19,53.78 -43.65,-41.95 -107.77,-65.99 -134.42,-120.26 -3.67,-7.42 -9.49,-17.9 -6.17,-28.6 3.3,-10.64 18.62,-9.39 29.13,-4.99 -11.78,-14.84 -35.19,-18.35 -40.67,-36.74 -12,-40.46 -24.31,-79.77 -23.04,-122.13 37.97,34.71 82.76,60.19 123.08,91.75 -21.48,-45.46 -70.7,-62.25 -101.08,-100.63 -12.54,-15.83 -29.54,-38.63 -20.92,-59.7 60.67,39.38 133.45,82.89 207.5,54.6 29.48,63.76 33.92,136.03 19.98,203.95 -1.83,8.95 -28.17,-12.41 -29.4,-4.06 -3.75,25.2 40.56,14.76 35.4,45.24 -0.45,2.76 -3.38,5.32 -6.06,3.37 -49.44,-36.22 -78.46,-84.38 -137.89,-90.27 43.98,47.88 103.43,76.31 144.89,127.84 8.62,10.67 7.6,27.39 -5.05,42.68 -42.38,-43.88 -79.95,-99.1 -144.7,-112.09 71.82,57.21 134.83,135.39 142.58,173.46 6.06,29.83 6.5,55.3 -19.12,81.64" /><path
             id="path96"
             style="fill:#b49154;fill-opacity:1;fill-rule:nonzero;stroke:none"
             d="m 3277.83,3181.86 c 11.35,17.65 24,34.46 27.55,53.91 2.57,14.16 -0.5,31.04 -9.98,44.55 -27.08,-33.42 -41.45,-73.9 -62.05,-110.95 6.48,50.93 40.39,89.94 55.25,138.86 1.44,4.73 -7.95,1.5 -9.13,6.91 -37.27,-37.52 -45.2,-91.37 -73.15,-134.57 11.04,49.43 28.8,95.6 48.78,142.51 6.73,15.79 -13.78,17.4 -21.99,12.71 -13.76,-7.82 -21.74,-23.13 -25.12,-38.98 -17.19,-80.25 -34.58,-155.21 -42.59,-234.84 -0.22,-2.13 4.45,-6.48 5.35,-6.06 52.29,24.49 76.66,78.61 107.08,125.95" /><path
             id="path98"
             style="fill:#b49154;fill-opacity:1;fill-rule:nonzero;stroke:none"
             d="m 2621.6,3409.93 c 21.92,-20.43 42.07,-40.61 67.22,-55.88 31.33,-19.01 59.02,-39.7 90.41,-58.12 11.87,-6.96 23.64,-14.16 35.24,-21.39 15.91,-9.96 35.76,-29.77 23.24,-50.54 28.71,-18.95 52.1,-43.87 76.49,-67.72 1.99,7.15 18.61,0.04 12.39,8.59 -20.49,28.15 -41.41,52.67 -63.83,79.19 -2.04,2.42 0.76,5.84 3.27,5.87 30.07,0.51 38.68,-42.68 67.1,-51.91 6.61,-2.13 18.09,3.57 18.47,8.48 2.05,26.52 -31.09,47.45 -54.61,62.62 -8.19,5.28 -18.52,-5.37 -26.4,-0.7 -31.57,18.76 -56.15,43.74 -87.63,63.42 -35.15,21.96 -55.98,51.64 -78.08,85.92 -24.42,37.82 -47.28,69.99 -68.13,108.54 -3.37,6.23 1.99,18.77 -1.74,21.38 -44.55,31.15 -104.15,38.01 -151.92,12.99 -1.47,-0.78 -2.57,-7.6 2.63,-9.03 24.13,-6.55 48.54,-3.37 71.44,-13.06 -10.42,-10.91 -36.89,-5.99 -34.03,-14.36 16.26,-47.37 60.26,-78.66 98.47,-114.29" /><path
             id="path100"
             style="fill:#b49154;fill-opacity:1;fill-rule:nonzero;stroke:none"
             d="m 2533.22,3446.68 c 6.99,-8.54 15.16,-15.71 24.07,-19.97 3.24,-1.54 4.21,6.48 2.49,8.3 -23.28,24.64 -37.14,53.42 -65.53,74.56 -2.76,2.06 -6.48,-0.95 -5.97,-2.65 7.55,-25.22 28.62,-40.24 44.94,-60.24" /><path
             id="path102"
             style="fill:#b49154;fill-opacity:1;fill-rule:nonzero;stroke:none"
             d="m 2779.8,3232.9 c 7.13,-6.24 18.13,-12.12 27.2,-4.42 -17.87,11.66 -30.8,27.79 -47.08,42.06 -2.14,1.83 -9.97,1.26 -8.54,-1.85 6.22,-13.64 16.38,-25.26 28.42,-35.79" /><path
             id="path104"
             style="fill:#b49154;fill-opacity:1;fill-rule:nonzero;stroke:none"
             d="m 2801.41,3146.61 c 1.7,-7.1 6.58,-15.88 12.55,-16.24 6.17,-0.38 10.45,9.89 12.84,15.69 3.11,7.65 -11.14,24.11 -1.18,23.94 27.3,-0.46 43.82,-31.98 67.71,-45.81 7.23,-4.2 12.57,8.87 9.23,14.89 -16.63,29.96 -52.69,38.79 -72.09,61.92 -7.23,8.62 -30.11,-10.93 -45.48,3.51 -0.53,0.5 -3.95,-2.66 -2.92,-5.99 2.63,-8.57 14.88,-11.63 14.67,-17.66 -0.48,-12.32 1.64,-21.75 4.67,-34.25" /><path
             id="path106"
             style="fill:#b49154;fill-opacity:1;fill-rule:nonzero;stroke:none"
             d="m 2870.08,3099.24 c 21.32,6.32 -14.11,23.08 -25.52,31.69 -2.73,2.05 -6.11,-0.52 -6.14,-2.9 -0.24,-18.48 20.87,-31.99 31.66,-28.79" /><path
             id="path108"
             style="fill:#b49154;fill-opacity:1;fill-rule:nonzero;stroke:none"
             d="m 2818.08,3049.87 c 6.01,9.49 17.44,16.27 18.76,25.72 0,0 -14.46,13.19 -24,22.48 -18.88,-23.55 -37.48,-48.3 -56.92,-74.88 -3.94,-5.41 17.47,-35.89 17.47,-35.89 22.26,24.96 30.39,39.92 44.69,62.57" /><path
             id="path110"
             style="fill:#b49154;fill-opacity:1;fill-rule:nonzero;stroke:none"
             d="m 2966.03,3174.92 c 5.21,-8.24 15.11,-8.66 16.15,-0.28 1.1,8.76 -3.79,17.87 -11.92,23.95 -2.76,2.05 -5.86,-0.33 -6.29,-2.94 -1.16,-6.88 -2.48,-13.59 2.06,-20.73" /><path
             id="path112"
             style="fill:#b49154;fill-opacity:1;fill-rule:nonzero;stroke:none"
             d="m 3772.59,4269.92 c 10.78,11.88 20.25,14.95 33.61,8.1 1.3,-0.69 4.98,3.95 2.83,5.26 -10.32,6.37 -18.1,26.11 -23.78,19.63 -138.16,-157.31 -256.26,-315.14 -393.57,-480.17 -22.51,-27.06 -44,-49.93 -65.44,-78.29 -30.73,-40.59 -57.7,-75.96 -89.58,-114.34 -104,-125.19 -197.07,-234.09 -296.12,-366.56 -4.29,-5.74 9.36,-12.15 14.36,-19.55 167.63,209.94 322.88,415.7 499.3,632.17 24.1,29.55 43.97,57.99 68.21,87.52 86.85,105.72 158.91,205.53 250.18,306.23" /><path
             id="path114"
             style="fill:#b49154;fill-opacity:1;fill-rule:nonzero;stroke:none"
             d="m 2595.22,3650.33 c 17.46,-4.48 33.54,-9.55 51.23,-5.14 -36.06,19.5 -76.62,20.38 -116.24,31.47 -29.55,8.27 -60.21,10.53 -91.31,12.74 -2.33,0.15 -5.28,-3.56 -3.17,-5.73 9.39,-9.67 23.28,-0.64 33.2,-5.93 1.34,-0.72 1.32,-7.4 -0.39,-8.54 -20.01,-13.12 -40.45,-22.96 -51.78,-43.85 -1.57,-2.88 -0.93,-10.3 1.78,-8.77 26.86,15.09 46.94,42.07 77.17,37.9 6.72,-0.92 15.58,-9.05 23.95,-14.92 2.84,-1.99 5.69,0.27 6.42,2.97 1.83,6.74 -9.46,14.58 -5.82,14.71 24.43,0.81 49.44,-0.38 74.96,-6.91" /><path
             id="path116"
             style="fill:#b49154;fill-opacity:1;fill-rule:nonzero;stroke:none"
             d="m 2620.08,3667.74 c 9.7,-2.75 20.19,-4.74 30.43,-1.86 2.74,0.77 5.21,3.32 3.44,6.28 -2.54,4.25 -5.99,9.26 -9.77,9.77 -33.33,4.63 -63.97,18.63 -98.71,14.27 -2.67,-0.34 -5.41,-4.33 -3.27,-5.57 24.05,-14.14 51.09,-15.28 77.88,-22.89" /><path
             id="path118"
             style="fill:#b49154;fill-opacity:1;fill-rule:nonzero;stroke:none"
             d="m 3176.34,3620.03 c 4.08,-9.52 3.03,-28.06 12.06,-24.65 41.85,15.85 22.91,69.47 15.16,106.16 -13.69,-15.5 -30.76,-31.85 -33.06,-50.52 -0.98,-8 1.45,-20.69 5.84,-30.99" /><path
             id="path120"
             style="fill:#b49154;fill-opacity:1;fill-rule:nonzero;stroke:none"
             d="m 3158.64,3603.64 c -1.27,9.86 4.13,24.11 -9.12,26.48 -2.9,0.53 -9.44,-5.58 -9.05,-8.42 4.57,-33.03 -13.27,-61.2 -6.47,-92.16 2.2,-9.99 7.24,2.11 7.84,3.3 8.22,16.36 4.98,36.1 9.83,53.98 6.17,-4.27 6.26,-10.31 6.93,-17.29 0.22,-2.59 3.72,-4.79 5.93,-7.16 9.78,12.87 -4.11,27.35 -5.89,41.27" /><path
             id="path122"
             style="fill:#b49154;fill-opacity:1;fill-rule:nonzero;stroke:none"
             d="m 3110.13,3539.75 c 10.71,23.44 22.66,45.24 21.81,71.73 -90.69,-99.76 -183.8,-192.15 -261.09,-308.24 -3.07,-4.6 17.02,-8.55 22.72,-3.98 60.68,48.55 109.04,102.19 160.26,161.45 21.71,25.08 42.33,48.42 56.3,79.04" /><path
             id="path124"
             style="fill:#b49154;fill-opacity:1;fill-rule:nonzero;stroke:none"
             d="m 3037.28,3950.54 c 53.49,-55.29 89.7,-119.85 130.84,-182.66 10.39,50.88 -8.27,103.04 -8.42,154.5 23.58,-33.83 26.33,-76.48 47.59,-111.3 9.87,40.6 3.15,85.28 -9.47,123.69 -9.45,-4.99 -1.91,-20.46 -14.51,-23.48 -0.6,37.37 15.2,86.89 -18.43,111.24 -44.31,32.06 -85.93,58.89 -125.95,95.12 -7.36,6.66 -19.12,3.15 -27.54,0.87 -11.4,-3.09 -4.39,23.71 -15.37,23.16 -17.85,-0.9 -33.56,-23.16 -51.5,-17.56 -37.57,11.67 -73.54,24.74 -109.14,41.83 -3.02,1.45 -10.24,0.07 -8.9,-1.43 25.29,-28.16 37.15,-61.52 37.04,-95.05 -0.27,-87.37 -23.61,-171.2 -40.74,-259.39 -11.32,-58.32 -6.61,-116.23 1.55,-174.38 34.47,-25.31 82.15,-19.11 114.88,-48.48 -39.99,-3.31 -80.02,-1.57 -120.04,-2.76 17.84,-33.63 32.41,-74.65 68.84,-91.44 -16.25,-8.74 -43.95,-1.59 -47.93,-16.43 -7.7,-28.69 -5.94,-61.86 6.53,-91.84 45.79,48.69 83.56,103.97 128.6,153.27 -26.68,86.23 -70.94,164.15 -82.48,256.61 -4.8,38.33 -10.17,75.1 -7.7,113.14 14.55,-47.29 24.82,-95.66 44.6,-141.35 25.47,-58.89 52.62,-115.51 88.76,-168.2 32.9,29.14 60.73,62.89 88.98,96.34 -92.08,59.91 -170.21,154.91 -186.22,266.81 5.2,-8.86 7.85,-18.69 13.59,-27.29 28.75,-42.96 57.64,-79.74 93.07,-114.85 24.85,-24.65 34.05,-61.1 67.5,-76.28 -4.07,50.55 -48.58,82.46 -56,132.35 -0.05,0.32 3.98,-1.38 5.56,-3.84 2.44,1.57 5.13,3.6 3.34,6.55 -44.36,72.86 -98.8,128.61 -147.29,193.7 50.98,-34.21 93.07,-76.42 136.36,-121.17" /><path
             id="path126"
             style="fill:#b49154;fill-opacity:1;fill-rule:nonzero;stroke:none"
             d="m 2808.83,4054.81 c 10.11,40.46 -13.48,88.11 -55.6,101.49 -0.61,0.19 -0.71,5.01 0.32,5.53 14.95,7.83 35.53,5.06 43.97,20.13 0.52,0.86 -3.83,6.01 -5.49,5.64 -31.69,-6.94 -61.33,-7.87 -92.99,-14.11 -40.54,-8.01 -51.2,-48.88 -76.75,-76.42 -13.65,-14.74 -12.02,-38.69 -23.13,-54.43 -50.78,-71.99 -56.43,-147.47 -82.37,-225.55 -0.93,-2.76 5.35,-8.25 11.95,-6.81 -11.08,-23.05 -25.87,-44.04 -36.57,-67.29 29.06,-7.86 59.88,-3.6 88.65,-13.31 -44.94,-21.11 -95.53,-6.58 -141.28,-22.58 4.64,-4.71 11.62,-6.97 16.69,-6.19 11.9,1.84 23.49,5.26 34.32,2.9 40.71,-8.86 77.17,10.95 116.75,3.45 17.26,-3.25 35.59,-20.84 54.62,-11.18 -14.07,18.01 -34.82,29.05 -57.14,32.79 3.53,11.06 16.94,14.08 20.23,23.63 1.32,3.83 -6.04,4.38 -8.57,2.7 -16.11,-10.56 -32.81,-16.5 -48.61,-4.52 5.44,6.01 10.69,13.37 17.99,15.58 25.49,7.7 64.28,-3.47 75.58,20.49 29.36,62.21 21.24,134.7 28.69,203 1.63,14.82 2.75,29.95 7.36,44.38 2.14,-17.04 -6.59,-48.4 4.16,-46.47 43.43,7.87 18.41,72.09 28.87,110.44 7.23,-3.93 0.51,-17.31 5.5,-15.38 14.17,5.52 8.98,30.34 26.13,38.3 -26.33,-91.39 -24.62,-187.4 -47.24,-279.39 0.34,29.81 4.84,59.78 -3.81,89.21 -21.52,-79.34 -25.8,-160.86 -31.48,-242.26 -0.15,-2.19 3.79,-6.37 5.71,-6.12 7.05,0.94 13.57,5.94 17.29,12.44 17.82,31.1 29.42,63.72 35.77,98.27 9.83,53.56 22.09,105.8 20.19,160.2 -1.13,31.78 2.52,64.67 14.81,95.29 4.64,-23.86 -4.37,-49.17 7.8,-72.22 7.83,20.93 6.58,42.83 9.89,64.67 1.31,8.67 5.5,-3.31 9.59,-0.4 5.17,3.67 7.44,11.11 8.2,14.1" /><path
             id="path128"
             style="fill:#b49154;fill-opacity:1;fill-rule:nonzero;stroke:none"
             d="m 2848.72,4059.72 c -3.31,23.73 -3.51,47.66 -21.34,65.92 -2.02,-30.93 3.49,-60.79 14.9,-89.24 0.83,-2.07 5.15,0.24 5.72,2.93 1.47,6.82 1.66,13.52 0.72,20.39" /><path
             id="path130"
             style="fill:#b49154;fill-opacity:1;fill-rule:nonzero;stroke:none"
             d="m 3185.11,4041.74 c 4.05,-11.96 1.18,-35.78 14.59,-32.62 19.25,4.53 19.52,32.51 36.44,44.28 -23.64,23.28 -40.3,51.54 -66.6,73.51 -4.92,4.1 -12.42,-2.14 -11.8,-5.37 5.23,-28.4 18.25,-52.83 27.37,-79.8" /><path
             id="path132"
             style="fill:#b49154;fill-opacity:1;fill-rule:nonzero;stroke:none"
             d="m 3243.5,3974.28 c 10.88,-46.98 3.27,-90.47 -8.05,-135.97 -10.69,-43.02 -33.29,-80.49 -63.41,-113.9 -78.73,-87.32 -148.85,-168.44 -225.49,-258.35 -38.36,-44.98 -74.34,-85.91 -104.72,-136.25 -2.96,-4.92 4.17,-6.49 5.98,-10.19 128.64,133.48 242.86,268.95 362.99,420.06 33.09,41.63 52.03,86.99 62.19,137.99 10.18,50.92 -8.61,99.52 -20.67,147.77 -28.49,-4.71 -12.76,-34.16 -8.82,-51.16" /><path
             id="path134"
             style="fill:#b49154;fill-opacity:1;fill-rule:nonzero;stroke:none"
             d="m 3214.35,3943.91 c 8.02,-13.68 6.08,-30.21 13.12,-44.41 5.32,19.31 3.6,28.62 3.73,40.91 0.18,16.28 -1.72,30.54 -8.13,47.14 -5.78,15.02 -19.84,-24.67 -8.72,-43.64" /><path
             id="path136"
             style="fill:#b49154;fill-opacity:1;fill-rule:nonzero;stroke:none"
             d="m 3312.06,3968.58 c -7.78,21.91 -14.28,47.15 -35.79,59.27 -2.98,1.68 -6.79,-0.8 -6.19,-2.93 14.09,-50.77 24.18,-89.19 19.09,-141.69 -2.02,-20.49 -5.82,-41.97 -14.39,-62.17 -3.87,-9.07 -4.56,-17.92 -1.22,-25.11 9.75,-20.98 4.3,-56.56 24.01,-58.28 12.73,-1.09 29.55,24 32.84,42.16 6.07,33.73 0.08,67.61 -3.76,102.63 -3.27,29.65 -4.61,58.03 -14.59,86.12" /><path
             id="path138"
             style="fill:#b49154;fill-opacity:1;fill-rule:nonzero;stroke:none"
             d="m 3055.91,4687.28 c 39.29,-7.88 84.04,-30.37 118.8,-55.74 0.9,-0.67 -5.27,14.16 -6.92,16.33 -11.4,15.13 -26.61,25.46 -46.28,42.82 29.69,-6.02 54.64,-15.39 89.37,-39.98 -2.34,1.74 -4.17,8.95 -7.93,16.63 36.97,-20.64 62.21,-52.61 94.22,-80.76 1.83,-1.62 3.42,5.63 2.15,8.69 -19.99,48.02 -58.66,79.55 -99.46,111.89 -31.67,25.1 -69.71,37.19 -107.37,39.69 -63.46,4.17 -130.71,10.99 -191.69,-15.77 -17.67,-7.76 -39.33,-22.5 -85.25,-69.78 -20.26,-20.84 -37.42,-45.38 -41.61,-72.94 -0.52,-3.32 -4.3,-22.3 -3.83,-21.63 24.85,35.72 62.36,73.93 100.66,90.13 17.1,7.21 39.96,14.18 69.28,12.6 -9.97,11.06 -32.14,11.84 -51.78,15.49 53.33,27.23 111.5,13.57 167.64,2.33" /><path
             id="path140"
             style="fill:#b49154;fill-opacity:1;fill-rule:nonzero;stroke:none"
             d="m 3115.75,4612.83 c -24.44,11.61 -58.21,16.87 -70.74,-9.46 -4.06,-8.57 -8.14,-19.31 -16.48,-26.03 5.69,-6.88 13.63,-2.59 20.42,-4.11 -5.45,-23.24 -41.37,-20.79 -46.24,-40.22 -1.18,-4.64 18.02,4.17 18.33,-0.23 1.13,-15.39 -11.3,-32.62 -24.44,-41.17 -7.27,-4.74 -21.91,-0.87 -24.92,-12 -1.57,-5.86 2.79,-13.13 1.41,-20.3 -16.65,10.66 -30.87,21.79 -37.92,41.75 -0.71,1.99 -13.32,1.82 -13.55,0.77 -8.27,-37.08 28.42,-81.53 67.88,-63.66 15.54,-36.93 34.91,-74.39 69.91,-96.19 29.34,-18.27 120.38,-20.18 124.76,1.4 4.79,23.7 -31.64,13.32 -48.05,16.53 0.01,6.65 9.1,8.01 19.4,15.3 8.52,6.03 19.24,2.94 22.75,2.87 5.22,-0.13 8.59,12.67 1.31,15.07 -7.22,2.38 -15.84,2.81 -23.46,0.93 -5.07,-1.26 -10.59,-4.72 -16.33,-7.61 -8.28,-4.17 -16.97,-7.12 -25.28,-0.54 10.81,6.89 16.3,13.2 19.6,15.09 15.5,8.92 21.65,6.06 42.8,4.59 1.81,-0.14 9.27,3.42 6.58,8.49 -8.32,15.53 -30.33,9.61 -38.45,23.08 -4.91,8.1 1.54,32.07 16.63,27.57 1.15,-0.33 -1.78,-10.94 3.15,-11.35 18.22,-1.47 57.57,-4.77 51.02,10.66 -7.64,18.05 -25.22,43.07 -37.4,55.18 -13.86,13.79 -22.12,-37.92 -56.48,-23.32 -10.47,4.47 -18.57,15.26 -27.78,18.73 -11.11,4.17 -22.9,5.38 -29,17.17 -1.42,2.71 -1.42,7.63 0.4,9.46 24.91,25.17 65.21,41.3 99.9,18.47 1.02,-0.68 4.68,2.83 2.84,5.76 -13.61,21.28 -30.13,36.66 -52.57,47.32" /><path
             id="path142"
             style="fill:#b49154;fill-opacity:1;fill-rule:nonzero;stroke:none"
             d="m 3128.41,4546.36 c 7.11,-1.07 8.82,7.82 8.15,8.41 -8.33,7.51 -43.4,-9.48 -50.15,-17.08 16.32,-15.72 14.79,12.7 42,8.67" /><path
             id="path144"
             style="fill:#b49154;fill-opacity:1;fill-rule:nonzero;stroke:none"
             d="m 2945.58,4357.23 c -25.5,-17.97 -3.77,-54.28 -6.83,-81.2 34.59,-24.81 69.9,-51.39 108.81,-64.2 6.94,-2.29 17.75,26.92 13.32,33.41 -28.88,42.4 -51.75,84.21 -87.05,119.76 -3.72,3.78 -19.4,-1.54 -28.25,-7.77" /><path
             id="path146"
             style="fill:#b49154;fill-opacity:1;fill-rule:nonzero;stroke:none"
             d="m 2947.67,4244.43 c -23.26,15.29 -48.84,28 -73.39,17.66 -24.17,-10.15 -44.12,-28.76 -61.1,-50.3 22.38,-19.21 52.45,-18.21 77.43,-30.81 17.88,-9.01 33.92,-26.73 50.99,-28.36 22.33,-2.1 42.92,31.53 64.63,24.61 9.43,-2.96 1.51,-30.58 9.18,-38.16 13.71,-13.59 44.92,2.15 66.3,8.71 -42.12,35.81 -86.43,65.33 -134.04,96.65" /><path
             id="path148"
             style="fill:#b49154;fill-opacity:1;fill-rule:nonzero;stroke:none"
             d="m 3020,4614.82 c 1.95,3.9 15.49,9.74 4.58,13.18 -47.47,14.89 -104.6,2.69 -139.55,-33.86 10.63,-5.29 18.75,5.26 27.87,4.35 34.77,-3.42 55.43,-26 88.56,-10.3 9.76,4.64 13.9,17.14 18.54,26.63" /><path
             id="path150"
             style="fill:#b49154;fill-opacity:1;fill-rule:nonzero;stroke:none"
             d="m 2961.19,4566.63 c -34.51,5.4 -73.7,17.91 -101.71,-8.99 -1.99,-1.94 0.81,-5.69 2.31,-5.21 35.07,10.81 67.74,-4.88 101.8,0.12 7.69,1.12 21.02,2.94 20.05,10.07 -1.12,8.03 -14.16,2.74 -22.45,4.01" /><path
             id="path152"
             style="fill:#b49154;fill-opacity:1;fill-rule:nonzero;stroke:none"
             d="m 2864.66,4520 c 9.62,7.27 19.61,13.25 26.7,22.34 1.53,1.94 -5.22,3.33 -7.64,1.9 -15.61,-9.18 -30.77,-17.19 -40.86,-32.38 -0.61,-0.91 2.51,-4.13 5.2,-2.58 5.86,3.44 11.15,6.61 16.6,10.72" /><path
             id="path154"
             style="fill:#b49154;fill-opacity:1;fill-rule:nonzero;stroke:none"
             d="m 2869.38,4488.9 c 8.64,2.14 29.05,26.92 32.31,32.01 0.61,0.96 -2.8,4.32 -5.07,2.5 -8.45,-6.72 -39.23,-29.18 -48.06,-34.5 -18.76,-11.3 -40.83,-38.05 -30.92,-62.12 14.44,23.67 21.27,54.48 51.74,62.11" /><path
             id="path156"
             style="fill:#b49154;fill-opacity:1;fill-rule:nonzero;stroke:none"
             d="m 2882.22,4424.76 c 11.32,8.71 27.93,13.47 27.82,29.67 -0.02,1.9 -3.63,8.78 -7.43,5.82 -15.87,-12.33 -33.28,-21.62 -44.02,-38.54 -7.39,-11.63 -14.84,-28.75 -8.64,-42.28 10.45,15.32 16.35,33.03 32.27,45.33" /><path
             id="path158"
             style="fill:#b49154;fill-opacity:1;fill-rule:nonzero;stroke:none"
             d="m 2906.41,4410.82 c 10.25,4.49 19.03,11.66 24.68,20.92 0.42,0.68 -3.15,3.76 -5.11,5.89 -7.7,-10.14 -27.08,-7.84 -27.85,-23.74 -0.18,-3.8 4.96,-4.52 8.28,-3.07" /><path
             id="path160"
             style="fill:#b49154;fill-opacity:1;fill-rule:nonzero;stroke:none"
             d="m 2867.2,4471.75 c -1.07,-3.04 -1.93,-0.14 -3.44,-4.51 -1.51,-4.38 -4.96,-9.65 -6.37,-11.16 -1.39,-1.48 -6.77,-6.89 -7.28,-10.16 -0.51,-3.24 -8.23,-9.54 -8.51,-12.42 -0.28,-2.88 -2.96,-7.41 4.01,-1.12 6.76,6.15 8.49,5.7 15.27,12.59 7.5,7.64 7.36,6.95 8.13,12.9 0.7,5.31 1.1,9.92 4.72,13.46 4,3.91 4.68,7.36 4.96,9.67 0.27,2.3 -11.49,-9.25 -11.49,-9.25" /><path
             id="path162"
             style="fill:#a8d6f3;fill-opacity:1;fill-rule:nonzero;stroke:none"
             d="m 3033,2425.74 c 3.2,39.93 -6.17,78.85 6.34,120.06 4.36,14.3 0.46,29 -2.03,44.63 -2.68,16.67 -1.93,33.53 1.24,51.28 7.23,40.24 -6.19,79.66 -7.63,119.92 -47.28,-87.24 -62.81,-185.58 -109.95,-274.91 -12.92,-24.44 -15.98,-53.59 -26.47,-79.92 -9.31,-23.38 -17.63,-45.95 -37.16,-65.88 -9.6,-9.74 -7.47,-28.71 -14.77,-41.73 -25.37,-45.24 -48.13,-91.48 -49.84,-142.85 -0.04,-1.37 -0.62,-8.89 4.71,-10.43 -31.11,-96.33 -79.9,-184.29 -100.91,-285.24 -0.85,-4.14 23.03,4.42 34.19,7.57 83.72,23.48 161.51,43.12 244.64,69.39 7.92,85.34 -27.84,180.41 25.56,261.99 23.73,36.26 1.83,85.1 18.94,127.03 3.47,8.47 10.71,14.17 17.47,20.08 -25.66,20.24 -6.42,52.98 -4.33,79.01" /><path
             id="path164"
             style="fill:#a8d6f3;fill-opacity:1;fill-rule:nonzero;stroke:none"
             d="m 2769.54,3484.36 c -15.6,29.17 -22.45,60.13 -31.29,92.02 -5.81,20.97 -25.25,34.26 -41.66,49.24 -3.92,3.57 -7.03,-3.06 -9.33,-6.18 -11.33,-15.36 1.77,-31.64 -2.9,-47.31 -4.71,-15.88 -20.87,-21.29 -30.51,-33.95 -2.36,-3.11 -2.62,-9.58 -0.42,-12.56 36.69,-49.72 58.53,-104.41 100.41,-147.97 33,22.06 34.58,71.43 15.7,106.71" /><path
             id="path166"
             style="fill:#a8d6f3;fill-opacity:1;fill-rule:nonzero;stroke:none"
             d="m 2683.54,2808.65 c -3.8,2.47 -14.56,6.78 -16.66,4.41 -10.45,-11.81 -3.93,-25.35 6.93,-35.14 8.8,-7.93 28.08,-20.74 31.94,2.09 3.07,18.21 -1.07,14.87 -22.21,28.64" /><path
             id="path168"
             style="fill:#a8d6f3;fill-opacity:1;fill-rule:nonzero;stroke:none"
             d="m 2673.96,2741.14 c 17.82,-1.38 24.02,13 26.16,22.78 -26,-21.03 -42.46,18.51 -51.29,6.38 -8.9,-12.22 15.17,-28.4 25.13,-29.16" /><path
             id="path170"
             style="fill:#b49154;fill-opacity:1;fill-rule:nonzero;stroke:none"
             d="m 2489.46,2454.51 c 39.03,95.03 90.92,199.89 135.96,292.27 0.76,1.56 -5.22,6.42 -8.54,9.94 -92.72,-123.88 -161.97,-266.68 -254.28,-400.51 -8.93,-12.92 -22.02,-30.95 -10.99,-41.27 23.46,-21.93 27.92,-23.89 50.47,-46.38 28.94,64.42 60.81,121.24 87.38,185.95" /><path
             id="path172"
             style="fill:#b49154;fill-opacity:1;fill-rule:nonzero;stroke:none"
             d="m 2462.61,1488.42 c -2.26,1.86 -9.85,1.62 -8.67,-2.03 3.59,-10.97 20.17,-14.05 24.21,-3.99 1.88,4.69 -9.86,1.36 -15.54,6.02" /><path
             id="path174"
             style="fill:#b49154;fill-opacity:1;fill-rule:nonzero;stroke:none"
             d="m 3025.36,1795.42 c 7.66,9.36 -5.93,8.52 -6.39,13.94 -12.23,-10.38 -20.95,-28.77 -12.8,-38.73 6.11,-7.44 6.31,-27.51 20.04,-22.21 7.53,2.9 14.48,19.87 4.58,24.84 -4.41,2.2 -9.85,7.38 -16.31,5.41 -1.66,9.02 6.46,11.37 10.88,16.75" /><path
             id="path176"
             style="fill:#b49154;fill-opacity:1;fill-rule:nonzero;stroke:none"
             d="m 3042.06,1788 c -0.38,-9.98 -1.04,-19.73 6.09,-27.62 10.46,11.18 -1.65,26.97 9.97,42.02 1.69,2.21 -7.58,3.07 -11.69,1.9 -9.47,-2.7 -4.05,-7.91 -4.37,-16.3" /><path
             id="path178"
             style="fill:#b49154;fill-opacity:1;fill-rule:nonzero;stroke:none"
             d="m 3029.75,1723.29 c 7.58,9.04 18.85,13.79 23.85,23.64 0.52,0.97 -3.48,4.25 -5.7,6.6 -12.97,-23.2 -51.11,-18.37 -55.89,-49.56 -0.32,-2.2 2.96,-4.99 5.92,-3.27 11.24,6.43 22.54,11.48 31.82,22.59" /><path
             id="path180"
             style="fill:#b49154;fill-opacity:1;fill-rule:nonzero;stroke:none"
             d="m 3016.21,1647.64 c 19.61,4.17 12.54,39.46 1.04,54.3 -4.62,5.95 -13.47,-3.89 -14.4,-8.79 -3.02,-15.89 -11.37,-50.76 13.36,-45.51" /><path
             id="path182"
             style="fill:#b49154;fill-opacity:1;fill-rule:nonzero;stroke:none"
             d="m 3027.39,1623.94 c -2.14,-21.66 -14.67,-43.39 -5.43,-64.25 0.82,-1.84 8.66,0.54 11.93,-1.75 12.79,-8.91 29.03,-23.78 44.52,-14.5 -12.28,15.41 -36.06,23.6 -39.65,39.96 -3.93,17.94 -4.36,41.74 14.4,58.16 5.85,5.11 -6.24,10.17 -7.67,16.33 -5.05,21.7 10.76,42.7 1.21,64.77 -1.15,2.68 -4.57,5.44 -5.87,3.29 -19.5,-31.95 -10.04,-67.68 -13.44,-102.01" /><path
             id="path184"
             style="fill:#b49154;fill-opacity:1;fill-rule:nonzero;stroke:none"
             d="m 2998.87,1562.87 c 11.58,4.89 27.88,32.76 18.42,42.75 -5.61,5.9 -21.05,2.62 -24.83,-4.94 -5.68,-11.37 -12.39,-45.76 6.41,-37.81" /><path
             id="path186"
             style="fill:#b49154;fill-opacity:1;fill-rule:nonzero;stroke:none"
             d="m 2953.88,1543.96 c -14.27,59.8 2.1,117.21 -6.54,175.31 -12.04,-14.78 -12.8,-33.5 -16.95,-51.21 -11.43,-48.78 -20.02,-94.21 -26.75,-142.7 -5.02,-36.07 37.24,-31.15 55.8,-20.55 16.97,9.72 -2.1,24.69 -5.56,39.15" /><path
             id="path188"
             style="fill:#b49154;fill-opacity:1;fill-rule:nonzero;stroke:none"
             d="m 3224.36,1585.36 c 29.72,14.53 60.52,14.9 92.58,18.48 -30.88,12.54 -65.2,10.16 -94.67,30.99 -4.85,3.4 -4.58,12.62 -10.06,12.66 -30.99,0.36 -59.62,-16.34 -79.21,-38.15 -6.13,-6.85 -1.38,-17.75 -3.44,-26.18 -3.03,-12.27 -19.23,-19.6 -21.15,-30.76 -1,-5.87 11.65,-4.15 17.94,-2.74 4.96,1.1 10.15,5.84 14.73,7.53 27.94,10.24 55.72,14.7 83.28,28.17" /><path
             id="path190"
             style="fill:#b49154;fill-opacity:1;fill-rule:nonzero;stroke:none"
             d="m 3260,1537.69 c 38.81,-14.35 79.66,-15 118.96,-11.38 22.92,2.11 52.87,-16.78 67.32,9.03 2.94,5.27 -8.57,13.58 -14.95,14.91 -45.99,9.59 -81.47,41.93 -128.81,34.92 -27.24,-4.03 -66.17,-3.37 -72.67,-30.53 -2.17,-9 18.09,-12.5 30.15,-16.95" /><path
             id="path192"
             style="fill:#b49154;fill-opacity:1;fill-rule:nonzero;stroke:none"
             d="m 3456.47,1475.72 c -2.36,-2.29 -4.69,-4.43 -7.07,-6.63 15.62,-8.53 39.84,-7.32 46.37,6.09 3.52,7.26 -2.99,21.33 -11.13,21.49 -10.68,0.21 -19.2,-12.33 -28.17,-20.95" /><path
             id="path194"
             style="fill:#b49154;fill-opacity:1;fill-rule:nonzero;stroke:none"
             d="m 2544.22,1665.36 c 16.21,5.66 29.03,17.43 42.04,28.99 2.27,2 -1.51,6.27 -2.23,5.74 -22.6,-16.84 -50.11,-22.22 -76.15,-15.57 -8.27,2.11 -22.66,5.94 -20.26,19.61 18.66,-8.41 42.46,-20.58 60.86,-4.76 1.82,1.55 2.65,8.12 -2.52,9.16 -23.52,4.71 -48.3,19.5 -66.25,12.35 -19.15,-7.59 -1.03,-41.7 17.43,-53.93 15.37,-10.2 30.08,-7.52 47.08,-1.59" /><path
             id="path196"
             style="fill:#b49154;fill-opacity:1;fill-rule:nonzero;stroke:none"
             d="m 2563.97,1724.88 c 2.67,0.89 6.55,2.28 5.95,3.4 -6.83,12.68 -25.18,13.75 -36.43,14.19 -1.93,0.08 -9.63,-3.75 -6.45,-8.33 7.78,-11.24 24.13,-13.47 36.93,-9.26" /><path
             id="path198"
             style="fill:#b49154;fill-opacity:1;fill-rule:nonzero;stroke:none"
             d="m 2519.03,1741.8 c 3.71,2.41 10.96,0.15 10.52,5.37 -0.22,2.58 -4.08,6.56 -5.74,6.21 -15.28,-3.36 -34.52,1.02 -41.86,-14.77 12.83,-3.41 26.11,-4.02 37.08,3.19" /><path
             id="path200"
             style="fill:#b49154;fill-opacity:1;fill-rule:nonzero;stroke:none"
             d="m 2508.87,1621.34 c 3.05,-1.58 6.63,1.67 6.09,2.48 -7.56,10.87 -20,15.61 -32.93,14.73 -2.54,-0.21 -6.62,-4.35 -6.19,-5.65 5.05,-15.19 22.11,-5.89 33.03,-11.56" /><path
             id="path202"
             style="fill:#b49154;fill-opacity:1;fill-rule:nonzero;stroke:none"
             d="m 2465.85,1663.62 c 2.01,2.08 4.64,3.62 3.32,6.81 -1.1,2.66 -3.54,5.29 -6.32,3.37 -4.39,-3.02 -7.42,-7.88 -7.08,-13.08 0.17,-2.56 3.2,-5.22 6.02,-3.34 1.98,1.33 2.3,4.42 4.06,6.24" /><path
             id="path204"
             style="fill:#b49154;fill-opacity:1;fill-rule:nonzero;stroke:none"
             d="m 2477.87,1603.03 c -30.27,13.57 -41.41,-17.82 -57.37,-32.83 -5.77,-5.44 -16.87,1.12 -22.17,-1.81 -10.58,-5.81 -29.65,-14.75 -23.4,-26.91 12.18,-23.81 43.17,-26.31 68.82,-32.02 39.81,-8.89 91.91,-25.21 121.64,8.25 1.61,1.81 -7.49,7.48 -12.04,8.21 -20.3,3.3 -42.44,8.36 -56.3,24.56 -2.8,3.28 -2.28,13.24 0.42,14.83 17.48,10.07 30.75,-16.8 50.17,-10.57 -19.1,21.88 -43.41,36.47 -69.77,48.29" /><path
             id="path206"
             style="fill:#b49154;fill-opacity:1;fill-rule:nonzero;stroke:none"
             d="m 2477.4,1398.34 c 40.21,6.1 80.74,37.19 67.65,81.1 -31.49,-10.39 -65.74,-0.33 -95.16,-10.09 -21.91,-7.29 -4.28,-62.55 -36.51,-51.74 -22.44,7.52 -47.16,33.9 -36.61,55.85 2.63,5.47 19.35,-4.78 30.85,-5.87 2.28,-0.22 5.31,4.05 3.16,5.44 -14.98,9.51 -32.62,24.31 -45.47,19.4 -19.22,-7.31 -11.83,-36.31 -3.91,-53.3 18.9,-40.56 70.25,-47.73 116,-40.79" /><path
             id="path208"
             style="fill:#b49154;fill-opacity:1;fill-rule:nonzero;stroke:none"
             d="m 2470.23,1381.63 c -20.46,-9.28 -69.07,10.66 -58.21,-11.88 14.19,-29.41 60.7,-12.25 91.13,-4.33 12.68,3.3 21.66,13.74 28.38,25.5 1.72,2.96 -1.32,6.64 -2.6,6.05 -19.38,-8.99 -40.26,-7.01 -58.7,-15.34" /><path
             id="path210"
             style="fill:#b49154;fill-opacity:1;fill-rule:nonzero;stroke:none"
             d="m 3022,1925.68 c 3.83,6.73 10.2,13.96 9.75,19.72 -1.26,16.11 4.24,44.6 -9.97,43.72 -20.75,-1.28 -5.57,-40.24 -8.2,-63.57 -0.63,-5.55 6.51,-3.19 8.42,0.13" /><path
             id="path212"
             style="fill:#b49154;fill-opacity:1;fill-rule:nonzero;stroke:none"
             d="m 3017.95,1894.82 c -6.3,-4.59 -12.12,-15.46 -3.55,-19.73 7.5,-3.71 19.62,-2.41 22.42,5.64 2.61,7.53 3.88,21.48 -8.24,22.62 -3.21,0.33 -6.58,-5.59 -10.63,-8.53" /><path
             id="path214"
             style="fill:#b49154;fill-opacity:1;fill-rule:nonzero;stroke:none"
             d="m 3023.87,1863.4 c -3.4,-0.18 -5.47,3.18 -6.54,2.96 -8.65,-1.73 -9.92,-12.17 -6.75,-18.93 5.21,-11.07 19.63,-15.26 28.36,-9.97 10.54,6.37 -1.84,26.62 -15.07,25.94" /><path
             id="path216"
             style="fill:#b49154;fill-opacity:1;fill-rule:nonzero;stroke:none"
             d="m 3029.21,1818.88 c -1.06,-3.29 0.66,-5.53 3.26,-6.82 3.06,-1.52 6.15,0.61 6.37,3.08 0.53,5.64 4.66,14.29 -2.59,16.13 -9.59,2.44 -25.67,5.85 -25.59,-8.25 0.01,-7.28 11.87,-2.08 18.55,-4.14" /><path
             id="path218"
             style="fill:#b49154;fill-opacity:1;fill-rule:nonzero;stroke:none"
             d="m 2571.41,1767.01 c 18.57,3.51 30.28,18.9 45.75,28.26 -17.14,6.96 -27.11,-8.91 -41.62,-11.93 -15.93,-3.33 -30.56,2.33 -43.61,9.13 -9.33,4.87 -19.28,8.85 -27.72,16.57 -2.37,2.15 -5.81,-0.34 -6.15,-2.88 -3.14,-23.99 21.18,-29.08 34.25,-39.92 8.62,-7.16 25.42,-1.83 39.1,0.77" /><path
             id="path220"
             style="fill:#b49154;fill-opacity:1;fill-rule:nonzero;stroke:none"
             d="m 2502.12,1826.19 c -2.26,-2.05 0.34,-5.8 2.84,-6.02 9.06,-0.86 17.87,-10.83 27.33,-1.45 -8.55,5.88 -21.33,15.46 -30.17,7.47" /><path
             id="path222"
             style="fill:#b49154;fill-opacity:1;fill-rule:nonzero;stroke:none"
             d="m 3285.52,2396.13 c 2.6,16.44 7.88,32.36 -1.93,48.04 -9.57,-36.16 -20.99,-71.32 -23.53,-108.77 -0.82,-12.19 -28.81,5.68 -34.64,-16.26 -0.46,-1.7 5.3,-5.22 4.78,-6.45 -6.45,-15.31 -26.62,-5.98 -37.33,-16.21 27.01,-14.5 53.38,-6.33 71.09,15.76 13.26,16.6 5.89,36.67 8.7,56.71 0.69,5.05 8.62,10.69 11.92,17.14 1.44,2.8 0.41,6.58 0.94,10.04" /><path
             id="path224"
             style="fill:#b49154;fill-opacity:1;fill-rule:nonzero;stroke:none"
             d="m 3170.12,2339.58 c 9.54,1.56 25.55,-1.94 25.67,8.15 0.21,21.99 -15.24,1.78 -29.21,9.42 -3.45,1.88 -12.21,-3.21 -19.69,-4.63 -5.28,-0.98 -4.82,-6.83 -3.14,-9.3 6.37,-9.48 17.6,-5.06 26.37,-3.64" /><path
             id="path226"
             style="fill:#b49154;fill-opacity:1;fill-rule:nonzero;stroke:none"
             d="m 3172.8,2310.68 c 12.52,-0.03 26.53,-2.13 33.69,9.83 0.46,0.79 -3.83,5.96 -5.51,5.62 -43.71,-8.85 -85.08,10.93 -130.4,1.96 32.85,-13.37 66.83,-17.32 102.22,-17.41" /><path
             id="path228"
             style="fill:#b49154;fill-opacity:1;fill-rule:nonzero;stroke:none"
             d="m 3182.2,2284.45 c -45.16,2.26 -86.44,28.96 -132.62,25.68 -0.49,-0.01 -1.55,-10.19 -0.03,-10.83 48.53,-20.49 100.12,-21.91 152.45,-31.69 0.51,-0.1 0.35,-7.89 -0.32,-7.99 -56.52,-8.78 -105.29,28.43 -160,16.85 -1.11,-0.23 0.92,-6.93 -4.01,-8.96 18.9,-15.13 43.28,-14.89 64.7,-16.89 36.67,-3.43 93.58,-17.11 116.15,7.23 15.7,16.93 -16.17,25.6 -36.32,26.6" /><path
             id="path230"
             style="fill:#b49154;fill-opacity:1;fill-rule:nonzero;stroke:none"
             d="m 3249.05,2267.79 c -0.49,6.75 0.43,14.94 -5.04,20.86 -13.01,-13.6 0.5,-34.18 -12.37,-47.09 -12.06,-12.02 -28.91,9.73 -36.4,-6.51 -1.87,-4.04 6.34,-2.75 9.76,-5.92 5.41,-5.04 15.43,8.56 19.03,-1.77 4.37,-12.52 -14.86,-11.15 -14.6,-16.15 1.15,-20.82 -12.78,-52.61 12.86,-52.17 8.4,0.13 1.68,17.18 1.91,27.49 0.63,29.11 27.02,51.48 24.85,81.26" /><path
             id="path232"
             style="fill:#b49154;fill-opacity:1;fill-rule:nonzero;stroke:none"
             d="m 3137.64,2182.34 c 8.89,-1.7 18.61,-3.33 24.1,5.55 -48.08,23.66 -50.91,37.73 -104.8,37.61 -13.87,-0.04 -26.6,-29.06 -18.88,-47.09 14.4,12 30.21,-10.12 44.6,1.9 -4.75,2.35 -2.95,6.66 -3.08,10.39 19,-5.13 38.34,-4.65 58.06,-8.36" /><path
             id="path234"
             style="fill:#b49154;fill-opacity:1;fill-rule:nonzero;stroke:none"
             d="m 3162.58,2221.42 c 4.18,-2 20.91,0.04 20.87,0 -7.7,7.07 -22.65,13.79 -29.45,3.65 -1.38,-2.05 5.48,-2.17 8.58,-3.65" /><path
             id="path236"
             style="fill:#b49154;fill-opacity:1;fill-rule:nonzero;stroke:none"
             d="m 3175.41,2183.47 c 3.16,0.51 6.1,1.25 6.37,3.77 2.1,18.55 -19.35,34.24 -26.87,16.89 -2.29,-5.31 4.9,-23.22 20.5,-20.66" /><path
             id="path238"
             style="fill:#b49154;fill-opacity:1;fill-rule:nonzero;stroke:none"
             d="m 3108.81,2153.38 c -30.4,6.47 -62.93,20.79 -90.91,3.48 -1,-0.63 -6.84,-8.85 -4.18,-10.76 18.15,-13.08 14.36,-33.58 9.39,-48.89 -1.17,-3.64 0.7,8.03 -4.62,6.13 -6.25,-2.21 -4.01,-8.59 -3.56,-13.18 0.25,-2.63 2.93,-4.53 6.28,-3.7 1.71,-9.06 -9.88,-12.01 -9.12,-16.47 3.07,-17.94 -3.69,-37.72 10.83,-51.46 1.95,-1.84 8.08,-2.74 9.37,2.52 2.67,10.89 2.36,22.15 5.64,31.41 5.2,14.67 7.74,33.56 3.31,50.11 -1.88,7 -4.28,14.86 -3.66,20.94 0.42,4.05 2.84,14 9.03,12.28 51.26,-14.07 100.6,-21.12 149.33,-39.32 0.89,-0.33 1.86,-7.62 -3.42,-8.66 -43.48,-8.63 -83.14,6.82 -126.49,-0.72 -0.52,-0.09 -2.15,-7.77 2.94,-8.59 26.86,-4.31 52.39,-9.97 78.17,-16.9 -33.93,-10.68 -70.46,-9.87 -103.6,-23.89 25.82,-25.86 65.67,-15.64 98.69,-20.49 -13.48,-13.71 -32.82,-8.34 -49.15,-13.55 -17.95,-5.77 -43.95,4.17 -54.77,-9.24 -9.63,-11.97 -7.41,-44.36 3.4,-47.45 44.53,-12.81 94.11,-3.18 139.7,14.07 -5.91,10.51 -18.66,8.4 -26.91,14.61 16.65,13.75 22.84,36.42 22.03,57.47 -0.12,2.53 -3.07,5.05 -6.08,3.42 -4.69,-2.55 -8.86,-6.43 -13.99,-5.59 -5.11,0.83 -4.29,7.76 -2.54,8.96 8.36,5.8 17.12,9.43 23.58,17.48 2.09,2.6 -0.5,4.94 -2.84,6.69 7.84,3.76 16.17,6.4 24.31,9.43 0.2,-35.9 -12.35,-70.34 -12.98,-105.82 -0.14,-7.54 -4.19,-17.24 -5.94,-27.07 -0.46,-2.61 -5.08,-4.16 -5.87,-6.91 -1.89,-6.55 -1.02,-13.53 -1.25,-20.36 -3.3,1.03 -6.33,-0.81 -6.4,-3.23 -0.08,-2.38 2.8,-4.44 6.15,-3.62 -0.02,-18.94 1.82,-43.25 -16.25,-52.99 -2.9,-1.56 6.31,7.18 -2.28,9.37 -24.66,6.38 -54.9,-1.98 -71.38,19.28 25.26,11.35 53.81,8.05 79.42,17.84 -1.57,2.45 -3.37,4.48 -6.73,3.67 0.07,2.27 -0.53,5.58 0.59,6.28 2.56,1.56 6.58,-0.32 9.83,0.52 2.74,0.68 4.89,3.16 3.58,6.36 -1.11,2.67 -3.43,5.2 -6.35,3.38 -2.44,-1.48 -4.15,-4.54 -6.96,-2.57 -4.07,2.83 -6.65,8.98 -10.21,9.22 -34.47,2.5 -72.12,5.97 -100.69,-12.74 -4.44,-2.9 0.43,-24.4 10.83,-33.54 8.26,-7.25 24.17,-0.96 29.51,-15.65 -14.72,-4.73 -24.39,-16.16 -35.16,-26.23 21.18,-12.34 55.75,11.54 81.8,-0.42 0.39,-0.18 1.25,-5.23 3.69,-5.39 8.23,-0.55 18.03,8.9 22.8,4.11 6.39,-6.43 10.17,-23.17 -0.47,-27.5 -3.88,-1.58 -12,4.12 -19.43,5.95 -8.79,2.19 2.3,20.15 -9.1,15.53 -5.95,-2.43 -15.68,3.08 -17.18,-4.8 -0.92,-4.83 12.95,-6.3 8.19,-8.25 -19.41,-7.87 -48.69,2.45 -64.61,-13.68 22.17,-4.71 6.03,-35.73 2.51,-55.07 -0.82,-4.48 5.9,-4.31 8.96,-3.04 32.87,13.56 62.06,33.41 94.4,47.63 1.99,-14.07 -1.2,-33.48 -7.16,-37.32 -31.32,-20.21 -74.73,-19.34 -99.79,-49.86 -11.11,-13.5 -0.03,-37.12 14.05,-39.56 18.87,-3.28 37.34,20.04 61.57,14.34 2.7,-0.65 4.96,-3.54 3,-6.38 -2.85,-4.06 -6.35,-8.27 -10.54,-9.35 -26.01,-6.87 -56.94,-17.47 -66.39,-40.82 -8.7,-21.49 1.61,-57.79 28.91,-58.29 7.85,-0.15 23.03,10.62 25.89,20.5 4.75,16.5 8.2,33.99 21.59,46.05 17.64,15.94 44.56,12.37 62.08,29.34 -16.62,14.61 -44.82,6.59 -57.27,29.37 21.16,2.44 34.38,-18.58 54.2,-18.46 2.45,0 5.4,3.71 3.21,5.74 -10.35,9.48 -13.33,22.62 -22.46,32.09 -7.12,-16.9 -26.84,-8.41 -41.42,-8.29 -2.35,0.01 -4.96,3.5 -2.85,6.13 8.97,11.16 28,8.72 40.85,2.28 2.5,33.03 4.06,66.28 4.88,99.18 0.2,7.05 -2.91,16.75 -2.6,24.09 0.63,15.29 15.92,28.35 15.79,43.97 -0.06,7.77 -10.14,15.34 -7.21,24.02 1.64,4.88 6.76,9.79 8.54,14.17 14.87,36.74 13.85,75.76 24.14,115.58 7.02,27.17 -2.49,55.77 12.27,80.92 4.03,6.85 4.01,15.29 10.03,20.76 -5.1,4.77 -4.58,12.65 -9.68,17.46 -8.45,-15.25 -7.19,-35.19 -22.62,-46.63 -2.21,-1.64 -6.41,-0.36 -9.83,-0.25 1.04,3.31 -0.86,5.24 -3.18,6.98 9.45,5.82 20.01,8.53 24.64,19.71 -18.88,6.93 -40.17,-0.61 -57.26,7.13 -15.86,7.2 -32.23,11.54 -48.56,15" /><path
             id="path240"
             style="fill:#b49154;fill-opacity:1;fill-rule:nonzero;stroke:none"
             d="m 2576.77,1817.34 c 17.27,3.39 35.45,0.46 48.51,15.35 -25.59,5.81 -49.64,2.48 -75.54,14.74 -2.07,0.99 -9.31,-5.8 -5.99,-11.59 6.94,-12.01 18.27,-21.4 33.02,-18.5" /><path
             id="path242"
             style="fill:#b49154;fill-opacity:1;fill-rule:nonzero;stroke:none"
             d="m 2584.95,1854.55 c 15.06,5.43 34.25,-1.75 45.05,15.67 -12.14,4.15 -76.84,8.53 -86.92,18.37 -3.62,3.5 14.11,1.06 12.18,11.51 -0.98,5.31 -6.79,4.84 -9.33,3.17 -10.35,-6.85 -20.96,-3.96 -31.49,-3.14 -6.11,0.49 -9.65,-8.89 -6.57,-15.06 4.2,-8.51 12.89,-8.14 19.8,-1.07 4.83,-23.16 36.45,-36.94 57.28,-29.45" /><path
             id="path244"
             style="fill:#b49154;fill-opacity:1;fill-rule:nonzero;stroke:none"
             d="m 2573.37,1910.77 c 1.62,-0.47 6.21,4.57 5.87,5.1 -13.97,21.89 -36.27,26.94 -53.36,42.51 -6.91,6.29 -12.24,-6.08 -9.15,-11.96 11.69,-22.2 34.09,-28.98 56.64,-35.65" /><path
             id="path246"
             style="fill:#b49154;fill-opacity:1;fill-rule:nonzero;stroke:none"
             d="m 2606.83,1994.65 c -27.58,-1.68 -47.57,15.57 -63.86,36.18 -8.73,-13.44 -12.17,-30.77 -9.05,-43.48 1.84,-7.53 16.74,-12.49 27.75,-14.55 1.94,-0.34 4.56,3.55 6.92,5.75 -2.34,1.76 -4.08,5.9 -3.26,5.85 23.5,-1.56 43.4,-33.65 67.71,-25.19 -5.54,7.18 -12.61,12.67 -19.96,17.82 20.45,7.1 46.22,1.17 62.32,18.43 -36.71,14.67 -27.59,1.66 -68.57,-0.81" /><path
             id="path248"
             style="fill:#b49154;fill-opacity:1;fill-rule:nonzero;stroke:none"
             d="m 2640.9,2191.82 c 18.41,-11.71 36.11,-19.31 57.66,-14.79 5.61,1.15 5.28,5.94 0.51,9.54 15.92,2.22 28.07,-6.46 40.9,-4.42 2.74,0.42 5.45,3.86 3.28,5.81 -34.25,30.39 -77.6,36.29 -114.55,65.17 -2.76,2.16 -12.66,2.79 -11.48,-1.6 6.06,-22.67 39.7,-25.48 44.66,-49.98 -18.44,8.85 -34.45,22.02 -54.12,28.34 -1.53,0.49 -6.24,-4.48 -5.85,-5.2 8.55,-15.56 23.96,-23.32 38.99,-32.87" /><path
             id="path250"
             style="fill:#b49154;fill-opacity:1;fill-rule:nonzero;stroke:none"
             d="m 2629.51,2167.14 c -17.83,5.86 -43.28,51.14 -53.77,20.21 44.46,-46.14 120.15,-82.88 183.53,-43.97 -23.68,10.87 -47.1,-4.56 -71.76,2.83 -20.16,6.05 -38.28,14.41 -58,20.93" /><path
             id="path252"
             style="fill:#b49154;fill-opacity:1;fill-rule:nonzero;stroke:none"
             d="m 2627.93,2112.18 c -31.43,2.44 -41.43,26.24 -64.81,42.89 -8.72,6.19 -11.26,-12.36 -10.66,-13.93 11.96,-31.55 43.12,-57.62 77.89,-61.28 2.28,-0.24 4.48,2.72 3.57,6.1 -1.41,5.38 -9.28,4.6 -9.88,10.63 17.52,-5.15 78.78,-2.47 92.52,0.27 -28.39,11.56 -58.91,13.04 -88.63,15.32" /><path
             id="path254"
             style="fill:#b49154;fill-opacity:1;fill-rule:nonzero;stroke:none"
             d="m 2579.68,2085.15 c -8.22,6.97 -18.24,18.03 -23.51,17.44 -17.97,-2.04 -2.7,-27.71 -12.16,-40.95 11.25,-7.63 25.69,-25.08 40.61,-15.09 -7.54,4.87 -6.93,12.78 -6.14,20.77 12.62,-7.65 26.79,-11.49 40.75,-14.42 2.1,-0.44 5.24,3.58 3.07,5.55 -12.82,11.6 -29.49,15.56 -42.62,26.7" /><path
             id="path256"
             style="fill:#b49154;fill-opacity:1;fill-rule:nonzero;stroke:none"
             d="m 2904.48,2891.75 c -18.31,10.3 -36.64,30.28 -56.01,20.75 -38.77,-19.09 -66.04,-47.02 -86.77,-92.06 -19.86,-43.22 -23.89,-93.01 -25.25,-141.68 23.78,-6.01 61.24,-7.68 62.9,-30.07 1.03,-13.76 -27.2,4.39 -40.23,-8.39 25.2,-17.98 55.81,-43.53 51.71,-77.13 -0.31,-2.52 -4.67,-5.04 -5.7,-2.87 -12.77,26.9 -36.72,40.47 -61.3,51.61 -8.12,3.66 -21.53,6.23 -27.07,-7.86 37.61,-11.53 72.76,-32.46 79.68,-74.71 -24.83,22.31 -53.66,52.08 -90.91,36.62 -9.84,-4.09 2.39,-8.09 3.17,-8.39 43,-15.13 96.45,-38.7 106.31,-87.11 -9.09,2.57 -8.28,15.04 -16.7,17 -11.87,2.76 -22.78,-0.93 -34.55,-4.04 -24.94,-6.55 -49.69,8.25 -75.04,1.64 24.15,-20.17 54.74,-31.12 76.94,-54.04 -26.15,-0.69 -53.56,9.12 -78.95,-4.14 23.5,-12.62 50.57,-13.65 75.24,-24.89 13.84,-6.32 37.5,-15.93 43.39,-4.77 8.05,15.21 0,40.24 -14.28,57.45 -1.68,2 -0.37,6.34 -0.24,9.76 13.72,-1.49 23.04,-11.04 33.62,-18.28 27.82,61.69 17.33,131.36 40.9,193.94 7.65,-25.95 5.62,-53.59 14.43,-79.31 24.71,74.6 40.28,148.98 57.33,227.97 5.17,23.94 17.4,49.43 8.09,69.85 -6.35,13.94 -24.81,24.2 -40.71,33.15" /><path
             id="path258"
             style="fill:#b49154;fill-opacity:1;fill-rule:nonzero;stroke:none"
             d="m 2719.78,2397.66 c -13.55,5.01 -26.78,13.73 -40.01,7.6 -11.84,-5.5 -13.13,-19.39 -12.03,-32.58 -7.07,1.35 -14.52,0.54 -16.6,-6.49 -2.06,-6.96 8.63,-13.11 4.69,-20.15 -11.68,-20.82 -23.75,-43.61 -18.69,-63.88 5.27,-21.07 35.46,-20.94 54.79,-35.55 8.79,-6.65 2.34,10.34 9.6,11.83 -10.49,11.5 -11.34,26.47 -12.28,41.53 8.63,-6.77 24.44,-17.81 29.78,-4.13 0.3,0.74 -3.2,5.56 -2.36,5.51 15.1,-0.92 27.13,-22.64 44.21,-10.67 -16.21,14.53 -36.39,23.07 -53.59,36.09 24.61,9.42 46.63,-9.64 68.2,-8.68 2.53,0.13 5.21,3.15 3.34,6.02 -11.35,17.32 -36.12,4.35 -46.88,22.4 3.29,-1.05 6.61,1.04 6.24,3.05 -4.15,21.41 -28.16,12.4 -43.07,22.19 15.97,1.98 40.97,-9.4 45.64,5.97 2.46,8.11 -10.99,16.25 -20.98,19.94" /><path
             id="path260"
             style="fill:#b49154;fill-opacity:1;fill-rule:nonzero;stroke:none"
             d="m 3166.45,2589.43 c -22.43,-9.61 -49.12,-14.48 -61.49,-37.81 -9.17,-17.29 -18.71,-43 -14.43,-58.48 3.48,-12.67 29.84,5.15 43.22,12.84 39.66,22.73 71.21,52.89 103.41,83.72 -18.3,17.4 -50.95,8.2 -70.71,-0.27" /><path
             id="path262"
             style="fill:#b49154;fill-opacity:1;fill-rule:nonzero;stroke:none"
             d="m 3229.37,2548.04 c -23.12,-12.74 -49.38,-17.16 -66.89,-38.06 7.25,-4.55 14.97,-7.71 23.72,-7.66 -28.83,-21.47 -74.73,-11.62 -100.92,-40.44 -11.31,-12.42 -23.58,-42.23 -6.53,-55.88 13.58,-10.85 36.29,-8.97 55.9,-8.13 -21.49,-22.93 -57.28,-23.16 -77.05,-48.77 38.24,-24.93 76.15,23.64 114.6,32.11 12.01,2.62 25.67,0.67 36.93,5.04 5.79,2.26 10.93,9.29 15.98,14.14 6.18,5.95 16.79,-5.31 25.86,-2.52 7.03,2.16 9.57,9.55 7.06,16.1 -1.66,4.23 -5.61,9.11 -9.55,9.87 -52.04,9.96 -102.65,-4.36 -153.96,2.79 36.64,27.65 87.61,25.79 120.48,58.96 2.27,2.3 4.58,11.85 6.85,14.14 23.07,23.01 50.01,44.17 61.85,74.97 0.51,1.35 -4.55,6.13 -5.1,5.8 -17.45,-10.99 -31.23,-22.56 -49.23,-32.46" /><path
             id="path264"
             style="fill:#b49154;fill-opacity:1;fill-rule:nonzero;stroke:none"
             d="m 3252.9,2440.27 c 20.53,-3.74 21.35,32.65 15.09,48.99 -26.41,-22.54 -68.28,-19.11 -96.87,-48.78 -3.61,-3.75 4.39,-8.66 5.52,-8.45 25.55,4.77 49.29,13.16 76.26,8.24" /><path
             id="path266"
             style="fill:#b49154;fill-opacity:1;fill-rule:nonzero;stroke:none"
             d="m 3433.1,2401.44 c 2,-2.07 4.03,-5.44 6.08,-3.27 14.82,15.63 26.86,31.82 43.59,45.54 56.84,46.55 174.07,49.93 187.93,51.41 1.3,0.14 6.26,28.12 -0.5,28.51 -87.71,4.66 -203.5,-20.18 -254.96,-102.37 -5.35,-8.53 8.58,-10.15 17.86,-19.82" /><path
             id="path268"
             style="fill:#b49154;fill-opacity:1;fill-rule:nonzero;stroke:none"
             d="m 3347.16,2340.29 c 9.92,-25.85 16.79,-52.72 30,-77.11 9.39,35.21 -9.01,65.39 -15.18,99.58 -2.33,12.88 -13.37,21.64 -25.12,28.38 -2.96,1.7 -6.13,-0.56 -6.32,-3.02 -1.24,-17.65 10.58,-32.14 16.62,-47.83" /><path
             id="path270"
             style="fill:#b49154;fill-opacity:1;fill-rule:nonzero;stroke:none"
             d="m 3436.32,2189.19 c -8.6,21 -12.87,43.31 -25.28,62.54 -4,-37.52 -4.2,-75.31 -5.83,-112.89 -0.32,-7.39 7.08,-20.38 3.65,-21.63 -25.07,-9.2 -22.5,28.11 -26.6,46.83 -5.38,24.67 11.51,50.54 -2.5,75.05 -19.52,-45.53 -37.19,-100.27 -18.04,-144.82 13.63,-31.7 70.59,-24.58 88.71,3.88 17.23,27.08 -1.94,61.32 -14.11,91.04" /><path
             id="path272"
             style="fill:#b49154;fill-opacity:1;fill-rule:nonzero;stroke:none"
             d="m 3316.34,2107.59 c 0.28,25.13 7.54,50.34 -0.17,75.42 -12.42,-46.68 -38.25,-93.12 -32.29,-142.83 42.35,-5.32 32.14,40.31 32.46,67.41" /><path
             id="path274"
             style="fill:#b49154;fill-opacity:1;fill-rule:nonzero;stroke:none"
             d="m 3342.72,1960.07 c -5.61,-0.69 -8.82,-4.91 -9.32,-7.43 -10.07,-50.13 -15.45,-96.04 -27.55,-146.76 -7.43,-31.16 8.85,-60.26 12.59,-92.25 0.45,-4.03 7.73,-8.21 11.92,-6.55 33.34,13.46 66.97,25.28 97.84,43.75 -17.83,70.38 -31.81,139.85 -50.44,211.26 -3.14,12.05 -25.08,-0.79 -35.04,-2.02" /><path
             id="path276"
             style="fill:#b49154;fill-opacity:1;fill-rule:nonzero;stroke:none"
             d="m 3269.88,1927.26 c -6.92,-2.58 -15.5,-6.65 -16.37,-12.97 -3.75,-27.45 3.58,-54.62 5.24,-82.38 1.45,-24 -7.26,-50.53 1.7,-70.32 18.55,-40.83 18.19,-82.08 21.88,-125.5 0.6,-7.06 19.72,-11.28 19.95,-0.92 0.84,35.21 2.9,72.74 -10.24,105.63 -7.67,19.21 -17.27,35.53 -19.05,56.54 -3.87,46.66 22.35,91.46 11.89,135.99 -0.91,3.95 -9.2,-3.94 -15,-6.07" /><path
             id="path278"
             style="fill:#b49154;fill-opacity:1;fill-rule:nonzero;stroke:none"
             d="m 2364.06,1701.62 c 28.3,23.63 77.49,15.63 87.31,47.61 8.79,28.67 14.23,81.61 16.71,115.52 0.34,4.54 -37.81,-8.72 -50.81,-10.01 -4.49,-0.46 1.9,-48.03 -6.96,-51.48 -64.91,-25.33 -129.82,-46.63 -195.58,-62.39 22.41,-46.17 40.78,-85.35 64.76,-131.83 2.45,-4.77 10.48,1.3 11.78,3.22 22.06,33.2 42.07,63.75 72.79,89.36" /><path
             id="path280"
             style="fill:#b49154;fill-opacity:1;fill-rule:nonzero;stroke:none"
             d="m 2753.68,1568.47 c 45.51,5.92 89.62,9.19 134.23,15.75 11.61,39.02 19.91,81.57 30.73,122.57 1.36,5.12 6.73,16.14 0.59,15.24 -74.98,-11.24 -158.6,-26.37 -232.7,-38.41 -15.94,-40.57 -30.8,-77.63 -50.55,-120.97 -2.6,-5.71 -4.96,-10.25 -5.46,-14.17 35.29,4.78 80.17,14.39 123.16,19.99" /><path
             id="path282"
             style="fill:#b49154;fill-opacity:1;fill-rule:nonzero;stroke:none"
             d="m 2927.54,1775 c 12.16,46.48 20.97,83.48 31.31,128.29 l -30.03,-9.87 c -17.25,-42.7 -32.46,-86.73 -49.29,-126.81 l 48.01,8.39" /><path
             id="path284"
             style="fill:#b49154;fill-opacity:1;fill-rule:nonzero;stroke:none"
             d="m 2957.37,1783.88 c 2.11,14.66 3.95,31.3 5.68,50.6 0.2,2.19 -3.73,11.91 -4.27,9.52 -4.91,-21.72 -10.02,-45.53 -14.14,-65.6 0,0 11.82,-0.86 12.73,5.48" /><path
             id="path286"
             style="fill:#b49154;fill-opacity:1;fill-rule:nonzero;stroke:none"
             d="m 3394.62,1586.12 c 30.84,-13.45 64.97,-24.08 75.65,-62.33 0.98,-3.48 11.24,2.61 10.52,5.48 -11.55,46.27 -25.13,90.31 -38.4,135.4 -33.64,-11.59 -70.39,-29.29 -99.06,-41.17 13.5,-14.27 33.94,-29.8 51.29,-37.38" /><path
             id="path288"
             style="fill:#b49154;fill-opacity:1;fill-rule:nonzero;stroke:none"
             d="m 3473.8,2911.11 15.82,-64.49 -57.29,15.66 -43.01,-17.79 0.8,11.09 41.31,18.3 -2.15,49.78 44.52,-12.55" /><path
             id="path290"
             style="fill:#231f20;fill-opacity:1;fill-rule:nonzero;stroke:none"
             d="m 2959.32,4607.3 c -12.52,-7.45 -21.28,-3.91 -33.7,0.86 14.59,15.33 35.85,5.52 53.64,15.57 5.53,3.13 14,1.91 20.72,-0.24 0.54,-0.19 0.34,-4.77 -0.13,-4.86 -14.51,-2.91 -27.42,-3.47 -40.53,-11.33" /><path
             id="path292"
             style="fill:#231f20;fill-opacity:1;fill-rule:nonzero;stroke:none"
             d="m 2978,4602.53 c 6.34,0.97 11.87,5.49 18.47,3.2 -4.8,-10.08 -14.1,-15.53 -25.12,-14.12 -2.29,0.28 -4.39,4.46 -2.66,5.03 4.29,1.34 6.13,5.41 9.31,5.89" /><path
             id="path294"
             style="fill:#b49154;fill-opacity:1;fill-rule:nonzero;stroke:none"
             d="m 2165.57,1373.23 24.27,40.94 580.17,136.03 h 521.88 l 410.83,-122.14 32.62,-59" /><path
             id="path296"
             style="fill:none;stroke:#231f20;stroke-width:12.83500004;stroke-linecap:butt;stroke-linejoin:miter;stroke-miterlimit:4;stroke-dasharray:none;stroke-opacity:1"
             d="m 2165.57,1373.23 24.27,40.94 580.17,136.03 h 521.88 l 410.83,-122.14 32.62,-59" /><path
             id="path298"
             style="fill:#b49154;fill-opacity:1;fill-rule:nonzero;stroke:none"
             d="m 3003.26,1499.44 720.75,-207.38 20.36,-44.44 c -224.17,-94.71 -460.33,-148.91 -718.98,-148.91 -294.91,0 -576.71,56.99 -825,178.28 l 802.87,222.45" /><path
             id="path300"
             style="fill:#231f20;fill-opacity:1;fill-rule:nonzero;stroke:none"
             d="m 2159.3,1376 v -83.97 l 58.31,-27.77 v 21.53 l 538.54,92.29 h 555.18 l 410.83,-113.82 2.78,-24.98 19.43,8.34 v 124.21 l -449.71,142.28 H 2753.35 L 2159.3,1376" /><path
             id="path302"
             style="fill:#b49154;fill-opacity:1;fill-rule:nonzero;stroke:none"
             d="m 2765.47,1494.76 h 525.42 v -88.83 h -525.42 v 88.83" /><path
             id="path304"
             style="fill:#231f20;fill-opacity:1;fill-rule:nonzero;stroke:none"
             d="m 3300.95,1544.55 v -30.27 l -542.75,-0.1 v 30.37 h 542.75" /><path
             id="path306"
             style="fill:#231f20;fill-opacity:1;fill-rule:nonzero;stroke:none"
             d="m 2621.63,3906.32 c -10.88,-28.73 -21.27,-56.8 -35.64,-83.57 -7.64,-14.15 -27.7,-13.59 -40.48,-23.33 55.06,105.51 111.02,210.43 165.02,316.5 0.16,-9.84 -5.66,-18.06 -8.92,-26.71 -6.81,-18.05 -20.3,-33.3 -26.36,-51.39 -15.45,-46.03 -36.62,-86.65 -53.62,-131.5" /><path
             id="path308"
             style="fill:#231f20;fill-opacity:1;fill-rule:nonzero;stroke:none"
             d="m 2592.66,3969.02 c -10.14,-16.01 -13.38,-34.98 -29.25,-46.83 17.23,51.2 42.08,98.96 66.1,147.24 11.12,22.39 29.08,55.84 57.41,57.58 -35.9,-50.01 -60.43,-104.65 -94.26,-157.99" /><path
             id="path310"
             style="fill:#231f20;fill-opacity:1;fill-rule:nonzero;stroke:none"
             d="m 3178.93,3395.77 c 7.74,0 13.99,-6.28 13.99,-14 0,-7.71 -6.25,-13.99 -13.99,-13.99 -7.71,0 -13.97,6.28 -13.97,13.99 0,7.72 6.26,14 13.97,14" /><path
             id="path312"
             style="fill:#231f20;fill-opacity:1;fill-rule:nonzero;stroke:none"
             d="m 3148.48,3295.42 c -8.98,3.59 -19.94,-4.42 -20.23,-11.6 -0.34,-8.71 15.99,-18.86 26.46,-8.97 1.05,-10.45 -5.62,-14.27 -13.88,-16.67 -10.04,-2.9 -22.77,6.28 -24.62,14.66 -3.42,15.37 4.22,33.99 19.41,35.66 7.34,0.8 28.33,-0.35 21.98,-16.2 -0.75,-1.9 -5.72,1.78 -9.12,3.12" /><path
             id="path314"
             style="fill:#231f20;fill-opacity:1;fill-rule:nonzero;stroke:none"
             d="m 3095.58,3154.37 c -18.13,-1.09 -23.21,31.26 -8.68,40.14 10.89,6.65 18.51,5.23 30.16,-3.41 2.24,-1.67 -1.59,-8.02 -3.92,-7 -12.09,5.27 -25.16,4.67 -20.65,-10.54 2.32,-7.79 8.56,-11.27 22.36,-3.12 -1.37,-13.41 -8.23,-15.43 -19.27,-16.07" /><path
             id="path316"
             style="fill:#b49154;fill-opacity:1;fill-rule:nonzero;stroke:none"
             d="m 2444.54,1725.07 c -15.26,-40.94 -22.9,-65.94 -27.06,-85.35 -4.16,-19.45 -2.8,-45.13 -33.33,-49.29 -30.54,-4.17 -26.38,-7.62 -26.38,-7.62 l -18.02,4.85 c 0,0 8.32,13.89 29.15,15.27 20.81,1.39 18.04,4.17 22.19,8.32 4.17,4.17 6.25,24.3 9.03,34.01 2.45,8.54 4.79,32.74 7.63,42.33 5.57,18.74 13.2,25.69 22.9,31.23 9.72,5.56 13.89,6.25 13.89,6.25" /><path
             id="path318"
             style="fill:none;stroke:#231f20;stroke-width:2.4059999;stroke-linecap:butt;stroke-linejoin:miter;stroke-miterlimit:4;stroke-dasharray:none;stroke-opacity:1"
             d="m 2444.54,1725.07 c -15.26,-40.94 -22.9,-65.94 -27.06,-85.35 -4.16,-19.45 -2.8,-45.13 -33.33,-49.29 -30.54,-4.17 -26.38,-7.62 -26.38,-7.62 l -18.02,4.85 c 0,0 8.32,13.89 29.15,15.27 20.81,1.39 18.04,4.17 22.19,8.32 4.17,4.17 6.25,24.3 9.03,34.01 2.45,8.54 4.79,32.74 7.63,42.33 5.57,18.74 13.2,25.69 22.9,31.23 9.72,5.56 13.89,6.25 13.89,6.25 z" /></g></g></g></g></svg>