<?xml version="1.0" encoding="UTF-8" standalone="no"?>
<!DOCTYPE svg PUBLIC "-//W3C//DTD SVG 1.1//EN" "http://www.w3.org/Graphics/SVG/1.1/DTD/svg11.dtd">
<svg width="100%" height="100%" viewBox="0 0 221 43" version="1.1" xmlns="http://www.w3.org/2000/svg" xmlns:xlink="http://www.w3.org/1999/xlink" xml:space="preserve" xmlns:serif="http://www.serif.com/" style="fill-rule:evenodd;clip-rule:evenodd;stroke-linejoin:round;stroke-miterlimit:2;">
    <g id="Page-1">
        <g id="_x30_1-Desktop">
            <g id="Verify-IDme">
                <g id="Group-7">
                    <path id="Background-Copy" d="M3.8,0L216.3,0C218.4,0 220.1,1.7 220.1,3.8L220.1,38.8C220.1,40.9 218.4,42.6 216.3,42.6L3.8,42.6C1.7,42.6 0,40.9 0,38.8L0,3.8C0,1.7 1.7,0 3.8,0Z" style="fill:rgb(8,131,61);"/>
                    <path id="Background-Copy_1_" d="M3.8,0L216.3,0C218.4,0 220.1,1.7 220.1,3.8L220.1,38.8C220.1,40.9 218.4,42.6 216.3,42.6L3.8,42.6C1.7,42.6 0,40.9 0,38.8L0,3.8C0,1.7 1.7,0 3.8,0Z" style="fill:rgb(8,131,61);"/>
                    <g id="Group-5-Copy-3" transform="matrix(1,0,0,1,43,0)">
                        <rect id="Fill-4" x="0.1" y="0" width="0.7" height="42.5" style="fill:white;"/>
                    </g>
                    <g>
                        <path d="M65.4,15.3L67.7,15.3L64.1,26L61.6,26L58,15.3L60.3,15.3L62.3,21.7C62.4,22.1 62.5,22.5 62.6,23C62.7,23.5 62.8,23.8 62.8,24C62.9,23.6 63,22.8 63.3,21.6L65.4,15.3Z" style="fill:white;fill-rule:nonzero;"/>
                        <path d="M72.6,26.1C71.3,26.1 70.3,25.7 69.5,25C68.8,24.3 68.4,23.2 68.4,21.9C68.4,20.5 68.7,19.5 69.4,18.7C70.1,17.9 71,17.6 72.2,17.6C73.4,17.6 74.3,17.9 74.9,18.6C75.5,19.3 75.9,20.2 75.9,21.3L75.9,22.4L70.6,22.4C70.6,23 70.8,23.5 71.2,23.9C71.6,24.3 72,24.4 72.7,24.4C73.2,24.4 73.7,24.3 74.1,24.2C74.5,24.1 75,23.9 75.5,23.7L75.5,25.4C75.1,25.6 74.7,25.7 74.2,25.8C73.8,26.1 73.3,26.1 72.6,26.1ZM72.3,19.2C71.8,19.2 71.5,19.4 71.2,19.7C70.9,20 70.8,20.4 70.7,21L73.8,21C73.8,20.4 73.6,20 73.4,19.7C73.1,19.4 72.8,19.2 72.3,19.2Z" style="fill:white;fill-rule:nonzero;"/>
                        <path d="M82.3,17.7C82.6,17.7 82.9,17.7 83.1,17.8L82.9,19.9C82.7,19.9 82.5,19.8 82.2,19.8C81.5,19.8 80.9,20 80.5,20.3C80.1,20.7 79.9,21.2 79.9,21.8L79.9,26L77.7,26L77.7,17.8L79.4,17.8L79.7,19.2L79.8,19.2C80.1,18.7 80.4,18.4 80.8,18.1C81.4,17.8 81.8,17.7 82.3,17.7Z" style="fill:white;fill-rule:nonzero;"/>
                        <path d="M84.5,15.7C84.5,15 84.9,14.6 85.7,14.6C86.5,14.6 86.9,15 86.9,15.7C86.9,16 86.8,16.3 86.6,16.5C86.4,16.7 86.1,16.8 85.7,16.8C84.9,16.8 84.5,16.4 84.5,15.7ZM86.8,26L84.6,26L84.6,17.8L86.8,17.8L86.8,26Z" style="fill:white;fill-rule:nonzero;"/>
                        <path d="M93.8,19.5L91.8,19.5L91.8,26L89.6,26L89.6,19.5L88.4,19.5L88.4,18.4L89.6,17.8L89.6,17.2C89.6,16.3 89.8,15.6 90.3,15.2C90.8,14.8 91.5,14.6 92.5,14.6C93.3,14.6 94,14.7 94.6,14.9L94,16.5C93.6,16.4 93.1,16.3 92.8,16.3C92.5,16.3 92.3,16.4 92.1,16.6C92,16.8 91.9,17 91.9,17.3L91.9,17.8L93.8,17.8L93.8,19.5Z" style="fill:white;fill-rule:nonzero;"/>
                        <path d="M93.8,17.8L96.2,17.8L97.7,22.4C97.8,22.8 97.9,23.3 98,23.8C98.1,23.3 98.2,22.8 98.3,22.4L99.8,17.8L102.2,17.8L98.9,27C98.6,27.9 98.1,28.5 97.5,28.9C96.9,29.3 96.2,29.5 95.4,29.5C95,29.5 94.6,29.5 94.3,29.4L94.3,27.6C94.6,27.7 94.9,27.7 95.2,27.7C95.6,27.7 95.9,27.6 96.2,27.3C96.5,27.1 96.7,26.7 96.9,26.2L97,25.8L93.8,17.8Z" style="fill:white;fill-rule:nonzero;"/>
                        <path d="M114.1,26L113.5,23.1L112.7,19.5L112.6,19.5L111.1,26L108.7,26L106.4,17.8L108.6,17.8L109.5,21.4C109.7,22 109.8,22.9 110,24.1C110,23.7 110.1,23.1 110.3,22.3L110.4,21.7L111.4,17.8L113.9,17.8L114.9,21.7C114.9,21.8 114.9,22 115,22.2C115,22.4 115.1,22.6 115.1,22.9C115.1,23.1 115.2,23.4 115.2,23.6C115.2,23.8 115.2,24 115.3,24.1C115.3,23.7 115.4,23.3 115.5,22.7C115.6,22.1 115.7,21.7 115.7,21.5L116.7,17.9L118.9,17.9L116.5,26.1L114.1,26.1L114.1,26Z" style="fill:white;fill-rule:nonzero;"/>
                        <path d="M120.1,15.7C120.1,15 120.5,14.6 121.3,14.6C122.1,14.6 122.5,15 122.5,15.7C122.5,16 122.4,16.3 122.2,16.5C122,16.7 121.7,16.8 121.3,16.8C120.5,16.8 120.1,16.4 120.1,15.7ZM122.5,26L120.3,26L120.3,17.8L122.5,17.8L122.5,26Z" style="fill:white;fill-rule:nonzero;"/>
                        <path d="M128.3,24.4C128.7,24.4 129.2,24.3 129.7,24.1L129.7,25.8C129.1,26 128.5,26.2 127.6,26.2C126.7,26.2 126.1,26 125.6,25.5C125.2,25 125,24.4 125,23.5L125,19.6L124,19.6L124,18.7L125.2,18L125.8,16.3L127.2,16.3L127.2,18L129.5,18L129.5,19.7L127.2,19.7L127.2,23.6C127.2,23.9 127.3,24.2 127.5,24.3C127.7,24.3 128,24.4 128.3,24.4Z" style="fill:white;fill-rule:nonzero;"/>
                        <path d="M138.9,26L136.7,26L136.7,21.2C136.7,20 136.3,19.4 135.4,19.4C134.8,19.4 134.3,19.6 134,20C133.7,20.4 133.6,21.1 133.6,22.1L133.6,26L131.4,26L131.4,14.6L133.6,14.6L133.6,16.9C133.6,17.1 133.6,17.5 133.5,18.2L133.4,18.9L133.5,18.9C134,18.1 134.8,17.7 135.9,17.7C136.9,17.7 137.6,18 138.1,18.5C138.6,19 138.8,19.8 138.8,20.7L138.8,26L138.9,26Z" style="fill:white;fill-rule:nonzero;"/>
                    </g>
                    <g id="idme-wallet-copy-2" transform="matrix(1,0,0,1,147,12)">
                        <path id="Shape" d="M2.1,0L1.3,0C0.4,0 0,0.3 0,0.9L0,16.1C0,16.7 0.4,17 1.3,17L2,17C2.9,17 3.3,16.7 3.3,16.1L3.3,0.9C3.4,0.3 2.9,0 2.1,0Z" style="fill:white;fill-rule:nonzero;"/>
                        <path id="Shape_1_" d="M16.1,15.2C16.1,13.4 17.3,11.8 19,11.3C19.2,10.5 19.3,9.5 19.3,8.5C19.3,3 16.4,0 11.2,0L5.7,0C4.9,0 4.5,0.3 4.5,1.1L4.5,15.9C4.5,16.6 4.9,17 5.6,17L11.1,17C13.1,17 14.7,16.6 16,15.7C16.1,15.6 16.1,15.4 16.1,15.2ZM11.2,13.6L8.7,13.6L8.7,3.4L11.2,3.4C14.4,3.4 15.1,6.2 15.1,8.5C15.1,10.8 14.4,13.6 11.2,13.6Z" style="fill:white;fill-rule:nonzero;"/>
                        <circle id="Oval" cx="19.8" cy="15.3" r="1.7" style="fill:white;"/>
                        <path id="Shape_2_" d="M46.2,12.4L46,12.4C45.7,12.4 45.6,12.5 45.4,12.7C45.3,12.8 45.2,13 45.1,13.2C44.8,13.8 44.4,14.4 43.9,14.8C43.2,15.4 42.2,15.7 41.4,15.5C40.9,15.4 40.6,15 40.3,14.8C39.9,14.3 39.7,13.5 39.8,12.7C41,12.6 44.7,12 45.1,9.2C45.2,8.7 45,8.1 44.7,7.7C44.3,7.2 43.5,6.9 42.7,6.9C40.2,6.9 37.8,9.5 37.5,12.5C37.4,13.3 37.5,14.1 37.8,14.8C37.6,15 37.4,15.1 37.2,15.2C37,15.3 36.8,15.3 36.7,15.3C36.5,15.2 36.5,15 36.4,14.9C36.3,14.4 36.4,13.7 36.6,13.1C36.7,12.7 36.8,12.3 36.9,12C37.2,10.9 37.5,9.8 37.4,8.7C37.3,7.7 36.6,7 35.5,7C34,7 33,8.1 32.4,9C32.4,8.3 32.2,7.8 31.9,7.5C31.6,7.2 31.2,7 30.6,7C29.1,7 28.2,8 27.5,8.9L27.5,8.6C27.5,8.2 27.6,7.7 27.2,7.3C27,7.1 26.8,7 26.4,7C26.1,7 26,7 25.7,7.1C25.7,7.1 25.4,7.2 25.3,7.3C25.1,7.5 25.2,7.8 25.2,8L25.2,8.6C25.1,9.7 24.9,10.8 24.8,11.7C24.7,12.2 24.6,12.7 24.5,13.2C24.2,14.3 24,15.5 23.9,16.6C23.9,16.7 23.9,16.8 24,16.9C24.1,17 24.2,17 24.3,17L24.4,17C25.2,17 26,17 26.2,16.5C26.4,16 26.5,15.4 26.6,14.8L26.7,14.5C26.9,13.2 27.1,12.3 27.6,11.2C27.8,10.6 28.2,10.1 28.5,9.7C28.9,9.2 29.3,8.7 29.8,8.7C30,8.7 30.1,8.8 30.2,8.9C30.6,9.5 30.1,11.5 29.8,12.4C29.7,12.6 29.7,12.7 29.7,12.9L29.5,13.6C29.2,14.6 29,15.5 28.9,16.6L28.9,17L29,17.1C29.2,17.3 30.7,17 30.7,17C31.2,16.8 31.4,16.3 31.4,16.1C31.5,15.6 31.6,15.2 31.7,14.8C31.9,14 32,13.1 32.3,12.3C32.8,10.7 33.5,9.6 34.2,9C34.5,8.8 34.9,8.7 35,8.9C35.3,9.2 35.1,10.2 35,10.6C34.9,11.1 34.8,11.7 34.6,12.3C34.5,12.6 34.4,13 34.3,13.4C34.1,14.5 33.9,15.8 34.5,16.6C34.8,17 35.3,17.2 35.9,17.2C36.6,17.2 37.2,17 37.9,16.5C38.1,16.4 38.3,16.2 38.5,16C39.3,16.9 40.1,17.3 41.4,17.3C44.2,17.3 45.5,15.4 46.3,14C46.4,13.8 46.5,13.6 46.6,13.4C46.5,12.8 46.4,12.5 46.2,12.4ZM42.7,8.8L42.7,9.1C42.7,9.3 42.6,9.6 42.6,9.8C42.2,11.1 41.1,11.4 40.1,11.4C40.2,10.8 40.4,10.3 40.7,9.8C41.2,8.8 41.8,8.2 42.3,8.2L42.5,8.2L42.6,8.3L42.6,8.7C42.7,8.7 42.7,8.7 42.7,8.8Z" style="fill:white;fill-rule:nonzero;"/>
                    </g>
                </g>
                <g id="Group-15" transform="matrix(1,0,0,1,11,11)">
                    <path id="Shape_3_" d="M10.5,21C4.7,21 0,16.3 0,10.5C0,4.7 4.7,0 10.5,0C12.4,0 14.3,0.5 16,1.6C16.5,1.9 16.7,2.6 16.4,3.1C16.1,3.6 15.4,3.8 14.9,3.5C13.6,2.7 12.1,2.3 10.6,2.3C6,2.3 2.3,6 2.3,10.6C2.3,15.2 6,18.9 10.6,18.9C15.2,18.9 18.9,15.2 18.9,10.6C18.9,10 18.8,9.4 18.6,8.7C18.5,8.1 18.8,7.5 19.4,7.4C20,7.3 20.6,7.6 20.7,8.2C20.9,9.1 21,9.9 21,10.6C21,16.3 16.3,21 10.5,21Z" style="fill:white;fill-rule:nonzero;"/>
                    <path id="Path" d="M10.5,13.7L21.7,2.9C22.2,2.5 22.2,1.8 21.7,1.3C21.2,0.9 20.5,0.9 20.1,1.3L9.8,11.3L7,8.7C6.5,8.3 5.8,8.3 5.4,8.7C4.9,9.1 4.9,9.8 5.4,10.3L8.9,13.7C9.1,13.9 9.4,14 9.7,14C10,14 10.3,13.9 10.5,13.7Z" style="fill:white;"/>
                </g>
            </g>
        </g>
    </g>
</svg>
