<?xml version="1.0" encoding="UTF-8" standalone="no"?>
<svg width="512" height="512" viewBox="0 0 512 512" fill="none" xmlns="http://www.w3.org/2000/svg">
  <path
    d="M256 448C362.039 448 448 362.039 448 256C448 149.961 362.039 64 256 64C149.961 64 64 149.961 64 256C64 362.039 149.961 448 256 448Z"
    fill="#E09320"/>
  <path
    d="M64 246C67.333 160 133.333 77.333 240 64C337.137 64 416 145.551 416 246C416 346.449 337.137 428 240 428C142.863 428 64 346.449 64 246Z"
    fill="#FFD231"/>
  <path
    d="M178.286 265.143C206.058 265.143 228.571 242.629 228.571 214.857C228.571 187.085 206.058 164.572 178.286 164.572C150.514 164.572 128 187.085 128 214.857C128 242.629 150.514 265.143 178.286 265.143Z"
    fill="#F7F7F7"/>
  <path
    d="M333.714 265.143C361.486 265.143 384 242.629 384 214.857C384 187.085 361.486 164.572 333.714 164.572C305.942 164.572 283.429 187.085 283.429 214.857C283.429 242.629 305.942 265.143 333.714 265.143Z"
    fill="#F7F7F7"/>
  <path
    d="M351.571 380V416C351.571 424.831 358.741 432 367.571 432H432C440.831 432 448 424.831 448 416V368C448 359.169 440.831 352 432 352H399.786V328.214C399.786 319.265 392.52 312 383.571 312C374.623 312 367.357 319.265 367.357 328.214V352H302C294.273 352 288 358.273 288 366C288 373.727 294.273 380 302 380H351.571Z"
    fill="#FF9E58"/>
  <path
    d="M256 57C146.243 57 57 146.243 57 256C57 365.757 146.243 455 256 455C290.109 455 322.276 446.38 350.336 431.156C354.564 435.952 360.737 439 367.57 439H432C444.619 439 455 428.619 455 416V368C455 356.02 445.643 346.065 433.898 345.086C447.413 318.29 455 288 455 256C455 146.243 365.757 57 256 57ZM256 71C358.179 71 441 153.821 441 256C441 288.3 432.716 318.621 418.109 345H406.786V328.214C406.786 315.476 396.308 305 383.57 305C368.45 305 360.64 318.81 360.358 328.214V345H302C290.484 345 281 354.484 281 366C281 377.959 291.919 387 302 387H344.57V416C344.57 416.772 344.612 417.534 344.688 418.288C318.383 432.78 288.173 441 256 441C153.821 441 71 358.179 71 256C71 153.821 153.821 71 256 71ZM338.709 113.57C327.105 113.57 316.241 117.052 307.205 123.016C303.933 125.128 303.014 129.503 305.159 132.753C307.303 136.003 311.687 136.878 314.916 134.702C321.749 130.192 329.893 127.57 338.709 127.57C354.673 127.57 368.546 136.184 376.067 148.992C377.985 152.412 382.337 153.59 385.717 151.605C389.098 149.62 390.19 145.246 388.139 141.905C378.186 124.954 359.72 113.57 338.709 113.57V113.57ZM170.286 131.57C147.645 131.57 127.97 144.78 118.694 163.947C116.951 167.436 118.396 171.677 121.907 173.376C125.417 175.075 129.639 173.578 131.295 170.047C138.297 155.58 153.084 145.57 170.286 145.57C178.632 145.57 186.373 147.919 192.975 151.995C196.27 154.121 200.667 153.127 202.727 149.791C204.787 146.455 203.706 142.078 200.33 140.084C191.596 134.691 181.272 131.57 170.286 131.57V131.57ZM178.286 157.572C146.731 157.572 121 183.303 121 214.858C121 246.413 146.731 272.142 178.286 272.142C209.841 272.142 235.572 246.413 235.572 214.858C235.572 183.303 209.841 157.572 178.286 157.572V157.572ZM333.714 157.572C302.159 157.572 276.428 183.303 276.428 214.858C276.428 246.413 302.159 272.142 333.714 272.142C365.269 272.142 391 246.413 391 214.858C391 183.303 365.269 157.572 333.714 157.572V157.572ZM178.286 171.572C182.759 171.572 187.068 172.245 191.12 173.492C180.44 175.961 172.872 185.466 172.858 196.428C172.858 209.446 183.41 219.999 196.428 220C207.519 219.994 217.104 212.256 219.452 201.417C220.822 205.646 221.572 210.16 221.572 214.858C221.572 238.847 202.275 258.142 178.286 258.142C154.297 258.142 135 238.847 135 214.858C135 190.869 154.297 171.572 178.286 171.572V171.572ZM333.714 171.572C337.559 171.572 341.283 172.073 344.827 173.005C334.849 175.984 328.008 185.158 328 195.572C328.001 208.59 338.554 219.142 351.572 219.142C362.659 219.136 372.244 211.403 374.594 200.567C376.147 205.038 377 209.843 377 214.858C377 238.847 357.703 258.142 333.714 258.142C309.725 258.142 290.428 238.847 290.428 214.858C290.428 190.869 309.725 171.572 333.714 171.572V171.572ZM208 317C204.095 316.945 200.9 320.095 200.9 324C200.9 327.905 204.095 331.055 208 331H304C307.905 331.055 311.1 327.905 311.1 324C311.1 320.095 307.905 316.945 304 317H208ZM383.57 319C388.731 319 392.786 323.054 392.786 328.214V352C392.786 355.866 395.92 359 399.786 359C410.601 359.052 421.288 359 432 359C437.043 359 441 362.957 441 368V416C441 421.043 437.043 425 432 425H367.57C362.529 425 358.57 421.042 358.57 416V380C358.57 376.134 355.436 373 351.57 373H302C298.062 373 295 369.938 295 366C295 362.062 298.062 359 302 359H367.358C371.224 359 374.357 355.866 374.358 352V328.214C374.358 323.054 378.411 319 383.57 319Z"
    fill="black"/>
</svg>
