<?xml version="1.0" encoding="UTF-8" standalone="no"?>
<svg width="512" height="512" viewBox="0 0 512 512" fill="none" xmlns="http://www.w3.org/2000/svg">
  <path
    d="M256 448C362.039 448 448 362.039 448 256C448 149.961 362.039 64 256 64C149.961 64 64 149.961 64 256C64 362.039 149.961 448 256 448Z"
    fill="#E09320"/>
  <path
    d="M64 246C67.333 160 133.333 77.333 240 64C337.137 64 416 145.551 416 246C416 346.449 337.137 428 240 428C142.863 428 64 346.449 64 246Z"
    fill="#FFD231"/>
  <path
    d="M76.944 277.92C75.875 279.881 74.51 281.723 72.852 283.382C63.511 292.722 48.345 292.722 39.005 283.382C29.665 274.042 29.665 258.876 39.005 249.536C40.875 247.665 42.979 246.17 45.222 245.049C54.0987 239.637 70.941 231.46 95.749 220.518C101.792 217.853 104.555 220.604 101.914 226.658C90.8253 252.084 82.502 269.171 76.944 277.92V277.92Z"
    fill="#5BCEFF"/>
  <path
    d="M436.199 277.92C437.268 279.881 438.632 281.723 440.291 283.382C449.631 292.722 464.798 292.722 474.138 283.382C483.478 274.042 483.478 258.876 474.138 249.536C472.268 247.665 470.164 246.17 467.92 245.049C459.044 239.637 442.202 231.46 417.394 220.518C411.351 217.853 408.588 220.604 411.228 226.658C422.317 252.084 430.641 269.171 436.199 277.92V277.92Z"
    fill="#5BCEFF"/>
  <path
    d="M393.714 254.944C393.714 254.963 393.714 254.981 393.714 255C393.714 330.691 332.263 392.143 256.571 392.143C180.957 392.143 119.553 330.816 119.429 255.231L393.714 254.944V254.944Z"
    fill="#1F1F1F"/>
  <path
    d="M252.571 391C217.238 391 185.589 376.91 157.624 348.729C175.378 325.744 213.03 309.857 256.571 309.857C300.385 309.857 338.235 325.943 355.818 349.171C324.987 377.057 290.571 391 252.571 391Z"
    fill="#FF2F2F"/>
  <path
    d="M256.57 56C155.439 56 71.7163 131.724 59.3469 229.589C52.0165 233.192 46.1571 236.302 41.825 238.928C39.0222 240.364 36.3882 242.253 34.0547 244.587C21.5873 257.055 21.7215 276 34.0547 288.333C41.6181 295.896 52.2018 298.651 62.0063 296.667C81.1495 386.542 161.104 454 256.57 454C352.035 454 431.986 386.544 451.105 296.661C460.918 298.658 471.516 295.903 479.087 288.331C490.788 276.631 491.004 257.698 479.923 245.611C479.678 245.244 479.399 244.902 479.089 244.587L479.087 244.585C476.758 242.256 474.129 240.37 471.331 238.936C466.998 236.308 461.133 233.195 453.795 229.589C441.427 131.725 357.703 56 256.57 56ZM256.57 70C347.598 70 423.246 135.774 438.552 222.361C432.998 219.806 426.924 217.07 420.219 214.113C418.121 213.187 416.037 212.553 413.656 212.503V212.505C411.276 212.456 408.288 213.195 406.116 215.358C403.943 217.522 403.188 220.507 403.228 222.888C403.268 225.269 403.896 227.355 404.812 229.457C415.847 254.757 424.041 271.725 430.098 281.338C432.324 285.336 434.815 287.977 438.059 290.596C421.516 375.693 346.56 440 256.57 440C166.585 440 91.6314 375.702 75.0578 290.616C78.3281 288.244 81.2252 284.614 83.0454 281.337C89.1025 271.724 97.296 254.758 108.33 229.458C109.247 227.356 109.874 225.268 109.914 222.887C109.954 220.507 109.199 217.521 107.027 215.358C104.854 213.194 101.866 212.455 99.486 212.505C97.1056 212.554 95.0213 213.187 92.9235 214.112C86.2198 217.069 80.1468 219.805 74.5938 222.359C89.9018 135.774 165.545 70 256.57 70ZM181.142 146.286C147.077 146.286 119.286 174.077 119.286 208.142C119.231 212.047 122.381 215.242 126.286 215.242C130.191 215.242 133.341 212.047 133.286 208.142C133.286 181.654 154.654 160.286 181.142 160.286C207.63 160.286 229 181.654 229 208.142C228.945 212.047 232.095 215.242 236 215.242C239.905 215.242 243.055 212.047 243 208.142C243 174.076 215.207 146.286 181.142 146.286ZM332 146.286C297.935 146.286 270.142 174.076 270.142 208.142C270.087 212.047 273.237 215.242 277.142 215.242C281.047 215.242 284.197 212.047 284.142 208.142C284.142 181.654 305.513 160.286 332 160.286C358.487 160.286 379.858 181.654 379.858 208.142C379.803 212.047 382.953 215.242 386.858 215.242C390.763 215.242 393.913 212.047 393.858 208.142C393.858 174.076 366.065 146.286 332 146.286ZM92.9063 229.525C83.2954 251.216 75.6253 266.939 71.0344 274.166C64.1144 284.494 51.9925 286.469 43.9547 278.431C35.4415 268.12 39.3409 256.323 48.8657 251.025C65.3042 242.138 79.5116 235.53 92.9063 229.525V229.525ZM420.236 229.525C437.862 237.36 458.205 246.398 469.188 254.484C476.273 261.57 474.216 273.092 469.188 278.431C462.527 285.092 451.901 285.092 445.241 278.431C443.937 277.04 442.925 275.621 442.108 274.166C432.933 257.499 426.298 243.167 420.236 229.525ZM393.706 247.944L119.422 248.231C115.555 248.236 112.424 251.375 112.43 255.242C112.56 334.612 177.171 399.142 256.57 399.142C336.051 399.142 400.714 334.48 400.714 255C400.714 250.757 397.781 248.187 393.706 247.944ZM386.362 261.952C384.819 291.126 373.704 317.748 356.097 338.723C335.145 316.554 298.319 302.858 256.57 302.858C214.827 302.858 177.973 316.529 157.025 338.702C139.484 317.794 128.393 291.28 126.795 262.223L386.362 261.952ZM256.57 316.858C295.61 316.858 329.4 330.523 346.511 348.975C323.18 371.376 291.51 385.142 256.57 385.142C221.623 385.142 189.951 371.369 166.619 348.959C183.788 330.538 217.543 316.858 256.57 316.858Z"
    fill="black"/>
</svg>
