<?xml version="1.0" encoding="UTF-8" standalone="no"?>
<svg xmlns="http://www.w3.org/2000/svg" viewBox="0 0 64 64">
  <g id="_20-Light_Bulb" data-name="20-Light Bulb">
    <path id="path7209-2"
          d="M23.05272,55.31245l2.002,6A1.00009,1.00009,0,0,0,25.998,62H38.00194a1.0001,1.0001,0,0,0,.94531-.6875l2-6Z"
          fill="#fcaa52"/>
    <path id="path7185-7"
          d="M32,2a21.98649,21.98649,0,0,0-10.998,41.03125V54.99215a1.00012,1.00012,0,0,0,.99609,1.00391H42.00389A1,1,0,0,0,43,54.99215V43.00777A21.97235,21.97235,0,0,0,32,2Z"
          fill="#f7f065"/>
    <path id="path11531"
          d="M26,20.99607A5.002,5.002,0,0,0,26,31a1.001,1.001,0,1,0,.00805-2.00193H26a3,3,0,1,1,2.99609-2.9961V47.99611h2.002V26.002A5.01861,5.01861,0,0,0,26,20.9961Zm12.00391,0a5.0253,5.0253,0,0,0-5.00586,5.00587V47.99608h2V26.00194a3.001,3.001,0,1,1,3.00585,2.9961,1.001,1.001,0,0,0,0,2.00193,5.002,5.002,0,0,0,0-10.00393Z"
          fill="#fcb860"/>
    <path d="M36.94727,55.31635l-2,6a1,1,0,0,1-.94532.6875h4a1,1,0,0,0,.94532-.6875l2-6Z" fill="#fc9e3a"/>
    <polygon points="23.948 58 40.053 58 40.947 55.316 23.053 55.316 23.948 58" fill="#fc9e3a"/>
    <path
      d="M32,2.00385c-.67462,0-1.34076.03521-2,.09484a21.96835,21.96835,0,0,1,9,40.913V54.996a.9999.9999,0,0,1-.99609,1.00391h4A.9999.9999,0,0,0,43,54.996V43.01166A21.97235,21.97235,0,0,0,32,2.00385Z"
      fill="#fcdf54"/>
    <path id="path7192-1"
          d="M21.00193,47.996v6.9961a1.00012,1.00012,0,0,0,.99609,1.00391H42.00389A1,1,0,0,0,43,54.99215V47.996Z"
          fill="#fcb860"/>
    <path d="M39,54.996a.9999.9999,0,0,1-.99609,1.00391h4A.9999.9999,0,0,0,43,54.996V47.99994H39Z" fill="#fcaa52"/>
  </g>
</svg>
